<?xml version="1.0" encoding="utf-8"?>
<!-- Generator: Adobe Illustrator 16.0.0, SVG Export Plug-In . SVG Version: 6.00 Build 0)  -->
<!DOCTYPE svg PUBLIC "-//W3C//DTD SVG 1.1//EN" "http://www.w3.org/Graphics/SVG/1.1/DTD/svg11.dtd">
<svg version="1.1" id="Layer_1" xmlns="http://www.w3.org/2000/svg" xmlns:xlink="http://www.w3.org/1999/xlink" x="0px" y="0px"
	 width="50px" height="50px" viewBox="0 0 50 50" enable-background="new 0 0 50 50" xml:space="preserve">
<g>
	<polygon points="27.355,10.042 22.645,10.042 25.001,14.122 	"/>
	<polygon points="21.467,10.042 16.757,10.042 19.112,14.122 	"/>
	<polygon points="27.944,19.221 30.3,15.142 25.589,15.142 	"/>
	<polygon points="22.057,19.221 24.411,15.142 19.7,15.142 	"/>
	<polygon points="18.522,15.142 13.813,15.142 16.168,19.221 	"/>
	<polygon points="12.635,15.142 7.924,15.142 10.28,19.221 	"/>
	<polygon points="7.336,15.481 4.979,19.562 9.69,19.562 	"/>
	<polygon points="15.578,19.562 13.224,15.481 10.868,19.562 	"/>
	<polygon points="16.757,19.562 21.467,19.562 19.112,15.481 	"/>
	<polygon points="25.001,15.481 22.645,19.562 27.355,19.562 	"/>
	<polygon points="33.243,19.562 30.889,15.481 28.533,19.562 	"/>
	<polygon points="36.777,15.481 34.422,19.562 39.132,19.562 	"/>
	<polygon points="42.666,15.481 40.31,19.562 45.021,19.562 	"/>
	<polygon points="39.132,20.241 34.422,20.241 36.777,24.32 	"/>
	<polygon points="33.243,20.241 28.533,20.241 30.889,24.32 	"/>
	<polygon points="27.355,20.241 22.645,20.241 25.001,24.32 	"/>
	<polygon points="16.757,20.241 19.112,24.32 21.467,20.241 	"/>
	<polygon points="13.224,24.32 15.578,20.241 10.868,20.241 	"/>
	<polygon points="4.979,20.241 7.336,24.32 9.69,20.241 	"/>
	<polygon points="10.28,20.581 7.924,24.66 12.635,24.66 	"/>
	<polygon points="13.813,24.66 18.522,24.66 16.168,20.581 	"/>
	<polygon points="24.411,24.66 22.057,20.581 19.7,24.66 	"/>
	<polygon points="27.944,20.581 25.589,24.66 30.3,24.66 	"/>
	<polygon points="36.188,24.66 33.833,20.581 31.478,24.66 	"/>
	<polygon points="42.076,24.66 39.722,20.581 37.365,24.66 	"/>
	<polygon points="31.478,25.341 33.833,29.42 36.188,25.341 	"/>
	<polygon points="37.365,25.341 39.722,29.42 42.076,25.341 	"/>
	<polygon points="28.533,29.76 33.243,29.76 30.889,25.681 	"/>
	<polygon points="34.422,29.76 39.132,29.76 36.777,25.681 	"/>
	<polygon points="42.666,24.32 45.021,20.241 40.31,20.241 	"/>
	<polygon points="40.31,29.76 45.021,29.76 42.666,25.681 	"/>
	<polygon points="36.777,34.52 39.132,30.44 34.422,30.44 	"/>
	<polygon points="30.889,34.52 33.243,30.44 28.533,30.44 	"/>
	<polygon points="22.645,30.44 25.001,34.52 27.355,30.44 	"/>
	<polygon points="19.7,34.859 24.411,34.859 22.057,30.78 	"/>
	<polygon points="25.589,34.859 30.3,34.859 27.944,30.78 	"/>
	<polygon points="27.944,39.619 30.3,35.539 25.589,35.539 	"/>
	<polygon points="22.057,39.619 24.411,35.539 19.7,35.539 	"/>
	<polygon points="16.168,39.619 18.522,35.539 13.813,35.539 	"/>
	<polygon points="10.868,39.959 15.578,39.959 13.224,35.88 	"/>
</g>
</svg>
