<?xml version="1.0" encoding="utf-8"?>
<!-- Generator: Adobe Illustrator 16.0.0, SVG Export Plug-In . SVG Version: 6.00 Build 0)  -->
<!DOCTYPE svg PUBLIC "-//W3C//DTD SVG 1.1//EN" "http://www.w3.org/Graphics/SVG/1.1/DTD/svg11.dtd">
<svg version="1.1" id="Layer_1" xmlns="http://www.w3.org/2000/svg" xmlns:xlink="http://www.w3.org/1999/xlink" x="0px" y="0px"
	 width="50px" height="50px" viewBox="0 0 50 50" enable-background="new 0 0 50 50" xml:space="preserve">
<g>
	<polygon points="39.238,19.159 33.243,19.159 36.24,24.351 	"/>
	<polygon points="16.757,19.159 10.762,19.159 13.76,24.351 	"/>
	<polygon points="10.013,19.592 7.016,24.783 13.01,24.783 	"/>
	<polygon points="42.984,24.783 39.987,19.592 36.99,24.783 	"/>
	<polygon points="39.987,30.841 42.984,25.649 36.99,25.649 	"/>
	<polygon points="7.016,25.649 10.013,30.841 13.01,25.649 	"/>
	<polygon points="31.744,19.159 25.75,19.159 28.747,24.351 	"/>
	<polygon points="21.253,24.351 24.25,19.159 18.256,19.159 	"/>
	<polygon points="22.003,24.783 27.997,24.783 25,19.592 	"/>
	<polygon points="35.491,25.649 29.497,25.649 32.494,30.841 	"/>
	<polygon points="27.997,25.649 22.003,25.649 25,30.841 	"/>
	<polygon points="17.506,30.841 20.503,25.649 14.509,25.649 	"/>
	<polygon points="13.76,26.082 10.762,31.273 16.757,31.273 	"/>
	<polygon points="21.253,26.082 18.256,31.273 24.25,31.273 	"/>
	<polygon points="28.747,26.082 25.75,31.273 31.744,31.273 	"/>
	<polygon points="33.243,31.273 39.238,31.273 36.24,26.082 	"/>
	<polygon points="14.509,37.764 20.503,37.764 17.506,32.571 	"/>
	<polygon points="29.497,37.764 35.491,37.764 32.494,32.571 	"/>
	<polygon points="25,43.82 27.997,38.629 22.003,38.629 	"/>
	<polygon points="32.494,17.861 35.491,12.67 29.497,12.67 	"/>
	<polygon points="20.503,12.67 14.509,12.67 17.506,17.861 	"/>
	<polygon points="25,17.861 27.997,12.67 22.003,12.67 	"/>
	<polygon points="13.76,13.103 10.762,18.294 16.757,18.294 	"/>
	<polygon points="18.256,18.294 24.25,18.294 21.253,13.103 	"/>
	<polygon points="28.747,13.103 25.75,18.294 31.744,18.294 	"/>
	<polygon points="39.238,18.294 36.24,13.103 33.243,18.294 	"/>
	<polygon points="31.744,6.18 25.75,6.18 28.747,11.371 	"/>
	<polygon points="24.25,6.18 18.256,6.18 21.253,11.371 	"/>
</g>
</svg>
