<?xml version="1.0" encoding="utf-8"?>
<!-- Generator: Adobe Illustrator 16.0.0, SVG Export Plug-In . SVG Version: 6.00 Build 0)  -->
<!DOCTYPE svg PUBLIC "-//W3C//DTD SVG 1.1//EN" "http://www.w3.org/Graphics/SVG/1.1/DTD/svg11.dtd">
<svg version="1.1" id="Layer_1" xmlns="http://www.w3.org/2000/svg" xmlns:xlink="http://www.w3.org/1999/xlink" x="0px" y="0px"
	 width="50px" height="50px" viewBox="0 0 50 50" enable-background="new 0 0 50 50" xml:space="preserve">
<g>
	<polygon points="38.899,18.919 34.266,18.919 36.582,22.93 	"/>
	<polygon points="30.792,22.93 33.107,18.919 28.475,18.919 	"/>
	<polygon points="21.525,18.919 16.893,18.919 19.208,22.93 	"/>
	<polygon points="15.734,18.919 11.101,18.919 13.418,22.93 	"/>
	<polygon points="10.522,19.252 8.206,23.265 12.839,23.265 	"/>
	<polygon points="18.63,23.265 16.313,19.252 13.997,23.265 	"/>
	<polygon points="24.42,23.265 22.104,19.252 19.788,23.265 	"/>
	<polygon points="27.896,19.252 25.58,23.265 30.212,23.265 	"/>
	<polygon points="36.003,23.265 33.687,19.252 31.37,23.265 	"/>
	<polygon points="41.794,23.265 39.478,19.252 37.161,23.265 	"/>
	<polygon points="36.003,23.934 31.37,23.934 33.687,27.946 	"/>
	<polygon points="39.478,27.946 41.794,23.934 37.161,23.934 	"/>
	<polygon points="27.896,27.946 30.212,23.934 25.58,23.934 	"/>
	<polygon points="22.104,27.946 24.42,23.934 19.788,23.934 	"/>
	<polygon points="16.313,27.946 18.63,23.934 13.997,23.934 	"/>
	<polygon points="8.206,23.934 10.522,27.946 12.839,23.934 	"/>
	<polygon points="11.101,28.279 15.734,28.279 13.418,24.268 	"/>
	<polygon points="16.893,28.279 21.525,28.279 19.208,24.268 	"/>
	<polygon points="27.316,28.279 25,24.268 22.684,28.279 	"/>
	<polygon points="30.792,24.268 28.475,28.279 33.107,28.279 	"/>
	<polygon points="34.266,28.279 38.899,28.279 36.582,24.268 	"/>
	<polygon points="36.582,32.961 38.899,28.949 34.266,28.949 	"/>
	<polygon points="33.107,28.949 28.475,28.949 30.792,32.961 	"/>
	<polygon points="27.316,28.949 22.684,28.949 25,32.961 	"/>
	<polygon points="19.208,32.961 21.525,28.949 16.893,28.949 	"/>
	<polygon points="11.101,28.949 13.418,32.961 15.734,28.949 	"/>
	<polygon points="18.63,33.296 16.313,29.283 13.997,33.296 	"/>
	<polygon points="22.104,29.283 19.788,33.296 24.42,33.296 	"/>
	<polygon points="27.896,29.283 25.58,33.296 30.212,33.296 	"/>
	<polygon points="31.37,33.296 36.003,33.296 33.687,29.283 	"/>
	<polygon points="33.687,37.977 36.003,33.965 31.37,33.965 	"/>
	<polygon points="30.212,33.965 25.58,33.965 27.896,37.977 	"/>
	<polygon points="24.42,33.965 19.788,33.965 22.104,37.977 	"/>
	<polygon points="13.997,33.965 16.313,37.977 18.63,33.965 	"/>
	<polygon points="21.525,38.311 19.208,34.299 16.893,38.311 	"/>
	<polygon points="25,34.299 22.684,38.311 27.316,38.311 	"/>
	<polygon points="28.475,38.311 33.107,38.311 30.792,34.299 	"/>
	<polygon points="30.792,42.992 33.107,38.979 28.475,38.979 	"/>
	<polygon points="22.684,38.979 25,42.992 27.316,38.979 	"/>
	<polygon points="16.893,38.979 19.208,42.992 21.525,38.979 	"/>
	<polygon points="19.788,43.326 24.42,43.326 22.104,39.314 	"/>
	<polygon points="25.58,43.326 30.212,43.326 27.896,39.314 	"/>
	<polygon points="19.938,9.804 19.938,14.813 24.277,12.31 	"/>
	<polygon points="24.639,12.935 20.301,15.439 24.639,17.944 	"/>
	<polygon points="24.639,6.674 20.301,9.179 24.639,11.683 	"/>
	<polygon points="25.361,6.674 25.361,11.683 29.699,9.179 	"/>
	<polygon points="25.361,12.935 25.361,17.944 29.699,15.439 	"/>
	<polygon points="30.062,14.813 30.062,9.804 25.723,12.31 	"/>
</g>
</svg>
