<?xml version="1.0" encoding="utf-8"?>
<!-- Generator: Adobe Illustrator 16.0.0, SVG Export Plug-In . SVG Version: 6.00 Build 0)  -->
<!DOCTYPE svg PUBLIC "-//W3C//DTD SVG 1.1//EN" "http://www.w3.org/Graphics/SVG/1.1/DTD/svg11.dtd">
<svg version="1.1" id="Layer_1" xmlns="http://www.w3.org/2000/svg" xmlns:xlink="http://www.w3.org/1999/xlink" x="0px" y="0px"
	 width="50px" height="50px" viewBox="0 0 50 50" enable-background="new 0 0 50 50" xml:space="preserve">
<g>
	<polygon points="41.527,13.47 36.018,13.47 38.772,18.241 	"/>
	<polygon points="34.641,13.47 29.132,13.47 31.886,18.241 	"/>
	<polygon points="15.359,13.47 18.114,18.241 20.868,13.47 	"/>
	<polygon points="13.982,13.47 8.473,13.47 11.228,18.241 	"/>
	<polygon points="7.785,13.868 5.03,18.639 10.539,18.639 	"/>
	<polygon points="11.917,18.639 17.425,18.639 14.671,13.868 	"/>
	<polygon points="24.311,18.639 21.557,13.868 18.803,18.639 	"/>
	<polygon points="28.443,13.868 25.689,18.639 31.197,18.639 	"/>
	<polygon points="35.329,13.868 32.575,18.639 38.083,18.639 	"/>
	<polygon points="44.97,18.639 42.215,13.868 39.461,18.639 	"/>
	<polygon points="38.083,19.434 32.575,19.434 35.329,24.205 	"/>
	<polygon points="42.215,24.205 44.97,19.434 39.461,19.434 	"/>
	<polygon points="31.197,19.434 25.689,19.434 28.443,24.205 	"/>
	<polygon points="18.803,19.434 21.557,24.205 24.311,19.434 	"/>
	<polygon points="14.671,24.205 17.425,19.434 11.917,19.434 	"/>
	<polygon points="5.03,19.434 7.785,24.205 10.539,19.434 	"/>
	<polygon points="8.473,24.602 13.982,24.602 11.228,19.831 	"/>
	<polygon points="18.114,19.831 15.359,24.602 20.868,24.602 	"/>
	<polygon points="27.754,24.602 25,19.831 22.246,24.602 	"/>
	<polygon points="31.886,19.831 29.132,24.602 34.641,24.602 	"/>
	<polygon points="36.018,24.602 41.527,24.602 38.772,19.831 	"/>
	<polygon points="38.083,7.506 32.575,7.506 35.329,12.277 	"/>
	<polygon points="17.425,7.506 11.917,7.506 14.671,12.277 	"/>
	<polygon points="11.228,7.904 8.473,12.675 13.982,12.675 	"/>
	<polygon points="20.868,12.675 18.114,7.904 15.359,12.675 	"/>
	<polygon points="31.886,7.904 29.132,12.675 34.641,12.675 	"/>
	<polygon points="41.527,12.675 38.772,7.904 36.018,12.675 	"/>
	<polygon points="38.772,30.168 41.527,25.397 36.018,25.397 	"/>
	<polygon points="34.641,25.397 29.132,25.397 31.886,30.168 	"/>
	<polygon points="27.754,25.397 22.246,25.397 25,30.168 	"/>
	<polygon points="18.114,30.168 20.868,25.397 15.359,25.397 	"/>
	<polygon points="8.473,25.397 11.228,30.168 13.982,25.397 	"/>
	<polygon points="17.425,30.566 14.671,25.795 11.917,30.566 	"/>
	<polygon points="21.557,25.795 18.803,30.566 24.311,30.566 	"/>
	<polygon points="28.443,25.795 25.689,30.566 31.197,30.566 	"/>
	<polygon points="32.575,30.566 38.083,30.566 35.329,25.795 	"/>
	<polygon points="35.329,36.132 38.083,31.361 32.575,31.361 	"/>
	<polygon points="31.197,31.361 25.689,31.361 28.443,36.132 	"/>
	<polygon points="24.311,31.361 18.803,31.361 21.557,36.132 	"/>
	<polygon points="11.917,31.361 14.671,36.132 17.425,31.361 	"/>
	<polygon points="20.868,36.529 18.114,31.759 15.359,36.529 	"/>
	<polygon points="25,31.759 22.246,36.529 27.754,36.529 	"/>
	<polygon points="29.132,36.529 34.641,36.529 31.886,31.759 	"/>
	<polygon points="31.886,42.096 34.641,37.325 29.132,37.325 	"/>
	<polygon points="22.246,37.325 25,42.096 27.754,37.325 	"/>
	<polygon points="15.359,37.325 18.114,42.096 20.868,37.325 	"/>
	<polygon points="18.803,42.493 24.311,42.493 21.557,37.722 	"/>
	<polygon points="25.689,42.493 31.197,42.493 28.443,37.722 	"/>
</g>
</svg>
