<?xml version="1.0" encoding="utf-8"?>
<!-- Generator: Adobe Illustrator 16.0.0, SVG Export Plug-In . SVG Version: 6.00 Build 0)  -->
<!DOCTYPE svg PUBLIC "-//W3C//DTD SVG 1.1//EN" "http://www.w3.org/Graphics/SVG/1.1/DTD/svg11.dtd">
<svg version="1.1" id="Layer_1" xmlns="http://www.w3.org/2000/svg" xmlns:xlink="http://www.w3.org/1999/xlink" x="0px" y="0px"
	 width="50px" height="50px" viewBox="0 0 50 50" enable-background="new 0 0 50 50" xml:space="preserve">
<g>
	<polygon points="22.835,14.75 19.371,20.75 26.299,20.75 	"/>
	<polygon points="30.629,14.25 23.701,14.25 27.165,20.25 	"/>
	<polygon points="34.959,21.75 28.031,21.75 31.495,27.75 	"/>
	<polygon points="26.299,21.75 19.371,21.75 22.835,27.75 	"/>
	<polygon points="18.505,22.25 15.041,28.25 21.969,28.25 	"/>
	<polygon points="27.165,22.25 23.701,28.25 30.629,28.25 	"/>
	<polygon points="27.165,7.25 23.701,13.25 30.629,13.25 	"/>
	<polygon points="30.629,29.25 23.701,29.25 27.165,35.25 	"/>
	<polygon points="22.835,29.75 19.371,35.75 26.299,35.75 	"/>
	<polygon points="26.299,36.75 19.371,36.75 22.835,42.75 	"/>
</g>
</svg>
