<?xml version="1.0" encoding="utf-8"?>
<!-- Generator: Adobe Illustrator 16.0.0, SVG Export Plug-In . SVG Version: 6.00 Build 0)  -->
<!DOCTYPE svg PUBLIC "-//W3C//DTD SVG 1.1//EN" "http://www.w3.org/Graphics/SVG/1.1/DTD/svg11.dtd">
<svg version="1.1" id="Layer_1" xmlns="http://www.w3.org/2000/svg" xmlns:xlink="http://www.w3.org/1999/xlink" x="0px" y="0px"
	 width="50px" height="50px" viewBox="0 0 50 50" enable-background="new 0 0 50 50" xml:space="preserve">
<g>
	<polygon points="21.512,16.542 18.722,21.375 24.302,21.375 	"/>
	<polygon points="28.488,16.542 25.698,21.375 31.278,21.375 	"/>
	<polygon points="18.023,22.583 15.233,27.417 20.814,27.417 	"/>
	<polygon points="25,22.583 22.21,27.417 27.79,27.417 	"/>
	<polygon points="31.977,22.583 29.186,27.417 34.767,27.417 	"/>
	<polygon points="25,10.5 22.21,15.333 27.79,15.333 	"/>
	<polygon points="14.536,28.625 11.745,33.458 17.326,33.458 	"/>
	<polygon points="21.512,28.625 18.722,33.458 24.302,33.458 	"/>
	<polygon points="28.488,28.625 25.698,33.458 31.278,33.458 	"/>
	<polygon points="35.464,28.625 32.674,33.458 38.255,33.458 	"/>
	<polygon points="11.048,34.667 8.257,39.5 13.838,39.5 	"/>
	<polygon points="18.023,34.667 15.233,39.5 20.814,39.5 	"/>
	<polygon points="25,34.667 22.21,39.5 27.79,39.5 	"/>
	<polygon points="31.977,34.667 29.186,39.5 34.767,39.5 	"/>
	<polygon points="38.952,34.667 36.162,39.5 41.743,39.5 	"/>
</g>
</svg>
