<?xml version="1.0" encoding="utf-8"?>
<!-- Generator: Adobe Illustrator 16.0.0, SVG Export Plug-In . SVG Version: 6.00 Build 0)  -->
<!DOCTYPE svg PUBLIC "-//W3C//DTD SVG 1.1//EN" "http://www.w3.org/Graphics/SVG/1.1/DTD/svg11.dtd">
<svg version="1.1" id="Layer_1" xmlns="http://www.w3.org/2000/svg" xmlns:xlink="http://www.w3.org/1999/xlink" x="0px" y="0px"
	 width="50px" height="50px" viewBox="0 0 50 50" enable-background="new 0 0 50 50" xml:space="preserve">
<g>
	<polygon points="34.959,14 28.031,14 31.495,20 	"/>
	<polygon points="39.289,20.5 35.825,14.5 32.361,20.5 	"/>
	<polygon points="39.289,21.5 32.361,21.5 35.825,27.5 	"/>
	<polygon points="30.629,21.5 23.701,21.5 27.165,27.5 	"/>
	<polygon points="15.041,21.5 18.505,27.5 21.969,21.5 	"/>
	<polygon points="10.711,28 17.639,28 14.175,22 	"/>
	<polygon points="26.299,28 22.835,22 19.371,28 	"/>
	<polygon points="31.495,22 28.031,28 34.959,28 	"/>
	<polygon points="31.495,7 28.031,13 34.959,13 	"/>
	<polygon points="34.959,29 28.031,29 31.495,35 	"/>
	<polygon points="19.371,29 22.835,35 26.299,29 	"/>
	<polygon points="14.175,35 17.639,29 10.711,29 	"/>
	<polygon points="6.381,35.5 13.309,35.5 9.845,29.5 	"/>
	<polygon points="23.701,35.5 30.629,35.5 27.165,29.5 	"/>
	<polygon points="32.361,36.5 35.825,42.5 39.289,36.5 	"/>
	<polygon points="23.701,36.5 27.165,42.5 30.629,36.5 	"/>
	<polygon points="28.031,43 34.959,43 31.495,37 	"/>
	<polygon points="40.155,37 36.691,43 43.619,43 	"/>
</g>
</svg>
