<?xml version="1.0" encoding="utf-8"?>
<!-- Generator: Adobe Illustrator 16.0.0, SVG Export Plug-In . SVG Version: 6.00 Build 0)  -->
<!DOCTYPE svg PUBLIC "-//W3C//DTD SVG 1.1//EN" "http://www.w3.org/Graphics/SVG/1.1/DTD/svg11.dtd">
<svg version="1.1" id="Layer_1" xmlns="http://www.w3.org/2000/svg" xmlns:xlink="http://www.w3.org/1999/xlink" x="0px" y="0px"
	 width="50px" height="50px" viewBox="0 0 50 50" enable-background="new 0 0 50 50" xml:space="preserve">
<g>
	<polygon points="31.495,12.916 25.722,12.916 28.608,17.916 	"/>
	<polygon points="24.278,12.916 18.505,12.916 21.392,17.916 	"/>
	<polygon points="20.67,18.333 17.783,13.333 14.896,18.333 	"/>
	<polygon points="35.103,18.333 32.217,13.333 29.33,18.333 	"/>
	<polygon points="14.175,19.583 11.289,24.583 17.062,24.583 	"/>
	<polygon points="35.825,19.583 32.938,24.583 38.711,24.583 	"/>
	<polygon points="35.825,30.416 38.711,25.416 32.938,25.416 	"/>
	<polygon points="14.175,30.416 17.062,25.416 11.289,25.416 	"/>
	<polygon points="29.33,31.666 32.217,36.666 35.103,31.666 	"/>
	<polygon points="27.887,19.166 22.113,19.166 25,24.166 	"/>
	<polygon points="18.505,24.583 24.278,24.583 21.392,19.583 	"/>
	<polygon points="28.608,19.583 25.722,24.583 31.495,24.583 	"/>
	<polygon points="31.495,25.416 25.722,25.416 28.608,30.416 	"/>
	<polygon points="21.392,30.416 24.278,25.416 18.505,25.416 	"/>
	<polygon points="25,25.833 22.113,30.833 27.887,30.833 	"/>
	<polygon points="14.896,31.666 17.783,36.666 20.67,31.666 	"/>
	<polygon points="18.505,37.083 24.278,37.083 21.392,32.083 	"/>
	<polygon points="25.722,37.083 31.495,37.083 28.608,32.083 	"/>
	<polygon points="38.711,12.916 32.938,12.916 35.825,17.916 	"/>
	<polygon points="17.062,12.916 11.289,12.916 14.175,17.916 	"/>
	<polygon points="42.32,19.166 36.547,19.166 39.434,24.166 	"/>
	<polygon points="13.453,19.166 7.68,19.166 10.566,24.166 	"/>
	<polygon points="21.392,7.083 18.505,12.083 24.278,12.083 	"/>
	<polygon points="28.608,7.083 25.722,12.083 31.495,12.083 	"/>
	<polygon points="10.566,25.833 7.68,30.833 13.453,30.833 	"/>
	<polygon points="36.547,30.833 42.32,30.833 39.434,25.833 	"/>
	<polygon points="11.289,37.083 17.062,37.083 14.175,32.083 	"/>
	<polygon points="32.938,37.083 38.711,37.083 35.825,32.083 	"/>
	<polygon points="28.608,42.916 31.495,37.916 25.722,37.916 	"/>
	<polygon points="21.392,42.916 24.278,37.916 18.505,37.916 	"/>
</g>
</svg>
