<?xml version="1.0" encoding="utf-8"?>
<!-- Generator: Adobe Illustrator 16.0.0, SVG Export Plug-In . SVG Version: 6.00 Build 0)  -->
<!DOCTYPE svg PUBLIC "-//W3C//DTD SVG 1.1//EN" "http://www.w3.org/Graphics/SVG/1.1/DTD/svg11.dtd">
<svg version="1.1" id="Layer_1" xmlns="http://www.w3.org/2000/svg" xmlns:xlink="http://www.w3.org/1999/xlink" x="0px" y="0px"
	 width="50px" height="50px" viewBox="0 0 50 50" enable-background="new 0 0 50 50" xml:space="preserve">
<g>
	<polygon points="42.714,19.034 36.81,19.034 39.763,24.147 	"/>
	<polygon points="35.333,19.034 29.429,19.034 32.382,24.147 	"/>
	<polygon points="20.571,19.034 14.667,19.034 17.62,24.147 	"/>
	<polygon points="13.19,19.034 7.286,19.034 10.239,24.147 	"/>
	<polygon points="13.93,19.46 10.977,24.574 16.881,24.574 	"/>
	<polygon points="21.311,19.46 18.357,24.574 24.262,24.574 	"/>
	<polygon points="28.691,19.46 25.738,24.574 31.643,24.574 	"/>
	<polygon points="36.072,19.46 33.119,24.574 39.023,24.574 	"/>
	<polygon points="31.643,25.426 25.738,25.426 28.691,30.54 	"/>
	<polygon points="24.262,25.426 18.357,25.426 21.311,30.54 	"/>
	<polygon points="25.001,25.853 22.048,30.966 27.952,30.966 	"/>
	<polygon points="27.952,6.25 22.048,6.25 25.001,11.363 	"/>
	<polygon points="21.311,6.676 18.357,11.79 24.262,11.79 	"/>
	<polygon points="28.691,6.676 25.738,11.79 31.643,11.79 	"/>
	<polygon points="31.643,12.642 25.738,12.642 28.691,17.756 	"/>
	<polygon points="24.262,12.642 18.357,12.642 21.311,17.756 	"/>
	<polygon points="25.001,13.068 22.048,18.182 27.952,18.182 	"/>
	<polygon points="27.952,31.818 22.048,31.818 25.001,36.932 	"/>
	<polygon points="21.311,32.244 18.357,37.357 24.262,37.357 	"/>
	<polygon points="28.691,32.244 25.738,37.357 31.643,37.357 	"/>
	<polygon points="39.023,38.21 33.119,38.21 36.072,43.324 	"/>
	<polygon points="31.643,38.21 25.738,38.21 28.691,43.324 	"/>
	<polygon points="24.262,38.21 18.357,38.21 21.311,43.324 	"/>
	<polygon points="16.881,38.21 10.977,38.21 13.93,43.324 	"/>
	<polygon points="10.239,38.637 7.286,43.75 13.19,43.75 	"/>
	<polygon points="17.62,38.637 14.667,43.75 20.571,43.75 	"/>
	<polygon points="32.382,38.637 29.429,43.75 35.333,43.75 	"/>
	<polygon points="39.763,38.637 36.81,43.75 42.714,43.75 	"/>
</g>
</svg>
