<?xml version="1.0" encoding="utf-8"?>
<!-- Generator: Adobe Illustrator 16.0.0, SVG Export Plug-In . SVG Version: 6.00 Build 0)  -->
<!DOCTYPE svg PUBLIC "-//W3C//DTD SVG 1.1//EN" "http://www.w3.org/Graphics/SVG/1.1/DTD/svg11.dtd">
<svg version="1.1" id="Layer_1" xmlns="http://www.w3.org/2000/svg" xmlns:xlink="http://www.w3.org/1999/xlink" x="0px" y="0px"
	 width="50px" height="50px" viewBox="0 0 50 50" enable-background="new 0 0 50 50" xml:space="preserve">
<g>
	<g>
		<polygon points="34.094,19.749 28.897,19.749 31.496,24.25 		"/>
		<polygon points="21.103,19.749 15.907,19.749 18.506,24.25 		"/>
		<polygon points="15.258,20.124 12.659,24.625 17.855,24.625 		"/>
		<polygon points="34.744,20.124 32.145,24.625 37.341,24.625 		"/>
		<polygon points="37.341,25.375 32.145,25.375 34.744,29.875 		"/>
		<polygon points="17.855,25.375 12.659,25.375 15.258,29.875 		"/>
		<polygon points="18.506,25.75 15.907,30.25 21.103,30.25 		"/>
		<polygon points="31.496,25.75 28.897,30.25 34.094,30.25 		"/>
		<polygon points="30.846,14.124 25.649,14.124 28.248,18.624 		"/>
		<polygon points="24.351,14.124 19.154,14.124 21.753,18.624 		"/>
		<polygon points="18.506,14.499 15.907,18.999 21.103,18.999 		"/>
		<polygon points="25.001,14.499 22.402,18.999 27.598,18.999 		"/>
		<polygon points="31.496,14.499 28.897,18.999 34.094,18.999 		"/>
		<polygon points="34.094,31 28.897,31 31.496,35.5 		"/>
		<polygon points="27.598,31 22.402,31 25.001,35.5 		"/>
		<polygon points="21.103,31 15.907,31 18.506,35.5 		"/>
		<polygon points="21.753,31.375 19.154,35.875 24.351,35.875 		"/>
		<polygon points="28.248,31.375 25.649,35.875 30.846,35.875 		"/>
	</g>
	<g>
		<polygon points="14.607,8.499 9.411,8.499 12.01,12.999 		"/>
		<polygon points="8.763,8.874 6.164,13.374 11.359,13.374 		"/>
		<polygon points="15.258,8.874 12.659,13.374 17.855,13.374 		"/>
		<polygon points="17.855,14.124 12.659,14.124 15.258,18.624 		"/>
		<polygon points="11.359,14.124 6.164,14.124 8.763,18.624 		"/>
		<polygon points="12.01,14.499 9.411,18.999 14.607,18.999 		"/>
	</g>
	<g>
		<polygon points="40.589,8.499 35.393,8.499 37.991,12.999 		"/>
		<polygon points="34.744,8.874 32.145,13.374 37.341,13.374 		"/>
		<polygon points="41.239,8.874 38.641,13.374 43.836,13.374 		"/>
		<polygon points="37.341,14.124 32.145,14.124 34.744,18.624 		"/>
		<polygon points="43.836,14.124 38.641,14.124 41.239,18.624 		"/>
		<polygon points="37.991,14.499 35.393,18.999 40.589,18.999 		"/>
	</g>
	<g>
		<polygon points="14.607,31 9.411,31 12.01,35.5 		"/>
		<polygon points="8.763,31.375 6.164,35.875 11.359,35.875 		"/>
		<polygon points="15.258,31.375 12.659,35.875 17.855,35.875 		"/>
		<polygon points="17.855,36.625 12.659,36.625 15.258,41.125 		"/>
		<polygon points="11.359,36.625 6.164,36.625 8.763,41.125 		"/>
		<polygon points="12.01,37 9.411,41.5 14.607,41.5 		"/>
	</g>
	<g>
		<polygon points="40.589,31 35.393,31 37.991,35.5 		"/>
		<polygon points="34.744,31.375 32.145,35.875 37.341,35.875 		"/>
		<polygon points="41.239,31.375 38.641,35.875 43.836,35.875 		"/>
		<polygon points="37.341,36.625 32.145,36.625 34.744,41.125 		"/>
		<polygon points="43.836,36.625 38.641,36.625 41.239,41.125 		"/>
		<polygon points="37.991,37 35.393,41.5 40.589,41.5 		"/>
	</g>
</g>
</svg>
