<?xml version="1.0" encoding="utf-8"?>
<!-- Generator: Adobe Illustrator 16.0.0, SVG Export Plug-In . SVG Version: 6.00 Build 0)  -->
<!DOCTYPE svg PUBLIC "-//W3C//DTD SVG 1.1//EN" "http://www.w3.org/Graphics/SVG/1.1/DTD/svg11.dtd">
<svg version="1.1" id="Layer_1" xmlns="http://www.w3.org/2000/svg" xmlns:xlink="http://www.w3.org/1999/xlink" x="0px" y="0px"
	 width="50px" height="50px" viewBox="0 0 50 50" enable-background="new 0 0 50 50" xml:space="preserve">
<g>
	<polygon points="19.938,9.971 19.938,14.98 24.277,12.477 	"/>
	<polygon points="24.639,18.111 24.639,13.102 20.3,15.606 	"/>
	<polygon points="24.639,11.85 24.639,6.841 20.3,9.346 	"/>
	<polygon points="25.362,6.841 25.362,11.85 29.7,9.346 	"/>
	<polygon points="25.362,13.102 25.362,18.111 29.7,15.606 	"/>
	<polygon points="30.062,14.98 30.062,9.971 25.723,12.477 	"/>
	<polygon points="9.093,28.757 9.093,33.766 13.431,31.261 	"/>
	<polygon points="14.516,31.888 14.516,36.896 18.854,34.392 	"/>
	<polygon points="19.215,40.027 19.215,35.019 14.877,37.522 	"/>
	<polygon points="19.938,35.019 19.938,40.027 24.277,37.522 	"/>
	<polygon points="24.639,43.158 24.639,38.149 20.3,40.654 	"/>
	<polygon points="13.792,36.896 13.792,31.888 9.454,34.392 	"/>
	<polygon points="25.362,43.158 29.7,40.654 25.362,38.149 	"/>
	<polygon points="30.062,40.027 30.062,35.019 25.723,37.522 	"/>
	<polygon points="14.516,25.626 14.516,30.635 18.854,28.13 	"/>
	<polygon points="19.215,33.766 19.215,28.757 14.877,31.261 	"/>
	<polygon points="24.639,24.372 24.639,19.363 20.3,21.868 	"/>
	<polygon points="13.792,30.635 13.792,25.626 9.454,28.13 	"/>
	<polygon points="25.362,19.363 25.362,24.372 29.7,21.868 	"/>
	<polygon points="30.785,28.757 30.785,33.766 35.123,31.261 	"/>
	<polygon points="35.484,30.635 35.484,25.626 31.146,28.13 	"/>
	<polygon points="36.208,25.626 36.208,30.635 40.546,28.13 	"/>
	<polygon points="19.215,27.504 19.215,22.495 14.877,24.999 	"/>
	<polygon points="19.938,22.495 19.938,27.504 24.277,24.999 	"/>
	<polygon points="30.062,27.504 30.062,22.495 25.723,24.999 	"/>
	<polygon points="30.785,22.495 30.785,27.504 35.123,24.999 	"/>
	<polygon points="30.785,40.027 35.123,37.522 30.785,35.019 	"/>
	<polygon points="35.484,36.896 35.484,31.888 31.146,34.392 	"/>
	<polygon points="36.208,36.896 40.546,34.392 36.208,31.888 	"/>
	<polygon points="36.569,31.261 40.907,33.766 40.907,28.757 	"/>
</g>
</svg>
