<?xml version="1.0" encoding="utf-8"?>
<!-- Generator: Adobe Illustrator 16.0.0, SVG Export Plug-In . SVG Version: 6.00 Build 0)  -->
<!DOCTYPE svg PUBLIC "-//W3C//DTD SVG 1.1//EN" "http://www.w3.org/Graphics/SVG/1.1/DTD/svg11.dtd">
<svg version="1.1" id="Layer_1" xmlns="http://www.w3.org/2000/svg" xmlns:xlink="http://www.w3.org/1999/xlink" x="0px" y="0px"
	 width="50px" height="50px" viewBox="0 0 50 50" enable-background="new 0 0 50 50" xml:space="preserve">
<g>
	<polygon points="25,8.383 20.89,15.504 29.111,15.504 	"/>
	<polygon points="39.392,16.691 31.168,16.691 35.278,23.813 	"/>
	<polygon points="29.111,16.691 20.89,16.691 25,23.813 	"/>
	<polygon points="18.833,16.691 10.609,16.691 14.723,23.813 	"/>
	<polygon points="23.972,24.407 19.861,17.285 15.748,24.407 	"/>
	<polygon points="34.251,24.407 30.14,17.285 26.029,24.407 	"/>
	<polygon points="26.029,25.593 30.14,32.715 34.251,25.593 	"/>
	<polygon points="15.748,25.593 19.861,32.715 23.972,25.593 	"/>
	<polygon points="10.609,33.309 18.833,33.309 14.723,26.188 	"/>
	<polygon points="20.89,33.309 29.111,33.309 25,26.188 	"/>
	<polygon points="31.168,33.309 39.392,33.309 35.278,26.188 	"/>
	<polygon points="25,41.617 29.111,34.496 20.89,34.496 	"/>
</g>
</svg>
