<?xml version="1.0" encoding="utf-8"?>
<!-- Generator: Adobe Illustrator 16.0.0, SVG Export Plug-In . SVG Version: 6.00 Build 0)  -->
<!DOCTYPE svg PUBLIC "-//W3C//DTD SVG 1.1//EN" "http://www.w3.org/Graphics/SVG/1.1/DTD/svg11.dtd">
<svg version="1.1" id="Layer_1" xmlns="http://www.w3.org/2000/svg" xmlns:xlink="http://www.w3.org/1999/xlink" x="0px" y="0px"
	 width="50px" height="50px" viewBox="0 0 50 50" enable-background="new 0 0 50 50" xml:space="preserve">
<g>
	<polygon points="10.253,22.036 10.253,28.964 16.253,25.5 	"/>
	<polygon points="10.753,29.83 16.753,33.294 16.753,26.366 	"/>
	<polygon points="10.753,21.17 16.753,24.634 16.753,17.706 	"/>
	<polygon points="17.753,17.706 17.753,24.634 23.753,21.169 	"/>
	<polygon points="17.753,26.366 17.753,33.294 23.753,29.83 	"/>
	<polygon points="18.253,34.16 24.253,37.624 24.253,30.696 	"/>
	<polygon points="18.253,16.84 24.253,20.303 24.253,13.376 	"/>
	<polygon points="25.253,13.376 25.253,20.303 31.253,16.84 	"/>
	<polygon points="25.253,30.696 25.253,37.624 31.253,34.16 	"/>
	<polygon points="25.753,29.83 31.753,33.294 31.753,26.366 	"/>
	<polygon points="25.753,21.169 31.753,24.633 31.753,17.706 	"/>
	<polygon points="32.753,17.706 32.753,24.633 38.753,21.169 	"/>
	<polygon points="32.753,26.366 32.753,33.294 38.753,29.83 	"/>
	<polygon points="33.253,25.5 39.253,28.963 39.253,22.036 	"/>
</g>
</svg>
