<?xml version="1.0" encoding="utf-8"?>
<!-- Generator: Adobe Illustrator 16.0.0, SVG Export Plug-In . SVG Version: 6.00 Build 0)  -->
<!DOCTYPE svg PUBLIC "-//W3C//DTD SVG 1.1//EN" "http://www.w3.org/Graphics/SVG/1.1/DTD/svg11.dtd">
<svg version="1.1" id="Layer_1" xmlns="http://www.w3.org/2000/svg" xmlns:xlink="http://www.w3.org/1999/xlink" x="0px" y="0px"
	 width="50px" height="50px" viewBox="0 0 50 50" enable-background="new 0 0 50 50" xml:space="preserve">
<g>
	<polygon points="14.078,28.945 9.951,27.839 11.058,31.965 	"/>
	<polygon points="15.27,28.626 19.396,29.732 18.291,25.604 	"/>
	<polygon points="7.717,36.179 11.845,37.283 10.738,33.157 	"/>
	<polygon points="13.822,42.283 16.843,39.261 12.718,38.155 	"/>
	<polygon points="21.373,34.73 24.396,31.708 20.268,30.604 	"/>
	<polygon points="18.035,38.942 22.161,40.048 21.055,35.922 	"/>
	<polygon points="18.95,11.057 14.824,9.951 15.93,14.077 	"/>
	<polygon points="23.164,7.717 20.142,10.738 24.269,11.844 	"/>
	<polygon points="15.611,15.269 12.589,18.291 16.717,19.395 	"/>
	<polygon points="17.59,20.267 18.694,24.395 21.715,21.373 	"/>
	<polygon points="29.268,13.821 25.141,12.717 26.246,16.843 	"/>
	<polygon points="22.908,21.055 27.033,22.16 25.928,18.034 	"/>
	<polygon points="28.945,27.093 31.966,24.073 27.839,22.967 	"/>
	<polygon points="36.179,20.732 33.157,23.754 37.284,24.86 	"/>
	<polygon points="25.605,31.306 29.733,32.41 28.627,28.284 	"/>
	<polygon points="31.71,37.41 34.731,34.389 30.605,33.283 	"/>
	<polygon points="42.283,26.836 38.155,25.732 39.261,29.858 	"/>
	<polygon points="35.923,34.07 40.049,35.176 38.942,31.05 	"/>
</g>
</svg>
