<?xml version="1.0" encoding="utf-8"?>
<!-- Generator: Adobe Illustrator 16.0.0, SVG Export Plug-In . SVG Version: 6.00 Build 0)  -->
<!DOCTYPE svg PUBLIC "-//W3C//DTD SVG 1.1//EN" "http://www.w3.org/Graphics/SVG/1.1/DTD/svg11.dtd">
<svg version="1.1" id="Layer_1" xmlns="http://www.w3.org/2000/svg" xmlns:xlink="http://www.w3.org/1999/xlink" x="0px" y="0px"
	 width="50px" height="50px" viewBox="0 0 50 50" enable-background="new 0 0 50 50" xml:space="preserve">
<g>
	<polygon points="13.802,6.25 10.815,11.423 16.788,11.423 	"/>
	<polygon points="36.198,6.25 33.212,11.423 39.185,11.423 	"/>
	<polygon points="39.185,12.284 33.212,12.284 36.198,17.457 	"/>
	<polygon points="16.788,12.284 10.815,12.284 13.802,17.457 	"/>
	<polygon points="10.068,12.716 7.083,17.888 13.055,17.888 	"/>
	<polygon points="39.932,12.716 36.945,17.888 42.917,17.888 	"/>
	<polygon points="42.917,18.75 36.945,18.75 39.932,23.923 	"/>
	<polygon points="27.986,18.75 22.014,18.75 25,23.923 	"/>
	<polygon points="13.055,18.75 7.083,18.75 10.068,23.923 	"/>
	<polygon points="13.802,19.181 10.815,24.354 16.788,24.354 	"/>
	<polygon points="21.268,19.181 18.281,24.354 24.253,24.354 	"/>
	<polygon points="28.732,19.181 25.747,24.354 31.719,24.354 	"/>
	<polygon points="36.198,19.181 33.212,24.354 39.185,24.354 	"/>
	<polygon points="39.185,25.216 33.212,25.216 36.198,30.388 	"/>
	<polygon points="31.719,25.216 25.747,25.216 28.732,30.388 	"/>
	<polygon points="24.253,25.216 18.281,25.216 21.268,30.388 	"/>
	<polygon points="16.788,25.216 10.815,25.216 13.802,30.388 	"/>
	<polygon points="25,25.646 22.014,30.819 27.986,30.819 	"/>
	<polygon points="35.452,31.681 29.479,31.681 32.466,36.854 	"/>
	<polygon points="27.986,31.681 22.014,31.681 25,36.854 	"/>
	<polygon points="20.521,31.681 14.548,31.681 17.534,36.854 	"/>
	<polygon points="21.268,32.112 18.281,37.284 24.253,37.284 	"/>
	<polygon points="28.732,32.112 25.747,37.284 31.719,37.284 	"/>
	<polygon points="31.719,38.146 25.747,38.146 28.732,43.319 	"/>
	<polygon points="24.253,38.146 18.281,38.146 21.268,43.319 	"/>
	<polygon points="25,38.577 22.014,43.75 27.986,43.75 	"/>
</g>
</svg>
