<?xml version="1.0" encoding="utf-8"?>
<!-- Generator: Adobe Illustrator 16.0.0, SVG Export Plug-In . SVG Version: 6.00 Build 0)  -->
<!DOCTYPE svg PUBLIC "-//W3C//DTD SVG 1.1//EN" "http://www.w3.org/Graphics/SVG/1.1/DTD/svg11.dtd">
<svg version="1.1" id="Layer_1" xmlns="http://www.w3.org/2000/svg" xmlns:xlink="http://www.w3.org/1999/xlink" x="0px" y="0px"
	 width="50px" height="50px" viewBox="0 0 50 50" enable-background="new 0 0 50 50" xml:space="preserve">
<g>
	<polygon points="35.826,14.75 32.361,20.75 39.289,20.75 	"/>
	<polygon points="35.826,27.75 39.289,21.75 32.361,21.75 	"/>
	<polygon points="15.041,21.75 18.506,27.75 21.969,21.75 	"/>
	<polygon points="10.711,28.25 17.639,28.25 14.176,22.25 	"/>
	<polygon points="34.959,28.25 31.496,22.25 28.031,28.25 	"/>
	<polygon points="14.176,35.25 17.639,29.25 10.711,29.25 	"/>
	<polygon points="20.75,10.711 14.75,14.174 20.75,17.639 	"/>
	<polygon points="21.75,10.711 21.75,17.639 27.75,14.174 	"/>
	<polygon points="21.75,28.031 21.75,34.959 27.75,31.494 	"/>
	<polygon points="28.25,39.289 28.25,32.361 22.25,35.824 	"/>
	<polygon points="28.25,21.969 28.25,15.041 22.25,18.504 	"/>
	<polygon points="29.25,39.289 35.25,35.824 29.25,32.361 	"/>
</g>
</svg>
