<?xml version="1.0" encoding="utf-8"?>
<!-- Generator: Adobe Illustrator 16.0.0, SVG Export Plug-In . SVG Version: 6.00 Build 0)  -->
<!DOCTYPE svg PUBLIC "-//W3C//DTD SVG 1.1//EN" "http://www.w3.org/Graphics/SVG/1.1/DTD/svg11.dtd">
<svg version="1.1" id="Layer_1" xmlns="http://www.w3.org/2000/svg" xmlns:xlink="http://www.w3.org/1999/xlink" x="0px" y="0px"
	 width="50px" height="50px" viewBox="0 0 50 50" enable-background="new 0 0 50 50" xml:space="preserve">
<g>
	<polygon points="34.105,17.937 36.381,21.88 38.657,17.937 	"/>
	<polygon points="30.69,21.88 32.967,17.937 28.415,17.937 	"/>
	<polygon points="27.845,18.266 25.569,22.208 30.122,22.208 	"/>
	<polygon points="33.536,18.266 31.26,22.208 35.812,22.208 	"/>
	<polygon points="36.95,22.208 41.503,22.208 39.227,18.266 	"/>
	<polygon points="33.536,26.808 35.812,22.864 31.26,22.864 	"/>
	<polygon points="39.227,26.808 41.503,22.864 36.95,22.864 	"/>
	<polygon points="30.122,22.864 25.569,22.864 27.845,26.808 	"/>
	<polygon points="32.967,27.137 30.69,23.193 28.415,27.137 	"/>
	<polygon points="36.381,23.193 34.105,27.137 38.657,27.137 	"/>
	<polygon points="38.657,8.08 34.105,8.08 36.381,12.023 	"/>
	<polygon points="32.967,8.08 28.415,8.08 30.69,12.023 	"/>
	<polygon points="27.845,8.409 25.569,12.351 30.122,12.351 	"/>
	<polygon points="35.812,12.351 33.536,8.409 31.26,12.351 	"/>
	<polygon points="41.503,12.351 39.227,8.409 36.95,12.351 	"/>
	<polygon points="31.26,13.009 33.536,16.951 35.812,13.009 	"/>
	<polygon points="39.227,16.951 41.503,13.009 36.95,13.009 	"/>
	<polygon points="30.122,13.009 25.569,13.009 27.845,16.951 	"/>
	<polygon points="28.415,17.28 32.967,17.28 30.69,13.337 	"/>
	<polygon points="36.381,13.337 34.105,17.28 38.657,17.28 	"/>
	<polygon points="38.657,27.793 34.105,27.793 36.381,31.735 	"/>
	<polygon points="30.69,31.735 32.967,27.793 28.415,27.793 	"/>
	<polygon points="27.276,27.793 22.724,27.793 25,31.735 	"/>
	<polygon points="21.585,27.793 17.033,27.793 19.31,31.735 	"/>
	<polygon points="15.895,27.793 11.343,27.793 13.619,31.735 	"/>
	<polygon points="10.773,28.122 8.497,32.064 13.05,32.064 	"/>
	<polygon points="18.74,32.064 16.464,28.122 14.188,32.064 	"/>
	<polygon points="24.431,32.064 22.155,28.122 19.878,32.064 	"/>
	<polygon points="25.569,32.064 30.122,32.064 27.845,28.122 	"/>
	<polygon points="33.536,28.122 31.26,32.064 35.812,32.064 	"/>
	<polygon points="36.95,32.064 41.503,32.064 39.227,28.122 	"/>
	<polygon points="35.812,32.721 31.26,32.721 33.536,36.664 	"/>
	<polygon points="39.227,36.664 41.503,32.721 36.95,32.721 	"/>
	<polygon points="30.122,32.721 25.569,32.721 27.845,36.664 	"/>
	<polygon points="24.431,32.721 19.878,32.721 22.155,36.664 	"/>
	<polygon points="18.74,32.721 14.188,32.721 16.464,36.664 	"/>
	<polygon points="8.497,32.721 10.773,36.664 13.05,32.721 	"/>
	<polygon points="11.343,36.993 15.895,36.993 13.619,33.05 	"/>
	<polygon points="19.31,33.05 17.033,36.993 21.585,36.993 	"/>
	<polygon points="25,33.05 22.724,36.993 27.276,36.993 	"/>
	<polygon points="30.69,33.05 28.415,36.993 32.967,36.993 	"/>
	<polygon points="34.105,36.993 38.657,36.993 36.381,33.05 	"/>
	<polygon points="36.381,41.592 38.657,37.649 34.105,37.649 	"/>
	<polygon points="28.415,37.649 30.69,41.592 32.967,37.649 	"/>
	<polygon points="22.724,37.649 25,41.592 27.276,37.649 	"/>
	<polygon points="17.033,37.649 19.31,41.592 21.585,37.649 	"/>
	<polygon points="11.343,37.649 13.619,41.592 15.895,37.649 	"/>
	<polygon points="14.188,41.921 18.74,41.921 16.464,37.978 	"/>
	<polygon points="19.878,41.921 24.431,41.921 22.155,37.978 	"/>
	<polygon points="25.569,41.921 30.122,41.921 27.845,37.978 	"/>
	<polygon points="31.26,41.921 35.812,41.921 33.536,37.978 	"/>
</g>
</svg>
