<?xml version="1.0" encoding="utf-8"?>
<!-- Generator: Adobe Illustrator 16.0.0, SVG Export Plug-In . SVG Version: 6.00 Build 0)  -->
<!DOCTYPE svg PUBLIC "-//W3C//DTD SVG 1.1//EN" "http://www.w3.org/Graphics/SVG/1.1/DTD/svg11.dtd">
<svg version="1.1" id="Layer_1" xmlns="http://www.w3.org/2000/svg" xmlns:xlink="http://www.w3.org/1999/xlink" x="0px" y="0px"
	 width="50px" height="50px" viewBox="0 0 50 50" enable-background="new 0 0 50 50" xml:space="preserve">
<g>
	<polygon points="38.288,18.67 40.945,14.067 35.631,14.067 	"/>
	<polygon points="34.302,14.067 28.987,14.067 31.644,18.67 	"/>
	<polygon points="27.657,14.067 22.343,14.067 25,18.67 	"/>
	<polygon points="18.356,18.67 21.014,14.067 15.699,14.067 	"/>
	<polygon points="9.055,14.067 11.712,18.67 14.369,14.067 	"/>
	<polygon points="12.376,19.054 17.691,19.054 15.034,14.451 	"/>
	<polygon points="19.021,19.054 24.335,19.054 21.678,14.451 	"/>
	<polygon points="28.322,14.451 25.665,19.054 30.979,19.054 	"/>
	<polygon points="32.309,19.054 37.624,19.054 34.966,14.451 	"/>
	<polygon points="34.966,24.425 37.624,19.821 32.309,19.821 	"/>
	<polygon points="30.979,19.821 25.665,19.821 28.322,24.425 	"/>
	<polygon points="21.678,24.425 24.335,19.821 19.021,19.821 	"/>
	<polygon points="12.376,19.821 15.034,24.425 17.691,19.821 	"/>
	<polygon points="21.014,24.808 18.356,20.205 15.699,24.808 	"/>
	<polygon points="25,20.205 22.343,24.808 27.657,24.808 	"/>
	<polygon points="28.987,24.808 34.302,24.808 31.644,20.205 	"/>
	<polygon points="37.624,8.313 32.309,8.313 34.966,12.917 	"/>
	<polygon points="30.979,8.313 25.665,8.313 28.322,12.917 	"/>
	<polygon points="24.335,8.313 19.021,8.313 21.678,12.917 	"/>
	<polygon points="17.691,8.313 12.376,8.313 15.034,12.917 	"/>
	<polygon points="11.712,8.697 9.055,13.3 14.369,13.3 	"/>
	<polygon points="21.014,13.3 18.356,8.697 15.699,13.3 	"/>
	<polygon points="27.657,13.3 25,8.697 22.343,13.3 	"/>
	<polygon points="34.302,13.3 31.644,8.697 28.987,13.3 	"/>
	<polygon points="40.945,13.3 38.288,8.697 35.631,13.3 	"/>
	<polygon points="31.644,30.179 34.302,25.575 28.987,25.575 	"/>
	<polygon points="27.657,25.575 22.343,25.575 25,30.179 	"/>
	<polygon points="15.699,25.575 18.356,30.179 21.014,25.575 	"/>
	<polygon points="24.335,30.562 21.678,25.959 19.021,30.562 	"/>
	<polygon points="25.665,30.562 30.979,30.562 28.322,25.959 	"/>
	<polygon points="28.322,35.933 30.979,31.33 25.665,31.33 	"/>
	<polygon points="19.021,31.33 21.678,35.933 24.335,31.33 	"/>
	<polygon points="22.343,36.316 27.657,36.316 25,31.713 	"/>
	<polygon points="25,41.687 27.657,37.083 22.343,37.083 	"/>
</g>
</svg>
