<?xml version="1.0" encoding="utf-8"?>
<!-- Generator: Adobe Illustrator 16.0.0, SVG Export Plug-In . SVG Version: 6.00 Build 0)  -->
<!DOCTYPE svg PUBLIC "-//W3C//DTD SVG 1.1//EN" "http://www.w3.org/Graphics/SVG/1.1/DTD/svg11.dtd">
<svg version="1.1" id="Layer_1" xmlns="http://www.w3.org/2000/svg" xmlns:xlink="http://www.w3.org/1999/xlink" x="0px" y="0px"
	 width="50px" height="50px" viewBox="0 0 50 50" enable-background="new 0 0 50 50" xml:space="preserve">
<g>
	<polygon points="12.016,21.898 12.016,28.102 17.389,25 	"/>
	<polygon points="12.464,28.877 17.836,31.979 17.836,25.775 	"/>
	<polygon points="12.464,21.123 17.836,24.224 17.836,18.021 	"/>
	<polygon points="18.731,18.021 18.731,24.224 24.104,21.123 	"/>
	<polygon points="18.731,25.775 18.731,31.979 24.104,28.877 	"/>
	<polygon points="19.18,32.755 24.553,35.856 24.553,29.653 	"/>
	<polygon points="19.18,17.245 24.553,20.347 24.553,14.143 	"/>
	<polygon points="5.747,25 11.12,28.102 11.12,21.898 	"/>
	<polygon points="25.448,14.143 25.448,20.347 30.82,17.245 	"/>
	<polygon points="25.448,29.653 25.448,35.856 30.82,32.755 	"/>
	<polygon points="25.896,28.877 31.269,31.979 31.269,25.775 	"/>
	<polygon points="25.896,21.123 31.269,24.224 31.269,18.021 	"/>
	<polygon points="32.164,18.021 32.164,24.224 37.537,21.123 	"/>
	<polygon points="32.164,25.775 32.164,31.979 37.537,28.877 	"/>
	<polygon points="32.611,25 37.984,28.102 37.984,21.898 	"/>
	<polygon points="38.88,21.898 38.88,28.102 44.253,25 	"/>
</g>
</svg>
