<?xml version="1.0" encoding="utf-8"?>
<!-- Generator: Adobe Illustrator 16.0.0, SVG Export Plug-In . SVG Version: 6.00 Build 0)  -->
<!DOCTYPE svg PUBLIC "-//W3C//DTD SVG 1.1//EN" "http://www.w3.org/Graphics/SVG/1.1/DTD/svg11.dtd">
<svg version="1.1" id="Layer_1" xmlns="http://www.w3.org/2000/svg" xmlns:xlink="http://www.w3.org/1999/xlink" x="0px" y="0px"
	 width="50px" height="50px" viewBox="0 0 50 50" enable-background="new 0 0 50 50" xml:space="preserve">
<g>
	<polygon points="21.829,16.152 17.603,16.152 19.716,19.813 	"/>
	<polygon points="20.244,20.119 24.472,20.119 22.358,16.458 	"/>
	<polygon points="24.472,20.729 20.244,20.729 22.358,24.39 	"/>
	<polygon points="27.113,24.695 25,21.034 22.887,24.695 	"/>
	<polygon points="27.113,25.305 22.887,25.305 25,28.966 	"/>
	<polygon points="27.642,25.61 25.528,29.271 29.756,29.271 	"/>
	<polygon points="27.642,33.542 29.756,29.881 25.528,29.881 	"/>
	<polygon points="30.284,30.187 28.171,33.848 32.397,33.848 	"/>
	<polygon points="22.358,15.237 24.472,11.576 20.244,11.576 	"/>
	<polygon points="17.603,15.542 21.829,15.542 19.716,11.881 	"/>
	<polygon points="32.397,34.458 28.171,34.458 30.284,38.119 	"/>
	<polygon points="27.642,34.763 25.528,38.424 29.756,38.424 	"/>
	<polygon points="32.397,7 28.171,7 30.284,10.661 	"/>
	<polygon points="27.113,7 22.887,7 25,10.661 	"/>
	<polygon points="21.829,7 17.603,7 19.716,10.661 	"/>
	<polygon points="17.074,7.305 14.96,10.966 19.188,10.966 	"/>
	<polygon points="24.472,10.966 22.358,7.305 20.244,10.966 	"/>
	<polygon points="29.756,10.966 27.642,7.305 25.528,10.966 	"/>
	<polygon points="35.04,10.966 32.926,7.305 30.813,10.966 	"/>
	<polygon points="33.455,16.152 35.568,19.813 37.682,16.152 	"/>
	<polygon points="16.545,16.152 12.318,16.152 14.432,19.813 	"/>
	<polygon points="11.79,16.458 9.676,20.119 13.903,20.119 	"/>
	<polygon points="40.324,20.119 38.21,16.458 36.097,20.119 	"/>
	<polygon points="38.21,24.39 40.324,20.729 36.097,20.729 	"/>
	<polygon points="13.903,20.729 9.676,20.729 11.79,24.39 	"/>
	<polygon points="9.147,21.034 7.034,24.695 11.261,24.695 	"/>
	<polygon points="42.966,24.695 40.853,21.034 38.739,24.695 	"/>
	<polygon points="35.04,11.576 30.813,11.576 32.926,15.237 	"/>
	<polygon points="19.188,11.576 14.96,11.576 17.074,15.237 	"/>
	<polygon points="14.432,11.881 12.318,15.542 16.545,15.542 	"/>
	<polygon points="37.682,15.542 35.568,11.881 33.455,15.542 	"/>
	<polygon points="7.034,25.305 9.147,28.966 11.261,25.305 	"/>
	<polygon points="9.676,29.271 13.903,29.271 11.79,25.61 	"/>
	<polygon points="36.097,29.271 40.324,29.271 38.21,25.61 	"/>
	<polygon points="38.21,33.542 40.324,29.881 36.097,29.881 	"/>
	<polygon points="9.676,29.881 11.79,33.542 13.903,29.881 	"/>
	<polygon points="12.318,33.848 16.545,33.848 14.432,30.187 	"/>
	<polygon points="33.455,33.848 37.682,33.848 35.568,30.187 	"/>
	<polygon points="40.853,28.966 42.966,25.305 38.739,25.305 	"/>
	<polygon points="35.568,38.119 37.682,34.458 33.455,34.458 	"/>
	<polygon points="12.318,34.458 14.432,38.119 16.545,34.458 	"/>
	<polygon points="14.96,38.424 19.188,38.424 17.074,34.763 	"/>
	<polygon points="30.813,38.424 35.04,38.424 32.926,34.763 	"/>
	<polygon points="32.926,42.695 35.04,39.034 30.813,39.034 	"/>
	<polygon points="25.528,39.034 27.642,42.695 29.756,39.034 	"/>
	<polygon points="20.244,39.034 22.358,42.695 24.472,39.034 	"/>
	<polygon points="14.96,39.034 17.074,42.695 19.188,39.034 	"/>
	<polygon points="17.603,43 21.829,43 19.716,39.339 	"/>
	<polygon points="22.887,43 27.113,43 25,39.339 	"/>
	<polygon points="28.171,43 32.397,43 30.284,39.339 	"/>
</g>
</svg>
