<?xml version="1.0" encoding="utf-8"?>
<!-- Generator: Adobe Illustrator 16.0.0, SVG Export Plug-In . SVG Version: 6.00 Build 0)  -->
<!DOCTYPE svg PUBLIC "-//W3C//DTD SVG 1.1//EN" "http://www.w3.org/Graphics/SVG/1.1/DTD/svg11.dtd">
<svg version="1.1" id="Layer_1" xmlns="http://www.w3.org/2000/svg" xmlns:xlink="http://www.w3.org/1999/xlink" x="0px" y="0px"
	 width="50px" height="50px" viewBox="0 0 50 50" enable-background="new 0 0 50 50" xml:space="preserve">
<g>
	<g>
		<polygon points="27.698,13.707 22.302,13.707 25,18.38 		"/>
		<polygon points="21.628,14.097 18.93,18.769 24.325,18.769 		"/>
		<polygon points="28.372,14.097 25.675,18.769 31.07,18.769 		"/>
		<polygon points="31.07,19.548 25.675,19.548 28.372,24.221 		"/>
		<polygon points="24.325,19.548 18.93,19.548 21.628,24.221 		"/>
		<polygon points="18.256,19.938 15.558,24.611 20.953,24.611 		"/>
		<polygon points="31.744,19.938 29.047,24.611 34.442,24.611 		"/>
		<polygon points="25,8.255 22.302,12.928 27.698,12.928 		"/>
		<polygon points="34.442,25.389 29.047,25.389 31.744,30.062 		"/>
		<polygon points="20.953,25.389 15.558,25.389 18.256,30.062 		"/>
		<polygon points="21.628,25.779 18.93,30.452 24.325,30.452 		"/>
		<polygon points="28.372,25.779 25.675,30.452 31.07,30.452 		"/>
		<polygon points="31.07,31.23 25.675,31.23 28.372,35.903 		"/>
		<polygon points="24.325,31.23 18.93,31.23 21.628,35.903 		"/>
		<polygon points="25,31.62 22.302,36.292 27.698,36.292 		"/>
		<polygon points="27.698,37.071 22.302,37.071 25,41.744 		"/>
	</g>
	<g>
		<polygon points="11.511,19.938 8.813,24.611 14.209,24.611 		"/>
		<polygon points="38.489,19.938 35.791,24.611 41.187,24.611 		"/>
		<polygon points="41.187,25.389 35.791,25.389 38.489,30.062 		"/>
		<polygon points="14.209,25.389 8.813,25.389 11.511,30.062 		"/>
		<polygon points="8.139,25.779 5.44,30.452 10.837,30.452 		"/>
		<polygon points="14.883,25.779 12.186,30.452 17.581,30.452 		"/>
		<polygon points="35.117,25.779 32.419,30.452 37.814,30.452 		"/>
		<polygon points="41.861,25.779 39.163,30.452 44.56,30.452 		"/>
		<polygon points="37.814,31.23 32.419,31.23 35.117,35.903 		"/>
		<polygon points="44.56,31.23 39.163,31.23 41.861,35.903 		"/>
		<polygon points="17.581,31.23 12.186,31.23 14.883,35.903 		"/>
		<polygon points="10.837,31.23 5.44,31.23 8.139,35.903 		"/>
		<polygon points="11.511,31.62 8.813,36.292 14.209,36.292 		"/>
		<polygon points="38.489,31.62 35.791,36.292 41.187,36.292 		"/>
		<polygon points="41.187,37.071 35.791,37.071 38.489,41.744 		"/>
		<polygon points="14.209,37.071 8.813,37.071 11.511,41.744 		"/>
	</g>
</g>
</svg>
