<?xml version="1.0" encoding="utf-8"?>
<!-- Generator: Adobe Illustrator 16.0.0, SVG Export Plug-In . SVG Version: 6.00 Build 0)  -->
<!DOCTYPE svg PUBLIC "-//W3C//DTD SVG 1.1//EN" "http://www.w3.org/Graphics/SVG/1.1/DTD/svg11.dtd">
<svg version="1.1" id="Layer_1" xmlns="http://www.w3.org/2000/svg" xmlns:xlink="http://www.w3.org/1999/xlink" x="0px" y="0px"
	 width="50px" height="50px" viewBox="0 0 50 50" enable-background="new 0 0 50 50" xml:space="preserve">
<g>
	<polygon points="11.54,14.12 8.848,18.783 14.231,18.783 	"/>
	<polygon points="25,14.12 22.308,18.783 27.692,18.783 	"/>
	<polygon points="41.152,18.783 38.46,14.12 35.768,18.783 	"/>
	<polygon points="34.422,19.561 29.038,19.561 31.73,24.223 	"/>
	<polygon points="27.692,19.561 22.308,19.561 25,24.223 	"/>
	<polygon points="18.27,24.223 20.961,19.561 15.578,19.561 	"/>
	<polygon points="8.174,19.948 5.482,24.611 10.866,24.611 	"/>
	<polygon points="24.327,24.611 21.635,19.948 18.943,24.611 	"/>
	<polygon points="31.057,24.611 28.365,19.948 25.673,24.611 	"/>
	<polygon points="44.517,24.611 41.825,19.948 39.133,24.611 	"/>
	<polygon points="34.422,7.903 29.038,7.903 31.73,12.565 	"/>
	<polygon points="27.692,7.903 22.308,7.903 25,12.565 	"/>
	<polygon points="20.961,7.903 15.578,7.903 18.27,12.565 	"/>
	<polygon points="14.904,8.291 12.212,12.954 17.596,12.954 	"/>
	<polygon points="37.787,12.954 35.095,8.291 32.403,12.954 	"/>
	<polygon points="41.825,30.052 44.517,25.389 39.133,25.389 	"/>
	<polygon points="25.673,25.389 28.365,30.052 31.057,25.389 	"/>
	<polygon points="18.943,25.389 21.635,30.052 24.327,25.389 	"/>
	<polygon points="5.482,25.389 8.174,30.052 10.866,25.389 	"/>
	<polygon points="15.578,30.44 20.961,30.44 18.27,25.777 	"/>
	<polygon points="22.308,30.44 27.692,30.44 25,25.777 	"/>
	<polygon points="29.038,30.44 34.422,30.44 31.73,25.777 	"/>
	<polygon points="38.46,35.88 41.152,31.217 35.768,31.217 	"/>
	<polygon points="25,35.88 27.692,31.217 22.308,31.217 	"/>
	<polygon points="8.848,31.217 11.54,35.88 14.231,31.217 	"/>
	<polygon points="35.095,41.709 37.787,37.046 32.403,37.046 	"/>
	<polygon points="12.212,37.046 14.904,41.709 17.596,37.046 	"/>
	<polygon points="15.578,42.098 20.961,42.098 18.27,37.435 	"/>
	<polygon points="22.308,42.098 27.692,42.098 25,37.435 	"/>
	<polygon points="29.038,42.098 34.422,42.098 31.73,37.435 	"/>
</g>
</svg>
