<?xml version="1.0" encoding="utf-8"?>
<!-- Generator: Adobe Illustrator 16.0.0, SVG Export Plug-In . SVG Version: 6.00 Build 0)  -->
<!DOCTYPE svg PUBLIC "-//W3C//DTD SVG 1.1//EN" "http://www.w3.org/Graphics/SVG/1.1/DTD/svg11.dtd">
<svg version="1.1" id="Layer_1" xmlns="http://www.w3.org/2000/svg" xmlns:xlink="http://www.w3.org/1999/xlink" x="0px" y="0px"
	 width="50px" height="50px" viewBox="0 0 50 50" enable-background="new 0 0 50 50" xml:space="preserve">
<g>
	<polygon points="25.781,15.3 28.907,20.714 32.033,15.3 	"/>
	<polygon points="17.967,15.3 21.093,20.714 24.219,15.3 	"/>
	<polygon points="35.94,21.165 32.814,15.751 29.689,21.165 	"/>
	<polygon points="32.814,27.482 35.94,22.067 29.689,22.067 	"/>
	<polygon points="28.126,8.532 21.874,8.532 25,13.946 	"/>
	<polygon points="21.093,8.983 17.967,14.397 24.219,14.397 	"/>
	<polygon points="32.033,14.397 28.907,8.983 25.781,14.397 	"/>
	<polygon points="17.186,27.482 20.311,22.067 14.06,22.067 	"/>
	<polygon points="13.278,22.519 10.152,27.934 16.403,27.934 	"/>
	<polygon points="16.403,28.836 10.152,28.836 13.278,34.25 	"/>
	<polygon points="9.371,29.287 6.245,34.701 12.496,34.701 	"/>
	<polygon points="17.186,41.018 20.311,35.604 14.06,35.604 	"/>
	<polygon points="6.245,35.604 9.371,41.018 12.496,35.604 	"/>
	<polygon points="10.152,41.469 16.403,41.469 13.278,36.055 	"/>
	<polygon points="36.722,34.25 39.848,28.836 33.597,28.836 	"/>
	<polygon points="43.755,34.701 40.629,29.287 37.504,34.701 	"/>
	<polygon points="40.629,41.018 43.755,35.604 37.504,35.604 	"/>
	<polygon points="29.689,35.604 32.814,41.018 35.94,35.604 	"/>
	<polygon points="21.874,35.604 25,41.018 28.126,35.604 	"/>
	<polygon points="25.781,41.469 32.033,41.469 28.907,36.055 	"/>
	<polygon points="33.597,41.469 39.848,41.469 36.722,36.055 	"/>
</g>
</svg>
