<?xml version="1.0" encoding="utf-8"?>
<!-- Generator: Adobe Illustrator 16.0.0, SVG Export Plug-In . SVG Version: 6.00 Build 0)  -->
<!DOCTYPE svg PUBLIC "-//W3C//DTD SVG 1.1//EN" "http://www.w3.org/Graphics/SVG/1.1/DTD/svg11.dtd">
<svg version="1.1" id="Layer_1" xmlns="http://www.w3.org/2000/svg" xmlns:xlink="http://www.w3.org/1999/xlink" x="0px" y="0px"
	 width="50px" height="50px" viewBox="0 0 50 50" enable-background="new 0 0 50 50" xml:space="preserve">
<g>
	<polygon points="15.771,21.417 15.771,25.827 19.589,23.623 	"/>
	<polygon points="15.771,26.929 15.771,31.339 19.589,29.135 	"/>
	<polygon points="15.771,32.441 15.771,36.85 19.589,34.646 	"/>
	<polygon points="15.771,37.953 15.771,42.361 19.589,40.157 	"/>
	<polygon points="19.908,45.117 19.908,40.708 16.089,42.913 	"/>
	<polygon points="19.908,39.605 19.908,35.197 16.089,37.401 	"/>
	<polygon points="19.908,34.094 19.908,29.685 16.089,31.89 	"/>
	<polygon points="19.908,28.583 19.908,24.173 16.089,26.379 	"/>
	<polygon points="19.908,23.071 19.908,18.661 16.089,20.867 	"/>
	<polygon points="20.544,13.15 20.544,17.559 24.363,15.355 	"/>
	<polygon points="20.544,7.639 20.544,12.047 24.363,9.844 	"/>
	<polygon points="20.544,18.661 20.544,23.071 24.363,20.867 	"/>
	<polygon points="20.544,24.173 20.544,28.583 24.363,26.379 	"/>
	<polygon points="20.544,29.685 20.544,34.094 24.363,31.89 	"/>
	<polygon points="20.544,35.197 20.544,39.605 24.363,37.401 	"/>
	<polygon points="20.544,45.117 24.363,42.913 20.544,40.708 	"/>
	<polygon points="24.682,42.361 24.682,37.953 20.862,40.157 	"/>
	<polygon points="24.682,36.85 24.682,32.441 20.862,34.646 	"/>
	<polygon points="24.682,31.339 24.682,26.929 20.862,29.135 	"/>
	<polygon points="24.682,25.827 24.682,21.417 20.862,23.623 	"/>
	<polygon points="24.682,20.315 24.682,15.906 20.862,18.111 	"/>
	<polygon points="24.682,14.803 24.682,10.395 20.862,12.6 	"/>
	<polygon points="24.682,9.292 24.682,4.883 20.862,7.088 	"/>
	<polygon points="25.317,10.395 25.317,14.803 29.137,12.6 	"/>
	<polygon points="25.317,15.906 25.317,20.315 29.137,18.111 	"/>
	<polygon points="25.317,21.417 25.317,25.827 29.137,23.623 	"/>
	<polygon points="25.317,26.929 25.317,31.339 29.137,29.135 	"/>
	<polygon points="25.317,32.441 25.317,36.85 29.137,34.646 	"/>
	<polygon points="25.317,37.953 25.317,42.361 29.137,40.157 	"/>
	<polygon points="29.455,45.117 29.455,40.708 25.637,42.913 	"/>
	<polygon points="29.455,39.605 29.455,35.197 25.637,37.401 	"/>
	<polygon points="29.455,34.094 29.455,29.685 25.637,31.89 	"/>
	<polygon points="29.455,28.583 29.455,24.173 25.637,26.379 	"/>
	<polygon points="29.455,17.559 29.455,13.15 25.637,15.355 	"/>
	<polygon points="29.455,12.047 29.455,7.639 25.637,9.844 	"/>
	<polygon points="30.091,18.661 30.091,23.071 33.91,20.867 	"/>
	<polygon points="30.091,45.117 33.91,42.913 30.091,40.708 	"/>
	<polygon points="34.229,42.361 34.229,37.953 30.41,40.157 	"/>
	<polygon points="34.229,36.85 34.229,32.441 30.41,34.646 	"/>
	<polygon points="34.229,31.339 34.229,26.929 30.41,29.135 	"/>
	<polygon points="30.41,23.623 34.229,25.827 34.229,21.417 	"/>
	<polygon points="25.317,4.883 25.317,9.292 29.137,7.088 	"/>
</g>
</svg>
