<?xml version="1.0" encoding="utf-8"?>
<!-- Generator: Adobe Illustrator 16.0.0, SVG Export Plug-In . SVG Version: 6.00 Build 0)  -->
<!DOCTYPE svg PUBLIC "-//W3C//DTD SVG 1.1//EN" "http://www.w3.org/Graphics/SVG/1.1/DTD/svg11.dtd">
<svg version="1.1" id="Layer_1" xmlns="http://www.w3.org/2000/svg" xmlns:xlink="http://www.w3.org/1999/xlink" x="0px" y="0px"
	 width="50px" height="50px" viewBox="0 0 50 50" enable-background="new 0 0 50 50" xml:space="preserve">
<g>
	<polygon points="15.354,6.25 12.782,10.705 17.926,10.705 	"/>
	<polygon points="28.215,6.25 25.643,10.705 30.788,10.705 	"/>
	<polygon points="30.788,11.448 25.643,11.448 28.215,15.903 	"/>
	<polygon points="17.926,11.448 12.782,11.448 15.354,15.903 	"/>
	<polygon points="24.357,11.448 19.212,11.448 21.785,15.903 	"/>
	<polygon points="21.142,16.274 18.569,11.819 15.997,16.274 	"/>
	<polygon points="27.572,16.274 25,11.819 22.428,16.274 	"/>
	<polygon points="22.428,17.018 25,21.473 27.572,17.018 	"/>
	<polygon points="18.569,21.473 21.142,17.018 15.997,17.018 	"/>
	<polygon points="21.785,17.389 19.212,21.844 24.357,21.844 	"/>
	<polygon points="21.785,27.042 24.357,22.587 19.212,22.587 	"/>
	<polygon points="21.142,27.413 18.569,22.958 15.997,27.413 	"/>
	<polygon points="25,22.958 22.428,27.413 27.572,27.413 	"/>
	<polygon points="27.572,28.156 22.428,28.156 25,32.611 	"/>
	<polygon points="18.569,32.611 21.142,28.156 15.997,28.156 	"/>
	<polygon points="15.354,28.527 12.782,32.982 17.926,32.982 	"/>
	<polygon points="21.785,28.527 19.212,32.982 24.357,32.982 	"/>
	<polygon points="25.643,32.982 30.788,32.982 28.215,28.527 	"/>
	<polygon points="28.215,38.181 30.788,33.726 25.643,33.726 	"/>
	<polygon points="19.212,33.726 21.785,38.181 24.357,33.726 	"/>
	<polygon points="12.782,33.726 15.354,38.181 17.926,33.726 	"/>
	<polygon points="15.997,38.552 21.142,38.552 18.569,34.097 	"/>
	<polygon points="22.428,38.552 27.572,38.552 25,34.097 	"/>
	<polygon points="25,43.75 27.572,39.295 22.428,39.295 	"/>
	<polygon points="18.569,43.75 21.142,39.295 15.997,39.295 	"/>
	<polygon points="34.646,17.389 32.074,21.844 37.218,21.844 	"/>
	<polygon points="34.646,27.042 37.218,22.587 32.074,22.587 	"/>
	<polygon points="31.431,32.611 34.003,28.156 28.858,28.156 	"/>
</g>
</svg>
