<?xml version="1.0" encoding="utf-8"?>
<!-- Generator: Adobe Illustrator 16.0.0, SVG Export Plug-In . SVG Version: 6.00 Build 0)  -->
<!DOCTYPE svg PUBLIC "-//W3C//DTD SVG 1.1//EN" "http://www.w3.org/Graphics/SVG/1.1/DTD/svg11.dtd">
<svg version="1.1" id="Layer_1" xmlns="http://www.w3.org/2000/svg" xmlns:xlink="http://www.w3.org/1999/xlink" x="0px" y="0px"
	 width="50px" height="50px" viewBox="0 0 50 50" enable-background="new 0 0 50 50" xml:space="preserve">
<g>
	<polygon points="30.671,17.178 25.63,17.178 28.151,21.544 	"/>
	<polygon points="21.849,21.544 24.37,17.178 19.329,17.178 	"/>
	<polygon points="37.604,16.087 40.124,11.72 35.083,11.72 	"/>
	<polygon points="27.521,11.72 22.479,11.72 25,16.087 	"/>
	<polygon points="14.917,11.72 9.876,11.72 12.396,16.087 	"/>
	<polygon points="9.246,12.084 6.726,16.45 11.767,16.45 	"/>
	<polygon points="43.274,16.45 40.754,12.084 38.233,16.45 	"/>
	<polygon points="40.754,21.544 43.274,17.178 38.233,17.178 	"/>
	<polygon points="6.726,17.178 9.246,21.544 11.767,17.178 	"/>
	<polygon points="9.876,21.907 14.917,21.907 12.396,17.541 	"/>
	<polygon points="35.083,21.907 40.124,21.907 37.604,17.541 	"/>
	<polygon points="36.973,6.263 31.932,6.263 34.452,10.629 	"/>
	<polygon points="18.068,6.263 13.027,6.263 15.548,10.629 	"/>
	<polygon points="12.396,6.626 9.876,10.992 14.917,10.992 	"/>
	<polygon points="21.219,10.992 18.698,6.626 16.178,10.992 	"/>
	<polygon points="31.302,6.626 28.781,10.992 33.822,10.992 	"/>
	<polygon points="40.124,10.992 37.604,6.626 35.083,10.992 	"/>
	<polygon points="37.604,27.001 40.124,22.635 35.083,22.635 	"/>
	<polygon points="33.822,22.635 28.781,22.635 31.302,27.001 	"/>
	<polygon points="25,27.001 27.521,22.635 22.479,22.635 	"/>
	<polygon points="18.698,27.001 21.219,22.635 16.178,22.635 	"/>
	<polygon points="9.876,22.635 12.396,27.001 14.917,22.635 	"/>
	<polygon points="15.548,22.999 13.027,27.365 18.068,27.365 	"/>
	<polygon points="19.329,27.365 24.37,27.365 21.849,22.999 	"/>
	<polygon points="28.151,22.999 25.63,27.365 30.671,27.365 	"/>
	<polygon points="31.932,27.365 36.973,27.365 34.452,22.999 	"/>
	<polygon points="21.219,32.822 18.698,28.456 16.178,32.822 	"/>
	<polygon points="28.781,32.822 33.822,32.822 31.302,28.456 	"/>
	<polygon points="31.302,37.916 33.822,33.55 28.781,33.55 	"/>
	<polygon points="27.521,33.55 22.479,33.55 25,37.916 	"/>
	<polygon points="16.178,33.55 18.698,37.916 21.219,33.55 	"/>
	<polygon points="24.37,38.28 21.849,33.913 19.329,38.28 	"/>
	<polygon points="25.63,38.28 30.671,38.28 28.151,33.913 	"/>
	<polygon points="28.151,43.374 30.671,39.008 25.63,39.008 	"/>
	<polygon points="19.329,39.008 21.849,43.374 24.37,39.008 	"/>
	<polygon points="22.479,43.737 27.521,43.737 25,39.371 	"/>
</g>
</svg>
