<?xml version="1.0" encoding="utf-8"?>
<!-- Generator: Adobe Illustrator 16.0.0, SVG Export Plug-In . SVG Version: 6.00 Build 0)  -->
<!DOCTYPE svg PUBLIC "-//W3C//DTD SVG 1.1//EN" "http://www.w3.org/Graphics/SVG/1.1/DTD/svg11.dtd">
<svg version="1.1" id="Layer_1" xmlns="http://www.w3.org/2000/svg" xmlns:xlink="http://www.w3.org/1999/xlink" x="0px" y="0px"
	 width="50px" height="50px" viewBox="0 0 50 50" enable-background="new 0 0 50 50" xml:space="preserve">
<g>
	<polygon points="34.392,19.384 29.025,19.384 31.708,24.032 	"/>
	<polygon points="14.937,19.771 12.253,24.419 17.62,24.419 	"/>
	<polygon points="28.354,19.771 25.671,24.419 31.038,24.419 	"/>
	<polygon points="35.063,19.771 32.379,24.419 37.747,24.419 	"/>
	<polygon points="37.747,25.193 32.379,25.193 35.063,29.842 	"/>
	<polygon points="31.038,25.193 25.671,25.193 28.354,29.842 	"/>
	<polygon points="17.62,25.193 12.253,25.193 14.937,29.842 	"/>
	<polygon points="11.582,25.581 8.898,30.229 14.265,30.229 	"/>
	<polygon points="18.291,25.581 15.607,30.229 20.974,30.229 	"/>
	<polygon points="25,25.581 22.316,30.229 27.684,30.229 	"/>
	<polygon points="31.708,25.581 29.025,30.229 34.392,30.229 	"/>
	<polygon points="38.417,25.581 35.734,30.229 41.101,30.229 	"/>
	<polygon points="31.708,13.96 29.025,18.609 34.392,18.609 	"/>
	<polygon points="41.101,31.004 35.734,31.004 38.417,35.652 	"/>
	<polygon points="34.392,31.004 29.025,31.004 31.708,35.652 	"/>
	<polygon points="27.684,31.004 22.316,31.004 25,35.652 	"/>
	<polygon points="20.974,31.004 15.607,31.004 18.291,35.652 	"/>
	<polygon points="14.265,31.004 8.898,31.004 11.582,35.652 	"/>
	<polygon points="8.228,31.391 5.544,36.04 10.911,36.04 	"/>
	<polygon points="14.937,31.391 12.253,36.04 17.62,36.04 	"/>
	<polygon points="21.645,31.391 18.962,36.04 24.328,36.04 	"/>
	<polygon points="28.354,31.391 25.671,36.04 31.038,36.04 	"/>
	<polygon points="35.063,31.391 32.379,36.04 37.747,36.04 	"/>
	<polygon points="41.772,31.391 39.088,36.04 44.456,36.04 	"/>
</g>
</svg>
