<?xml version="1.0" encoding="utf-8"?>
<!-- Generator: Adobe Illustrator 16.0.0, SVG Export Plug-In . SVG Version: 6.00 Build 0)  -->
<!DOCTYPE svg PUBLIC "-//W3C//DTD SVG 1.1//EN" "http://www.w3.org/Graphics/SVG/1.1/DTD/svg11.dtd">
<svg version="1.1" id="Layer_1" xmlns="http://www.w3.org/2000/svg" xmlns:xlink="http://www.w3.org/1999/xlink" x="0px" y="0px"
	 width="50px" height="50px" viewBox="0 0 50 50" enable-background="new 0 0 50 50" xml:space="preserve">
<g>
	<polygon points="17.906,34.791 17.906,28.648 12.586,31.72 	"/>
	<polygon points="17.906,27.112 17.906,20.97 12.586,24.041 	"/>
	<polygon points="18.793,20.97 18.793,27.112 24.114,24.041 	"/>
	<polygon points="24.557,38.63 24.557,32.487 19.236,35.56 	"/>
	<polygon points="24.557,30.951 24.557,24.809 19.236,27.881 	"/>
	<polygon points="24.557,23.272 24.557,17.13 19.236,20.202 	"/>
	<polygon points="25.444,17.13 25.444,23.272 30.764,20.202 	"/>
	<polygon points="25.444,30.951 30.764,27.881 25.444,24.809 	"/>
	<polygon points="25.444,38.63 30.764,35.56 25.444,32.487 	"/>
	<polygon points="31.207,27.112 31.207,20.97 25.887,24.041 	"/>
	<polygon points="32.094,27.112 37.414,24.041 32.094,20.97 	"/>
	<polygon points="32.094,34.791 37.414,31.72 32.094,28.648 	"/>
	<polygon points="11.256,30.951 11.256,24.809 5.936,27.881 	"/>
	<polygon points="38.744,24.809 38.744,30.951 44.064,27.881 	"/>
	<polygon points="34.533,11.37 29.211,14.441 34.532,17.513 	"/>
	<polygon points="15.469,11.37 15.468,17.515 20.788,14.442 	"/>
</g>
</svg>
