<?xml version="1.0" encoding="utf-8"?>
<!-- Generator: Adobe Illustrator 16.0.0, SVG Export Plug-In . SVG Version: 6.00 Build 0)  -->
<!DOCTYPE svg PUBLIC "-//W3C//DTD SVG 1.1//EN" "http://www.w3.org/Graphics/SVG/1.1/DTD/svg11.dtd">
<svg version="1.1" id="Layer_1" xmlns="http://www.w3.org/2000/svg" xmlns:xlink="http://www.w3.org/1999/xlink" x="0px" y="0px"
	 width="50px" height="50px" viewBox="0 0 50 50" enable-background="new 0 0 50 50" xml:space="preserve">
<g>
	<polygon points="25.001,6.5 22.02,11.663 27.98,11.663 	"/>
	<polygon points="35.433,12.523 29.472,12.523 32.452,17.686 	"/>
	<polygon points="20.528,12.523 14.567,12.523 17.549,17.686 	"/>
	<polygon points="13.823,12.953 10.842,18.116 16.803,18.116 	"/>
	<polygon points="24.255,18.116 21.275,12.953 18.294,18.116 	"/>
	<polygon points="31.706,18.116 28.727,12.953 25.745,18.116 	"/>
	<polygon points="39.158,18.116 36.179,12.953 33.197,18.116 	"/>
	<polygon points="36.179,24.14 39.158,18.977 33.197,18.977 	"/>
	<polygon points="16.803,18.977 10.842,18.977 13.823,24.14 	"/>
	<polygon points="10.098,19.407 7.116,24.569 13.077,24.569 	"/>
	<polygon points="25.001,19.407 22.02,24.569 27.98,24.569 	"/>
	<polygon points="42.884,24.569 39.904,19.407 36.923,24.569 	"/>
	<polygon points="39.904,30.593 42.884,25.43 36.923,25.43 	"/>
	<polygon points="25.001,30.593 27.98,25.43 22.02,25.43 	"/>
	<polygon points="7.116,25.43 10.098,30.593 13.077,25.43 	"/>
	<polygon points="10.842,31.023 16.803,31.023 13.823,25.86 	"/>
	<polygon points="33.197,31.023 39.158,31.023 36.179,25.86 	"/>
	<polygon points="36.179,37.047 39.158,31.884 33.197,31.884 	"/>
	<polygon points="25.745,31.884 28.727,37.047 31.706,31.884 	"/>
	<polygon points="18.294,31.884 21.275,37.047 24.255,31.884 	"/>
	<polygon points="10.842,31.884 13.823,37.047 16.803,31.884 	"/>
	<polygon points="14.567,37.477 20.528,37.477 17.549,32.313 	"/>
	<polygon points="29.472,37.477 35.433,37.477 32.452,32.313 	"/>
	<polygon points="25.001,43.5 27.98,38.337 22.02,38.337 	"/>
</g>
</svg>
