<?xml version="1.0" encoding="utf-8"?>
<!-- Generator: Adobe Illustrator 16.0.0, SVG Export Plug-In . SVG Version: 6.00 Build 0)  -->
<!DOCTYPE svg PUBLIC "-//W3C//DTD SVG 1.1//EN" "http://www.w3.org/Graphics/SVG/1.1/DTD/svg11.dtd">
<svg version="1.1" id="Layer_1" xmlns="http://www.w3.org/2000/svg" xmlns:xlink="http://www.w3.org/1999/xlink" x="0px" y="0px"
	 width="50px" height="50px" viewBox="0 0 50 50" enable-background="new 0 0 50 50" xml:space="preserve">
<g>
	<polygon points="31.514,12.882 25.724,12.882 28.619,17.896 	"/>
	<polygon points="11.249,24.582 17.038,24.582 14.144,19.567 	"/>
	<polygon points="38.751,25.418 32.962,25.418 35.856,30.433 	"/>
	<polygon points="27.895,18.314 25,13.3 22.105,18.314 	"/>
	<polygon points="35.133,19.149 29.343,19.149 32.238,24.164 	"/>
	<polygon points="20.657,19.149 14.867,19.149 17.762,24.164 	"/>
	<polygon points="25.724,24.582 31.514,24.582 28.619,19.567 	"/>
	<polygon points="24.276,25.418 18.486,25.418 21.381,30.433 	"/>
	<polygon points="17.762,25.836 14.867,30.851 20.657,30.851 	"/>
	<polygon points="32.238,25.836 29.343,30.851 35.133,30.851 	"/>
	<polygon points="22.105,31.686 25,36.7 27.895,31.686 	"/>
	<polygon points="18.486,37.118 24.276,37.118 21.381,32.104 	"/>
	<polygon points="38.751,12.882 32.962,12.882 35.856,17.896 	"/>
	<polygon points="17.038,12.882 11.249,12.882 14.144,17.896 	"/>
	<polygon points="42.371,19.149 36.581,19.149 39.476,24.164 	"/>
	<polygon points="13.419,19.149 7.629,19.149 10.524,24.164 	"/>
	<polygon points="21.381,7.031 18.486,12.046 24.276,12.046 	"/>
	<polygon points="28.619,7.031 25.724,12.046 31.514,12.046 	"/>
	<polygon points="10.524,25.836 7.629,30.851 13.419,30.851 	"/>
	<polygon points="36.581,30.851 42.371,30.851 39.476,25.836 	"/>
	<polygon points="11.249,37.118 17.038,37.118 14.144,32.104 	"/>
	<polygon points="32.962,37.118 38.751,37.118 35.856,32.104 	"/>
	<polygon points="28.619,42.969 31.514,37.954 25.724,37.954 	"/>
	<polygon points="21.381,42.969 24.276,37.954 18.486,37.954 	"/>
</g>
</svg>
