<?xml version="1.0" encoding="utf-8"?>
<!-- Generator: Adobe Illustrator 16.0.0, SVG Export Plug-In . SVG Version: 6.00 Build 0)  -->
<!DOCTYPE svg PUBLIC "-//W3C//DTD SVG 1.1//EN" "http://www.w3.org/Graphics/SVG/1.1/DTD/svg11.dtd">
<svg version="1.1" id="Layer_1" xmlns="http://www.w3.org/2000/svg" xmlns:xlink="http://www.w3.org/1999/xlink" x="0px" y="0px"
	 width="50px" height="50px" viewBox="0 0 50 50" enable-background="new 0 0 50 50" xml:space="preserve">
<g>
	<polygon points="30.196,10.5 33.66,16.5 37.124,10.5 	"/>
	<polygon points="12.876,10.5 16.34,16.5 19.804,10.5 	"/>
	<polygon points="8.546,17 15.474,17 12.01,11 	"/>
	<polygon points="24.134,17 20.67,11 17.206,17 	"/>
	<polygon points="25.866,17 32.794,17 29.33,11 	"/>
	<polygon points="41.454,17 37.99,11 34.526,17 	"/>
	<polygon points="34.526,18 37.99,24 41.454,18 	"/>
	<polygon points="29.33,24 32.794,18 25.866,18 	"/>
	<polygon points="24.134,18 17.206,18 20.67,24 	"/>
	<polygon points="12.01,24 15.474,18 8.546,18 	"/>
	<polygon points="4.216,24.5 11.144,24.5 7.68,18.5 	"/>
	<polygon points="25,18.5 21.536,24.5 28.464,24.5 	"/>
	<polygon points="42.32,18.5 38.856,24.5 45.784,24.5 	"/>
	<polygon points="24.134,32 20.67,26 17.206,32 	"/>
	<polygon points="25.866,32 32.794,32 29.33,26 	"/>
	<polygon points="29.33,39 32.794,33 25.866,33 	"/>
	<polygon points="17.206,33 20.67,39 24.134,33 	"/>
	<polygon points="21.536,39.5 28.464,39.5 25,33.5 	"/>
</g>
</svg>
