<?xml version="1.0" encoding="utf-8"?>
<!-- Generator: Adobe Illustrator 16.0.0, SVG Export Plug-In . SVG Version: 6.00 Build 0)  -->
<!DOCTYPE svg PUBLIC "-//W3C//DTD SVG 1.1//EN" "http://www.w3.org/Graphics/SVG/1.1/DTD/svg11.dtd">
<svg version="1.1" id="Layer_1" xmlns="http://www.w3.org/2000/svg" xmlns:xlink="http://www.w3.org/1999/xlink" x="0px" y="0px"
	 width="50px" height="50px" viewBox="0 0 50 50" enable-background="new 0 0 50 50" xml:space="preserve">
<g>
	<polygon points="30.743,16.987 34.571,23.618 38.399,16.987 	"/>
	<polygon points="28.828,16.987 21.172,16.987 25,23.618 	"/>
	<polygon points="11.601,16.987 15.429,23.618 19.257,16.987 	"/>
	<polygon points="6.814,24.171 14.471,24.171 10.643,17.54 	"/>
	<polygon points="24.043,24.171 20.214,17.54 16.386,24.171 	"/>
	<polygon points="25.957,24.171 33.614,24.171 29.786,17.54 	"/>
	<polygon points="39.357,17.54 35.529,24.171 43.186,24.171 	"/>
	<polygon points="29.786,31.908 33.614,25.276 25.957,25.276 	"/>
	<polygon points="20.214,31.908 24.043,25.276 16.386,25.276 	"/>
	<polygon points="25,25.829 21.172,32.46 28.828,32.46 	"/>
	<polygon points="25,9.25 21.172,15.882 28.828,15.882 	"/>
	<polygon points="21.172,33.565 25,40.197 28.828,33.565 	"/>
	<polygon points="16.386,40.75 24.043,40.75 20.214,34.118 	"/>
	<polygon points="25.957,40.75 33.614,40.75 29.786,34.118 	"/>
</g>
</svg>
