<?xml version="1.0" encoding="utf-8"?>
<!-- Generator: Adobe Illustrator 16.0.0, SVG Export Plug-In . SVG Version: 6.00 Build 0)  -->
<!DOCTYPE svg PUBLIC "-//W3C//DTD SVG 1.1//EN" "http://www.w3.org/Graphics/SVG/1.1/DTD/svg11.dtd">
<svg version="1.1" id="Layer_1" xmlns="http://www.w3.org/2000/svg" xmlns:xlink="http://www.w3.org/1999/xlink" x="0px" y="0px"
	 width="50px" height="50px" viewBox="0 0 50 50" enable-background="new 0 0 50 50" xml:space="preserve">
<g>
	<polygon points="37.026,41.108 38.95,37.775 35.102,37.775 	"/>
	<polygon points="43.761,21.111 39.913,21.111 41.836,24.444 	"/>
	<polygon points="39.913,28.889 43.761,28.889 41.836,25.556 	"/>
	<polygon points="41.836,41.108 43.761,37.775 39.913,37.775 	"/>
	<polygon points="27.405,41.108 29.329,37.775 25.481,37.775 	"/>
	<polygon points="22.594,41.108 24.519,37.775 20.67,37.775 	"/>
	<polygon points="36.545,16.945 32.697,16.945 34.621,20.278 	"/>
	<polygon points="25,20.278 26.924,16.945 23.076,16.945 	"/>
	<polygon points="13.455,16.945 15.379,20.278 17.303,16.945 	"/>
	<polygon points="19.708,20.557 17.784,17.224 15.86,20.557 	"/>
	<polygon points="22.594,17.224 20.67,20.557 24.519,20.557 	"/>
	<polygon points="27.405,17.224 25.481,20.557 29.329,20.557 	"/>
	<polygon points="32.216,17.224 30.292,20.557 34.14,20.557 	"/>
	<polygon points="38.95,20.557 37.026,17.224 35.102,20.557 	"/>
	<polygon points="34.14,21.111 30.292,21.111 32.216,24.444 	"/>
	<polygon points="35.102,21.111 37.026,24.444 38.95,21.111 	"/>
	<polygon points="25.481,21.111 27.405,24.444 29.329,21.111 	"/>
	<polygon points="24.519,21.111 20.67,21.111 22.594,24.444 	"/>
	<polygon points="15.86,21.111 17.784,24.444 19.708,21.111 	"/>
	<polygon points="22.113,24.723 20.189,21.39 18.265,24.723 	"/>
	<polygon points="26.924,24.723 25,21.39 23.076,24.723 	"/>
	<polygon points="31.734,24.723 29.81,21.39 27.886,24.723 	"/>
	<polygon points="32.697,24.723 36.545,24.723 34.621,21.39 	"/>
	<polygon points="41.355,24.723 39.432,21.39 37.507,24.723 	"/>
	<polygon points="6.239,12.225 10.087,12.225 8.163,8.892 	"/>
	<polygon points="29.329,12.779 25.481,12.779 27.405,16.112 	"/>
	<polygon points="24.519,12.779 20.67,12.779 22.594,16.112 	"/>
	<polygon points="11.049,12.779 12.974,16.112 14.897,12.779 	"/>
	<polygon points="17.303,16.39 15.379,13.057 13.455,16.39 	"/>
	<polygon points="34.621,28.61 36.545,25.277 32.697,25.277 	"/>
	<polygon points="29.81,28.61 31.734,25.277 27.886,25.277 	"/>
	<polygon points="25,28.61 26.924,25.277 23.076,25.277 	"/>
	<polygon points="18.265,25.277 20.189,28.61 22.113,25.277 	"/>
	<polygon points="25.481,28.889 29.329,28.889 27.405,25.556 	"/>
	<polygon points="30.292,28.889 34.14,28.889 32.216,25.556 	"/>
	<polygon points="38.95,28.889 37.026,25.556 35.102,28.889 	"/>
	<polygon points="34.14,29.443 30.292,29.443 32.216,32.776 	"/>
	<polygon points="38.95,29.443 35.102,29.443 37.026,32.776 	"/>
	<polygon points="29.329,29.443 25.481,29.443 27.405,32.776 	"/>
	<polygon points="26.924,33.055 25,29.722 23.076,33.055 	"/>
	<polygon points="29.81,29.722 27.886,33.055 31.734,33.055 	"/>
	<polygon points="34.621,29.722 32.697,33.055 36.545,33.055 	"/>
	<polygon points="37.507,25.277 39.432,28.61 41.355,25.277 	"/>
	<polygon points="39.432,29.722 37.507,33.055 41.355,33.055 	"/>
	<polygon points="32.697,33.61 34.621,36.943 36.545,33.61 	"/>
	<polygon points="27.886,33.61 29.81,36.943 31.734,33.61 	"/>
	<polygon points="23.076,33.61 25,36.943 26.924,33.61 	"/>
	<polygon points="20.67,37.221 24.519,37.221 22.594,33.888 	"/>
	<polygon points="25.481,37.221 29.329,37.221 27.405,33.888 	"/>
	<polygon points="30.292,37.221 34.14,37.221 32.216,33.888 	"/>
	<polygon points="35.102,37.221 38.95,37.221 37.026,33.888 	"/>
	<polygon points="41.836,32.776 43.761,29.443 39.913,29.443 	"/>
	<polygon points="39.913,37.221 43.761,37.221 41.836,33.888 	"/>
	<polygon points="37.507,33.61 39.432,36.943 41.355,33.61 	"/>
</g>
</svg>
