<?xml version="1.0" encoding="utf-8"?>
<!-- Generator: Adobe Illustrator 16.0.0, SVG Export Plug-In . SVG Version: 6.00 Build 0)  -->
<!DOCTYPE svg PUBLIC "-//W3C//DTD SVG 1.1//EN" "http://www.w3.org/Graphics/SVG/1.1/DTD/svg11.dtd">
<svg version="1.1" id="Layer_1" xmlns="http://www.w3.org/2000/svg" xmlns:xlink="http://www.w3.org/1999/xlink" x="0px" y="0px"
	 width="50px" height="50px" viewBox="0 0 50 50" enable-background="new 0 0 50 50" xml:space="preserve">
<g>
	<polygon points="28.886,19.765 31.477,24.252 34.068,19.765 	"/>
	<polygon points="15.932,19.765 18.523,24.252 21.114,19.765 	"/>
	<polygon points="18.523,25.748 15.932,30.235 21.114,30.235 	"/>
	<polygon points="31.477,25.748 28.886,30.235 34.068,30.235 	"/>
	<polygon points="8.807,20.139 6.217,24.626 11.398,24.626 	"/>
	<polygon points="37.954,24.252 40.545,19.765 35.363,19.765 	"/>
	<polygon points="27.591,19.765 22.409,19.765 25,24.252 	"/>
	<polygon points="34.068,8.546 28.886,8.546 31.477,13.033 	"/>
	<polygon points="21.114,8.546 15.932,8.546 18.523,13.033 	"/>
	<polygon points="15.285,8.92 12.694,13.407 17.875,13.407 	"/>
	<polygon points="24.352,13.407 21.761,8.92 19.171,13.407 	"/>
	<polygon points="28.239,8.92 25.648,13.407 30.829,13.407 	"/>
	<polygon points="37.306,13.407 34.715,8.92 32.125,13.407 	"/>
	<polygon points="37.306,14.155 32.125,14.155 34.715,18.643 	"/>
	<polygon points="30.829,14.155 25.648,14.155 28.239,18.643 	"/>
	<polygon points="24.352,14.155 19.171,14.155 21.761,18.643 	"/>
	<polygon points="17.875,14.155 12.694,14.155 15.285,18.643 	"/>
	<polygon points="12.046,14.529 9.455,19.017 14.637,19.017 	"/>
	<polygon points="27.591,19.017 25,14.529 22.409,19.017 	"/>
	<polygon points="40.545,19.017 37.954,14.529 35.363,19.017 	"/>
	<polygon points="14.637,19.765 9.455,19.765 12.046,24.252 	"/>
	<polygon points="43.783,24.626 41.193,20.139 38.602,24.626 	"/>
	<polygon points="41.193,29.861 43.783,25.374 38.602,25.374 	"/>
	<polygon points="6.217,25.374 8.807,29.861 11.398,25.374 	"/>
	<polygon points="9.455,30.235 14.637,30.235 12.046,25.748 	"/>
	<polygon points="25,25.748 22.409,30.235 27.591,30.235 	"/>
	<polygon points="35.363,30.235 40.545,30.235 37.954,25.748 	"/>
	<polygon points="37.954,35.471 40.545,30.983 35.363,30.983 	"/>
	<polygon points="22.409,30.983 25,35.471 27.591,30.983 	"/>
	<polygon points="9.455,30.983 12.046,35.471 14.637,30.983 	"/>
	<polygon points="12.694,35.845 17.875,35.845 15.285,31.357 	"/>
	<polygon points="19.171,35.845 24.352,35.845 21.761,31.357 	"/>
	<polygon points="30.829,35.845 28.239,31.357 25.648,35.845 	"/>
	<polygon points="32.125,35.845 37.306,35.845 34.715,31.357 	"/>
	<polygon points="34.715,41.08 37.306,36.593 32.125,36.593 	"/>
	<polygon points="25.648,36.593 28.239,41.08 30.829,36.593 	"/>
	<polygon points="21.761,41.08 24.352,36.593 19.171,36.593 	"/>
	<polygon points="12.694,36.593 15.285,41.08 17.875,36.593 	"/>
	<polygon points="15.932,41.454 21.114,41.454 18.523,36.967 	"/>
	<polygon points="28.886,41.454 34.068,41.454 31.477,36.967 	"/>
</g>
</svg>
