<?xml version="1.0" encoding="utf-8"?>
<!-- Generator: Adobe Illustrator 16.0.0, SVG Export Plug-In . SVG Version: 6.00 Build 0)  -->
<!DOCTYPE svg PUBLIC "-//W3C//DTD SVG 1.1//EN" "http://www.w3.org/Graphics/SVG/1.1/DTD/svg11.dtd">
<svg version="1.1" id="Layer_1" xmlns="http://www.w3.org/2000/svg" xmlns:xlink="http://www.w3.org/1999/xlink" x="0px" y="0px"
	 width="50px" height="50px" viewBox="0 0 50 50" enable-background="new 0 0 50 50" xml:space="preserve">
<g>
	<polygon points="8.882,22.59 4.736,24.984 8.882,27.377 	"/>
	<polygon points="9.573,27.377 13.72,24.984 9.573,22.59 	"/>
	<polygon points="40.428,22.59 36.281,24.984 40.428,27.377 	"/>
	<polygon points="41.119,27.377 45.265,24.984 41.119,22.59 	"/>
	<polygon points="13.385,15.514 8.597,15.514 10.991,19.66 	"/>
	<polygon points="16.377,20.006 13.983,15.859 11.59,20.005 	"/>
	<polygon points="33.624,29.963 36.019,34.109 38.412,29.963 	"/>
	<polygon points="36.616,34.455 41.404,34.456 39.011,30.308 	"/>
	<polygon points="8.597,34.456 13.385,34.455 10.99,30.309 	"/>
	<polygon points="13.983,34.109 16.377,29.963 11.59,29.963 	"/>
	<polygon points="36.019,15.859 33.625,20.006 38.411,20.005 	"/>
	<polygon points="41.405,15.514 36.616,15.514 39.01,19.66 	"/>
	<polygon points="27.969,19.172 30.344,15.059 25.594,15.059 	"/>
	<polygon points="24.407,15.059 19.657,15.059 22.032,19.172 	"/>
	<polygon points="19.063,15.402 16.688,19.515 21.438,19.515 	"/>
	<polygon points="25.001,15.402 22.626,19.515 27.375,19.515 	"/>
	<polygon points="33.313,19.515 30.938,15.402 28.563,19.515 	"/>
	<polygon points="30.938,24.314 33.313,20.201 28.563,20.201 	"/>
	<polygon points="21.438,20.201 16.688,20.201 19.063,24.314 	"/>
	<polygon points="16.095,20.543 13.72,24.657 18.47,24.657 	"/>
	<polygon points="33.906,20.543 31.531,24.657 36.281,24.657 	"/>
	<polygon points="36.281,25.343 31.531,25.343 33.906,29.456 	"/>
	<polygon points="18.47,25.343 13.72,25.343 16.095,29.456 	"/>
	<polygon points="19.063,25.686 16.688,29.799 21.438,29.799 	"/>
	<polygon points="28.563,29.799 33.313,29.799 30.938,25.686 	"/>
	<polygon points="30.938,34.598 33.313,30.485 28.563,30.485 	"/>
	<polygon points="25.001,34.598 27.375,30.485 22.626,30.485 	"/>
	<polygon points="16.688,30.485 19.063,34.598 21.438,30.485 	"/>
	<polygon points="22.032,30.827 19.657,34.941 24.407,34.941 	"/>
	<polygon points="25.594,34.941 30.344,34.941 27.969,30.827 	"/>
</g>
</svg>
