<?xml version="1.0" encoding="utf-8"?>
<!-- Generator: Adobe Illustrator 16.0.0, SVG Export Plug-In . SVG Version: 6.00 Build 0)  -->
<!DOCTYPE svg PUBLIC "-//W3C//DTD SVG 1.1//EN" "http://www.w3.org/Graphics/SVG/1.1/DTD/svg11.dtd">
<svg version="1.1" id="Layer_1" xmlns="http://www.w3.org/2000/svg" xmlns:xlink="http://www.w3.org/1999/xlink" x="0px" y="0px"
	 width="50px" height="50px" viewBox="0 0 50 50" enable-background="new 0 0 50 50" xml:space="preserve">
<g>
	<polygon points="37.777,18.73 40.333,14.304 35.222,14.304 	"/>
	<polygon points="33.944,14.304 28.833,14.304 31.389,18.73 	"/>
	<polygon points="27.555,14.304 22.445,14.304 25,18.73 	"/>
	<polygon points="21.167,14.304 16.056,14.304 18.611,18.73 	"/>
	<polygon points="12.223,18.73 14.778,14.304 9.667,14.304 	"/>
	<polygon points="12.862,19.099 17.972,19.099 15.417,14.673 	"/>
	<polygon points="24.361,19.099 21.806,14.673 19.25,19.099 	"/>
	<polygon points="30.75,19.099 28.194,14.673 25.639,19.099 	"/>
	<polygon points="34.583,14.673 32.028,19.099 37.138,19.099 	"/>
	<polygon points="14.778,24.631 12.223,20.205 9.667,24.631 	"/>
	<polygon points="25,20.205 22.445,24.631 27.555,24.631 	"/>
	<polygon points="35.222,24.631 40.333,24.631 37.777,20.205 	"/>
	<polygon points="37.138,8.771 32.028,8.771 34.583,13.197 	"/>
	<polygon points="38.416,8.771 40.971,13.197 43.526,8.771 	"/>
	<polygon points="17.972,8.771 12.862,8.771 15.417,13.197 	"/>
	<polygon points="6.474,8.771 9.029,13.197 11.584,8.771 	"/>
	<polygon points="14.778,13.566 12.223,9.14 9.667,13.566 	"/>
	<polygon points="21.167,13.566 18.611,9.14 16.056,13.566 	"/>
	<polygon points="25,9.14 22.445,13.566 27.555,13.566 	"/>
	<polygon points="31.389,9.14 28.833,13.566 33.944,13.566 	"/>
	<polygon points="35.222,13.566 40.333,13.566 37.777,9.14 	"/>
	<polygon points="37.777,29.795 40.333,25.369 35.222,25.369 	"/>
	<polygon points="33.944,25.369 28.833,25.369 31.389,29.795 	"/>
	<polygon points="27.555,25.369 22.445,25.369 25,29.795 	"/>
	<polygon points="18.611,29.795 21.167,25.369 16.056,25.369 	"/>
	<polygon points="12.223,29.795 14.778,25.369 9.667,25.369 	"/>
	<polygon points="15.417,25.738 12.862,30.164 17.972,30.164 	"/>
	<polygon points="21.806,25.738 19.25,30.164 24.361,30.164 	"/>
	<polygon points="28.194,25.738 25.639,30.164 30.75,30.164 	"/>
	<polygon points="34.583,25.738 32.028,30.164 37.138,30.164 	"/>
	<polygon points="32.028,30.902 34.583,35.328 37.138,30.902 	"/>
	<polygon points="12.862,30.902 15.417,35.328 17.972,30.902 	"/>
	<polygon points="9.667,35.697 14.778,35.697 12.223,31.271 	"/>
	<polygon points="21.167,35.697 18.611,31.271 16.056,35.697 	"/>
	<polygon points="28.833,35.697 33.944,35.697 31.389,31.271 	"/>
	<polygon points="35.222,35.697 40.333,35.697 37.777,31.271 	"/>
	<polygon points="31.389,40.86 33.944,36.435 28.833,36.435 	"/>
	<polygon points="22.445,36.435 25,40.86 27.555,36.435 	"/>
	<polygon points="16.056,36.435 18.611,40.86 21.167,36.435 	"/>
	<polygon points="19.25,41.229 24.361,41.229 21.806,36.803 	"/>
	<polygon points="25.639,41.229 30.75,41.229 28.194,36.803 	"/>
</g>
</svg>
