<?xml version="1.0" encoding="utf-8"?>
<!-- Generator: Adobe Illustrator 16.0.0, SVG Export Plug-In . SVG Version: 6.00 Build 0)  -->
<!DOCTYPE svg PUBLIC "-//W3C//DTD SVG 1.1//EN" "http://www.w3.org/Graphics/SVG/1.1/DTD/svg11.dtd">
<svg version="1.1" id="Layer_1" xmlns="http://www.w3.org/2000/svg" xmlns:xlink="http://www.w3.org/1999/xlink" x="0px" y="0px"
	 width="50px" height="50px" viewBox="0 0 50 50" enable-background="new 0 0 50 50" xml:space="preserve">
<g>
	<polygon points="40.63,15.347 35.338,15.347 37.983,19.93 	"/>
	<polygon points="27.399,15.347 22.106,15.347 24.753,19.93 	"/>
	<polygon points="14.168,15.347 8.876,15.347 11.522,19.93 	"/>
	<polygon points="11.522,21.458 8.876,26.042 14.168,26.042 	"/>
	<polygon points="24.753,21.458 22.106,26.042 27.399,26.042 	"/>
	<polygon points="37.983,21.458 35.338,26.042 40.63,26.042 	"/>
	<polygon points="11.522,10 8.876,14.583 14.168,14.583 	"/>
	<polygon points="24.753,10 22.106,14.583 27.399,14.583 	"/>
	<polygon points="37.983,10 35.338,14.583 40.63,14.583 	"/>
	<polygon points="40.63,26.806 35.338,26.806 37.983,31.389 	"/>
	<polygon points="27.399,26.806 22.106,26.806 24.753,31.389 	"/>
	<polygon points="14.168,26.806 8.876,26.806 11.522,31.389 	"/>
	<polygon points="8.215,27.188 5.568,31.771 10.86,31.771 	"/>
	<polygon points="14.83,27.188 12.184,31.771 17.476,31.771 	"/>
	<polygon points="21.445,27.188 18.799,31.771 24.092,31.771 	"/>
	<polygon points="28.061,27.188 25.414,31.771 30.707,31.771 	"/>
	<polygon points="34.676,27.188 32.03,31.771 37.322,31.771 	"/>
	<polygon points="41.291,27.188 38.646,31.771 43.938,31.771 	"/>
	<polygon points="37.322,32.535 32.03,32.535 34.676,37.118 	"/>
	<polygon points="43.938,32.535 38.646,32.535 41.291,37.118 	"/>
	<polygon points="30.707,32.535 25.414,32.535 28.061,37.118 	"/>
	<polygon points="24.092,32.535 18.799,32.535 21.445,37.118 	"/>
	<polygon points="17.476,32.535 12.184,32.535 14.83,37.118 	"/>
	<polygon points="10.86,32.535 5.568,32.535 8.215,37.118 	"/>
	<polygon points="11.522,32.917 8.876,37.5 14.168,37.5 	"/>
	<polygon points="24.753,32.917 22.106,37.5 27.399,37.5 	"/>
	<polygon points="37.983,32.917 35.338,37.5 40.63,37.5 	"/>
</g>
</svg>
