<?xml version="1.0" encoding="utf-8"?>
<!-- Generator: Adobe Illustrator 16.0.0, SVG Export Plug-In . SVG Version: 6.00 Build 0)  -->
<!DOCTYPE svg PUBLIC "-//W3C//DTD SVG 1.1//EN" "http://www.w3.org/Graphics/SVG/1.1/DTD/svg11.dtd">
<svg version="1.1" id="Layer_1" xmlns="http://www.w3.org/2000/svg" xmlns:xlink="http://www.w3.org/1999/xlink" x="0px" y="0px"
	 width="50px" height="50px" viewBox="0 0 50 50" enable-background="new 0 0 50 50" xml:space="preserve">
<g>
	<polygon points="38.958,12.576 34.306,12.576 36.632,16.605 	"/>
	<polygon points="15.694,12.576 11.042,12.576 13.368,16.605 	"/>
	<polygon points="10.46,12.912 8.134,16.941 12.786,16.941 	"/>
	<polygon points="18.603,16.941 16.276,12.912 13.95,16.941 	"/>
	<polygon points="33.724,12.912 31.397,16.941 36.05,16.941 	"/>
	<polygon points="41.866,16.941 39.54,12.912 37.214,16.941 	"/>
	<polygon points="31.397,17.613 33.724,21.642 36.05,17.613 	"/>
	<polygon points="37.214,17.613 39.54,21.642 41.866,17.613 	"/>
	<polygon points="13.95,17.613 16.276,21.642 18.603,17.613 	"/>
	<polygon points="8.134,17.613 10.46,21.642 12.786,17.613 	"/>
	<polygon points="5.227,21.978 9.879,21.978 7.553,17.949 	"/>
	<polygon points="11.042,21.978 15.694,21.978 13.368,17.949 	"/>
	<polygon points="21.511,21.978 19.185,17.949 16.858,21.978 	"/>
	<polygon points="28.489,21.978 33.142,21.978 30.815,17.949 	"/>
	<polygon points="34.306,21.978 38.958,21.978 36.632,17.949 	"/>
	<polygon points="42.447,17.949 40.121,21.978 44.774,21.978 	"/>
	<polygon points="13.368,7.875 11.042,11.904 15.694,11.904 	"/>
	<polygon points="36.632,7.875 34.306,11.904 38.958,11.904 	"/>
	<polygon points="27.326,32.051 25,28.022 22.674,32.051 	"/>
	<polygon points="27.326,32.723 22.674,32.723 25,36.752 	"/>
	<polygon points="24.418,37.088 22.092,33.059 19.766,37.088 	"/>
	<polygon points="27.908,33.059 25.582,37.088 30.234,37.088 	"/>
	<polygon points="25.582,37.76 27.908,41.789 30.234,37.76 	"/>
	<polygon points="19.766,37.76 22.092,41.789 24.418,37.76 	"/>
	<polygon points="16.858,42.125 21.511,42.125 19.185,38.096 	"/>
	<polygon points="22.674,42.125 27.326,42.125 25,38.096 	"/>
	<polygon points="28.489,42.125 33.142,42.125 30.815,38.096 	"/>
	<polygon points="21.511,25.853 24.502,24.125 21.511,22.397 	"/>
	<polygon points="24.751,24.558 21.759,26.283 24.751,28.011 	"/>
	<polygon points="24.751,20.239 21.759,21.967 24.751,23.692 	"/>
	<polygon points="25.249,20.239 25.249,23.692 28.241,21.967 	"/>
	<polygon points="25.249,24.558 25.249,28.011 28.241,26.283 	"/>
	<polygon points="28.489,25.853 28.489,22.397 25.498,24.125 	"/>
</g>
</svg>
