<?xml version="1.0" encoding="utf-8"?>
<!-- Generator: Adobe Illustrator 16.0.0, SVG Export Plug-In . SVG Version: 6.00 Build 0)  -->
<!DOCTYPE svg PUBLIC "-//W3C//DTD SVG 1.1//EN" "http://www.w3.org/Graphics/SVG/1.1/DTD/svg11.dtd">
<svg version="1.1" id="Layer_1" xmlns="http://www.w3.org/2000/svg" xmlns:xlink="http://www.w3.org/1999/xlink" x="0px" y="0px"
	 width="50px" height="50px" viewBox="0 0 50 50" enable-background="new 0 0 50 50" xml:space="preserve">
<g>
	<polygon points="42.082,22.535 36.388,22.535 39.234,27.465 	"/>
	<polygon points="35.676,22.945 32.829,27.876 38.522,27.876 	"/>
	<polygon points="45.64,16.371 39.946,16.371 42.793,21.302 	"/>
	<polygon points="31.405,28.698 25.712,28.698 28.559,33.629 	"/>
	<polygon points="39.234,16.782 36.388,21.712 42.082,21.712 	"/>
	<polygon points="38.522,16.371 32.829,16.371 35.676,21.302 	"/>
	<polygon points="17.171,16.371 11.477,16.371 14.324,21.302 	"/>
	<polygon points="10.053,16.371 4.36,16.371 7.207,21.302 	"/>
	<polygon points="10.765,16.782 7.918,21.712 13.612,21.712 	"/>
	<polygon points="17.883,16.782 15.036,21.712 20.729,21.712 	"/>
	<polygon points="32.117,16.782 29.271,21.712 34.964,21.712 	"/>
	<polygon points="34.964,22.535 29.271,22.535 32.117,27.465 	"/>
	<polygon points="20.729,22.535 15.036,22.535 17.883,27.465 	"/>
	<polygon points="13.612,22.535 7.918,22.535 10.765,27.465 	"/>
	<polygon points="14.324,22.945 11.477,27.876 17.171,27.876 	"/>
	<polygon points="21.441,22.945 18.595,27.876 24.288,27.876 	"/>
	<polygon points="28.559,22.945 25.712,27.876 31.405,27.876 	"/>
	<polygon points="24.288,28.698 18.595,28.698 21.441,33.629 	"/>
</g>
</svg>
