<?xml version="1.0" encoding="utf-8"?>
<!-- Generator: Adobe Illustrator 16.0.0, SVG Export Plug-In . SVG Version: 6.00 Build 0)  -->
<!DOCTYPE svg PUBLIC "-//W3C//DTD SVG 1.1//EN" "http://www.w3.org/Graphics/SVG/1.1/DTD/svg11.dtd">
<svg version="1.1" id="Layer_1" xmlns="http://www.w3.org/2000/svg" xmlns:xlink="http://www.w3.org/1999/xlink" x="0px" y="0px"
	 width="50px" height="50px" viewBox="0 0 50 50" enable-background="new 0 0 50 50" xml:space="preserve">
<g>
	<polygon points="40.966,19.623 35.645,19.623 38.307,24.232 	"/>
	<polygon points="34.313,19.623 28.991,19.623 31.653,24.232 	"/>
	<polygon points="27.661,19.623 22.339,19.623 25.001,24.232 	"/>
	<polygon points="21.009,19.623 15.687,19.623 18.348,24.232 	"/>
	<polygon points="14.355,19.623 9.034,19.623 11.695,24.232 	"/>
	<polygon points="8.369,20.007 5.707,24.616 11.029,24.616 	"/>
	<polygon points="15.022,20.007 12.36,24.616 17.682,24.616 	"/>
	<polygon points="21.675,20.007 19.013,24.616 24.334,24.616 	"/>
	<polygon points="28.327,20.007 25.666,24.616 30.987,24.616 	"/>
	<polygon points="34.979,20.007 32.317,24.616 37.64,24.616 	"/>
	<polygon points="41.633,20.007 38.971,24.616 44.293,24.616 	"/>
	<polygon points="37.64,25.385 32.317,25.385 34.979,29.994 	"/>
	<polygon points="44.293,25.385 38.971,25.385 41.633,29.994 	"/>
	<polygon points="30.987,25.385 25.666,25.385 28.327,29.994 	"/>
	<polygon points="24.334,25.385 19.013,25.385 21.675,29.994 	"/>
	<polygon points="17.682,25.385 12.36,25.385 15.022,29.994 	"/>
	<polygon points="11.029,25.385 5.707,25.385 8.369,29.994 	"/>
	<polygon points="11.695,25.769 9.034,30.378 14.355,30.378 	"/>
	<polygon points="18.348,25.769 15.687,30.378 21.009,30.378 	"/>
	<polygon points="25.001,25.769 22.339,30.378 27.661,30.378 	"/>
	<polygon points="31.653,25.769 28.991,30.378 34.313,30.378 	"/>
	<polygon points="38.307,25.769 35.645,30.378 40.966,30.378 	"/>
	<polygon points="21.675,8.484 19.013,13.093 24.334,13.093 	"/>
	<polygon points="28.327,8.484 25.666,13.093 30.987,13.093 	"/>
	<polygon points="25.001,14.246 22.339,18.855 27.661,18.855 	"/>
	<polygon points="40.966,31.146 35.645,31.146 38.307,35.755 	"/>
	<polygon points="34.313,31.146 28.991,31.146 31.653,35.755 	"/>
	<polygon points="27.661,31.146 22.339,31.146 25.001,35.755 	"/>
	<polygon points="21.009,31.146 15.687,31.146 18.348,35.755 	"/>
	<polygon points="14.355,31.146 9.034,31.146 11.695,35.755 	"/>
	<polygon points="15.022,31.53 12.36,36.14 17.682,36.14 	"/>
	<polygon points="34.979,31.53 32.317,36.14 37.64,36.14 	"/>
	<polygon points="37.64,36.908 32.317,36.908 34.979,41.517 	"/>
	<polygon points="17.682,36.908 12.36,36.908 15.022,41.517 	"/>
</g>
</svg>
