<?xml version="1.0" encoding="utf-8"?>
<!-- Generator: Adobe Illustrator 16.0.0, SVG Export Plug-In . SVG Version: 6.00 Build 0)  -->
<!DOCTYPE svg PUBLIC "-//W3C//DTD SVG 1.1//EN" "http://www.w3.org/Graphics/SVG/1.1/DTD/svg11.dtd">
<svg version="1.1" id="Layer_1" xmlns="http://www.w3.org/2000/svg" xmlns:xlink="http://www.w3.org/1999/xlink" x="0px" y="0px"
	 width="50px" height="50px" viewBox="0 0 50 50" enable-background="new 0 0 50 50" xml:space="preserve">
<g>
	<polygon points="30.892,14.038 25.655,14.038 28.273,18.574 	"/>
	<polygon points="24.345,14.038 19.107,14.038 21.726,18.574 	"/>
	<polygon points="18.453,14.416 15.834,18.952 21.071,18.952 	"/>
	<polygon points="34.166,18.952 31.547,14.416 28.928,18.952 	"/>
	<polygon points="31.547,24.244 34.166,19.708 28.928,19.708 	"/>
	<polygon points="27.619,19.708 22.381,19.708 25,24.244 	"/>
	<polygon points="15.834,19.708 18.453,24.244 21.071,19.708 	"/>
	<polygon points="19.107,24.622 24.345,24.622 21.726,20.086 	"/>
	<polygon points="25.655,24.622 30.892,24.622 28.273,20.086 	"/>
	<polygon points="27.619,8.368 22.381,8.368 25,12.904 	"/>
	<polygon points="21.726,8.746 19.107,13.282 24.345,13.282 	"/>
	<polygon points="30.892,13.282 28.273,8.746 25.655,13.282 	"/>
	<polygon points="28.273,29.914 30.892,25.378 25.655,25.378 	"/>
	<polygon points="19.107,25.378 21.726,29.914 24.345,25.378 	"/>
	<polygon points="22.381,30.292 27.619,30.292 25,25.756 	"/>
	<polygon points="25,35.584 27.619,31.048 22.381,31.048 	"/>
	<polygon points="22.381,41.632 27.619,41.632 25,37.096 	"/>
</g>
</svg>
