<?xml version="1.0" encoding="utf-8"?>
<!-- Generator: Adobe Illustrator 16.0.0, SVG Export Plug-In . SVG Version: 6.00 Build 0)  -->
<!DOCTYPE svg PUBLIC "-//W3C//DTD SVG 1.1//EN" "http://www.w3.org/Graphics/SVG/1.1/DTD/svg11.dtd">
<svg version="1.1" id="Layer_1" xmlns="http://www.w3.org/2000/svg" xmlns:xlink="http://www.w3.org/1999/xlink" x="0px" y="0px"
	 width="50px" height="50px" viewBox="0 0 50 50" enable-background="new 0 0 50 50" xml:space="preserve">
<g>
	<polygon points="27.613,19.531 22.387,19.531 25,24.057 	"/>
	<polygon points="21.733,19.908 19.121,24.434 24.347,24.434 	"/>
	<polygon points="30.879,24.434 28.267,19.908 25.653,24.434 	"/>
	<polygon points="37.413,25.188 32.187,25.188 34.8,29.715 	"/>
	<polygon points="38.72,25.188 41.333,29.715 43.946,25.188 	"/>
	<polygon points="30.879,25.188 25.653,25.188 28.267,29.715 	"/>
	<polygon points="24.347,25.188 19.121,25.188 21.733,29.715 	"/>
	<polygon points="17.813,25.188 12.587,25.188 15.2,29.715 	"/>
	<polygon points="6.054,25.188 8.667,29.715 11.28,25.188 	"/>
	<polygon points="14.547,30.092 11.934,25.566 9.321,30.092 	"/>
	<polygon points="21.08,30.092 18.467,25.566 15.854,30.092 	"/>
	<polygon points="22.387,30.092 27.613,30.092 25,25.566 	"/>
	<polygon points="34.146,30.092 31.533,25.566 28.92,30.092 	"/>
	<polygon points="35.453,30.092 40.679,30.092 38.066,25.566 	"/>
	<polygon points="25,14.25 22.387,18.776 27.613,18.776 	"/>
	<polygon points="38.066,35.373 40.679,30.847 35.453,30.847 	"/>
	<polygon points="28.92,30.847 31.533,35.373 34.146,30.847 	"/>
	<polygon points="22.387,30.847 25,35.373 27.613,30.847 	"/>
	<polygon points="15.854,30.847 18.467,35.373 21.08,30.847 	"/>
	<polygon points="9.321,30.847 11.934,35.373 14.547,30.847 	"/>
	<polygon points="12.587,35.75 17.813,35.75 15.2,31.224 	"/>
	<polygon points="19.121,35.75 24.347,35.75 21.733,31.224 	"/>
	<polygon points="25.653,35.75 30.879,35.75 28.267,31.224 	"/>
	<polygon points="32.187,35.75 37.413,35.75 34.8,31.224 	"/>
</g>
</svg>
