<?xml version="1.0" encoding="utf-8"?>
<!-- Generator: Adobe Illustrator 16.0.0, SVG Export Plug-In . SVG Version: 6.00 Build 0)  -->
<!DOCTYPE svg PUBLIC "-//W3C//DTD SVG 1.1//EN" "http://www.w3.org/Graphics/SVG/1.1/DTD/svg11.dtd">
<svg version="1.1" id="Layer_1" xmlns="http://www.w3.org/2000/svg" xmlns:xlink="http://www.w3.org/1999/xlink" x="0px" y="0px"
	 width="50px" height="50px" viewBox="0 0 50 50" enable-background="new 0 0 50 50" xml:space="preserve">
<g>
	<polygon points="18.5,12.009 24.5,15.474 24.5,8.546 	"/>
	<polygon points="25.5,8.546 25.5,15.474 31.5,12.009 	"/>
	<polygon points="18,12.876 18,19.804 24,16.339 	"/>
	<polygon points="10.5,17.206 10.5,24.134 16.5,20.669 	"/>
	<polygon points="10.5,25.866 10.5,32.794 16.5,29.329 	"/>
	<polygon points="10.5,34.526 10.5,41.454 16.5,37.989 	"/>
	<polygon points="11,33.659 17,37.124 17,30.196 	"/>
	<polygon points="11,24.999 17,28.464 17,21.536 	"/>
	<polygon points="11,16.339 17,19.804 17,12.876 	"/>
	<polygon points="18,21.536 18,28.464 24,24.999 	"/>
	<polygon points="18,30.196 18,37.124 24,33.659 	"/>
	<polygon points="18.5,37.989 24.5,41.454 24.5,34.526 	"/>
	<polygon points="18.5,29.329 24.5,32.794 24.5,25.866 	"/>
	<polygon points="18.5,20.669 24.5,24.134 24.5,17.206 	"/>
	<polygon points="3.5,20.669 9.5,24.134 9.5,17.206 	"/>
	<polygon points="25.5,17.206 25.5,24.134 31.5,20.669 	"/>
	<polygon points="25.5,25.866 25.5,32.794 31.5,29.329 	"/>
	<polygon points="25.5,34.526 25.5,41.454 31.5,37.989 	"/>
	<polygon points="26,33.659 32,37.124 32,30.196 	"/>
	<polygon points="26,24.999 32,28.464 32,21.536 	"/>
	<polygon points="26,16.339 32,19.804 32,12.876 	"/>
	<polygon points="33,12.876 33,19.804 39,16.339 	"/>
	<polygon points="33,21.536 33,28.464 39,24.999 	"/>
	<polygon points="33,30.196 33,37.124 39,33.659 	"/>
	<polygon points="33.5,37.989 39.5,41.454 39.5,34.526 	"/>
	<polygon points="33.5,29.329 39.5,32.794 39.5,25.866 	"/>
	<polygon points="33.5,20.669 39.5,24.134 39.5,17.206 	"/>
	<polygon points="40.5,17.206 40.5,24.134 46.5,20.669 	"/>
</g>
</svg>
