<?xml version="1.0" encoding="utf-8"?>
<!-- Generator: Adobe Illustrator 16.0.0, SVG Export Plug-In . SVG Version: 6.00 Build 0)  -->
<!DOCTYPE svg PUBLIC "-//W3C//DTD SVG 1.1//EN" "http://www.w3.org/Graphics/SVG/1.1/DTD/svg11.dtd">
<svg version="1.1" id="Layer_1" xmlns="http://www.w3.org/2000/svg" xmlns:xlink="http://www.w3.org/1999/xlink" x="0px" y="0px"
	 width="50px" height="50px" viewBox="0 0 50 50" enable-background="new 0 0 50 50" xml:space="preserve">
<g>
	<polygon points="34.066,16.451 36.483,12.264 31.649,12.264 	"/>
	<polygon points="25.604,12.264 28.022,16.451 30.439,12.264 	"/>
	<polygon points="24.396,12.264 19.561,12.264 21.978,16.451 	"/>
	<polygon points="18.351,12.264 13.517,12.264 15.934,16.451 	"/>
	<polygon points="18.956,12.612 16.539,16.8 21.373,16.8 	"/>
	<polygon points="25,12.612 22.583,16.8 27.417,16.8 	"/>
	<polygon points="31.044,12.612 28.627,16.8 33.461,16.8 	"/>
	<polygon points="28.627,17.497 31.044,21.685 33.461,17.497 	"/>
	<polygon points="16.539,17.497 18.956,21.685 21.373,17.497 	"/>
	<polygon points="15.934,17.847 13.517,22.034 18.351,22.034 	"/>
	<polygon points="19.561,22.034 24.396,22.034 21.978,17.847 	"/>
	<polygon points="28.022,17.847 25.604,22.034 30.439,22.034 	"/>
	<polygon points="31.649,22.034 36.483,22.034 34.066,17.847 	"/>
	<polygon points="33.461,7.028 28.627,7.028 31.044,11.216 	"/>
	<polygon points="27.417,7.028 22.583,7.028 25,11.216 	"/>
	<polygon points="21.373,7.028 16.539,7.028 18.956,11.216 	"/>
	<polygon points="15.934,7.377 13.517,11.565 18.351,11.565 	"/>
	<polygon points="24.396,11.565 21.978,7.377 19.561,11.565 	"/>
	<polygon points="30.439,11.565 28.022,7.377 25.604,11.565 	"/>
	<polygon points="36.483,11.565 34.066,7.377 31.649,11.565 	"/>
	<polygon points="34.066,26.92 36.483,22.732 31.649,22.732 	"/>
	<polygon points="25.604,22.732 28.022,26.92 30.439,22.732 	"/>
	<polygon points="21.978,26.92 24.396,22.732 19.561,22.732 	"/>
	<polygon points="18.351,22.732 13.517,22.732 15.934,26.92 	"/>
	<polygon points="18.956,23.081 16.539,27.269 21.373,27.269 	"/>
	<polygon points="31.044,23.081 28.627,27.269 33.461,27.269 	"/>
	<polygon points="28.627,27.966 31.044,32.153 33.461,27.966 	"/>
	<polygon points="16.539,27.966 18.956,32.153 21.373,27.966 	"/>
	<polygon points="15.934,28.315 13.517,32.503 18.351,32.503 	"/>
	<polygon points="19.561,32.503 24.396,32.503 21.978,28.315 	"/>
	<polygon points="30.439,32.503 28.022,28.315 25.604,32.503 	"/>
	<polygon points="31.649,32.503 36.483,32.503 34.066,28.315 	"/>
	<polygon points="34.066,37.389 36.483,33.201 31.649,33.201 	"/>
	<polygon points="30.439,33.201 25.604,33.201 28.022,37.389 	"/>
	<polygon points="21.978,37.389 24.396,33.201 19.561,33.201 	"/>
	<polygon points="18.351,33.201 13.517,33.201 15.934,37.389 	"/>
	<polygon points="21.373,37.737 18.956,33.55 16.539,37.737 	"/>
	<polygon points="31.044,33.55 28.627,37.737 33.461,37.737 	"/>
	<polygon points="28.627,38.435 31.044,42.623 33.461,38.435 	"/>
	<polygon points="16.539,38.435 18.956,42.623 21.373,38.435 	"/>
	<polygon points="13.517,42.972 18.351,42.972 15.934,38.784 	"/>
	<polygon points="19.561,42.972 24.396,42.972 21.978,38.784 	"/>
	<polygon points="25.604,42.972 30.439,42.972 28.022,38.784 	"/>
	<polygon points="31.649,42.972 36.483,42.972 34.066,38.784 	"/>
</g>
</svg>
