<?xml version="1.0" encoding="utf-8"?>
<!-- Generator: Adobe Illustrator 16.0.0, SVG Export Plug-In . SVG Version: 6.00 Build 0)  -->
<!DOCTYPE svg PUBLIC "-//W3C//DTD SVG 1.1//EN" "http://www.w3.org/Graphics/SVG/1.1/DTD/svg11.dtd">
<svg version="1.1" id="Layer_1" xmlns="http://www.w3.org/2000/svg" xmlns:xlink="http://www.w3.org/1999/xlink" x="0px" y="0px"
	 width="50px" height="50px" viewBox="0 0 50 50" enable-background="new 0 0 50 50" xml:space="preserve">
<g>
	<polygon points="36.67,14.172 31.669,11.284 31.669,17.059 	"/>
	<polygon points="30.835,17.059 30.835,11.284 25.834,14.172 	"/>
	<polygon points="24.167,14.172 19.165,11.284 19.165,17.059 	"/>
	<polygon points="24.167,28.609 19.165,25.723 19.165,31.497 	"/>
	<polygon points="18.331,31.497 18.331,25.723 13.33,28.609 	"/>
	<polygon points="18.331,17.059 18.331,11.284 13.33,14.172 	"/>
	<polygon points="36.67,35.828 31.669,32.941 31.669,38.716 	"/>
	<polygon points="30.835,38.716 30.835,32.941 25.834,35.828 	"/>
	<polygon points="30.418,10.563 25.417,7.675 25.417,13.449 	"/>
	<polygon points="30.418,39.438 25.417,36.551 25.417,42.325 	"/>
	<polygon points="24.583,42.325 24.583,36.551 19.582,39.438 	"/>
	<polygon points="36.67,28.609 31.669,25.722 31.669,31.497 	"/>
	<polygon points="30.835,31.497 30.835,25.722 25.834,28.609 	"/>
	<polygon points="37.087,35.106 37.087,29.331 32.086,32.219 	"/>
	<polygon points="37.087,20.668 37.087,14.894 32.086,17.781 	"/>
	<polygon points="36.67,21.391 31.669,18.503 31.669,24.277 	"/>
	<polygon points="30.835,24.277 30.835,18.503 25.834,21.391 	"/>
	<polygon points="30.418,25 25.417,22.112 25.417,27.888 	"/>
	<polygon points="42.922,17.781 37.921,14.894 37.921,20.668 	"/>
	<polygon points="42.922,32.219 37.921,29.331 37.921,35.106 	"/>
	<polygon points="24.583,27.888 24.583,22.112 19.582,25 	"/>
	<polygon points="24.583,13.449 24.583,7.675 19.582,10.563 	"/>
	<polygon points="24.167,21.391 19.165,18.504 19.165,24.277 	"/>
	<polygon points="24.167,35.828 19.165,32.941 19.165,38.716 	"/>
	<polygon points="18.331,38.716 18.331,32.941 13.33,35.828 	"/>
	<polygon points="18.331,24.277 18.331,18.504 13.33,21.391 	"/>
	<polygon points="17.915,17.781 12.913,14.894 12.913,20.668 	"/>
	<polygon points="17.915,32.219 12.913,29.332 12.913,35.106 	"/>
	<polygon points="12.08,35.106 12.08,29.332 7.078,32.219 	"/>
	<polygon points="12.08,20.668 12.08,14.894 7.078,17.781 	"/>
</g>
</svg>
