<?xml version="1.0" encoding="utf-8"?>
<!-- Generator: Adobe Illustrator 16.0.0, SVG Export Plug-In . SVG Version: 6.00 Build 0)  -->
<!DOCTYPE svg PUBLIC "-//W3C//DTD SVG 1.1//EN" "http://www.w3.org/Graphics/SVG/1.1/DTD/svg11.dtd">
<svg version="1.1" id="Layer_1" xmlns="http://www.w3.org/2000/svg" xmlns:xlink="http://www.w3.org/1999/xlink" x="0px" y="0px"
	 width="50px" height="50px" viewBox="0 0 50 50" enable-background="new 0 0 50 50" xml:space="preserve">
<g>
	<polygon points="33.711,28.122 30.106,30.203 33.711,32.284 	"/>
	<polygon points="30.106,25 33.711,27.081 33.711,22.919 	"/>
	<polygon points="33.711,21.878 33.711,17.716 30.106,19.797 	"/>
	<polygon points="33.411,17.196 29.806,15.115 29.806,19.277 	"/>
	<polygon points="29.806,20.318 29.806,24.479 33.411,22.398 	"/>
	<polygon points="33.411,27.602 29.806,25.521 29.806,29.683 	"/>
	<polygon points="29.806,34.885 33.411,32.805 29.806,30.723 	"/>
	<polygon points="29.205,30.723 25.601,32.805 29.205,34.885 	"/>
	<polygon points="25.601,27.602 29.205,29.683 29.205,25.521 	"/>
	<polygon points="25.601,22.398 29.205,24.479 29.205,20.318 	"/>
	<polygon points="29.205,19.277 29.205,15.115 25.601,17.196 	"/>
	<polygon points="25.3,17.716 25.3,21.878 28.905,19.797 	"/>
	<polygon points="25.3,22.919 25.3,27.081 28.905,25 	"/>
	<polygon points="28.905,30.203 25.3,28.122 25.3,32.284 	"/>
	<polygon points="42.723,27.081 42.723,22.919 39.118,25 	"/>
	<polygon points="42.422,22.398 38.818,20.318 38.818,24.479 	"/>
	<polygon points="38.818,29.683 42.422,27.602 38.818,25.521 	"/>
	<polygon points="38.217,25.521 34.612,27.602 38.217,29.683 	"/>
	<polygon points="37.917,19.797 34.312,17.716 34.312,21.878 	"/>
	<polygon points="34.312,22.919 34.312,27.081 37.917,25 	"/>
	<polygon points="34.312,32.284 37.917,30.203 34.312,28.122 	"/>
	<polygon points="24.699,28.122 21.095,30.203 24.699,32.284 	"/>
	<polygon points="24.699,27.081 24.699,22.919 21.095,25 	"/>
	<polygon points="21.095,19.797 24.699,21.878 24.699,17.716 	"/>
	<polygon points="20.794,20.318 20.794,24.479 24.399,22.398 	"/>
	<polygon points="24.399,27.602 20.794,25.521 20.794,29.683 	"/>
	<polygon points="20.193,29.683 20.193,25.521 16.589,27.602 	"/>
	<polygon points="20.193,24.479 20.193,20.318 16.589,22.398 	"/>
	<polygon points="19.894,19.797 16.289,17.716 16.289,21.878 	"/>
	<polygon points="19.894,25 16.289,22.919 16.289,27.081 	"/>
	<polygon points="16.289,28.122 16.289,32.284 19.894,30.203 	"/>
	<polygon points="15.688,32.284 15.688,28.122 12.083,30.203 	"/>
	<polygon points="12.083,19.797 15.688,21.878 15.688,17.716 	"/>
	<polygon points="15.388,17.196 11.783,15.115 11.783,19.277 	"/>
	<polygon points="11.783,20.318 11.783,24.479 15.388,22.398 	"/>
	<polygon points="15.388,27.602 11.783,25.521 11.783,29.683 	"/>
	<polygon points="15.388,32.805 11.783,30.723 11.783,34.885 	"/>
	<polygon points="11.182,30.723 7.577,32.805 11.182,34.885 	"/>
	<polygon points="11.182,15.115 7.577,17.196 11.182,19.277 	"/>
	<polygon points="7.277,12.513 7.277,16.675 10.881,14.594 	"/>
	<polygon points="7.277,17.716 7.277,21.878 10.881,19.797 	"/>
	<polygon points="7.277,28.122 7.277,32.284 10.881,30.203 	"/>
	<polygon points="10.881,35.406 7.277,33.325 7.277,37.487 	"/>
</g>
</svg>
