<?xml version="1.0" encoding="utf-8"?>
<!-- Generator: Adobe Illustrator 16.0.0, SVG Export Plug-In . SVG Version: 6.00 Build 0)  -->
<!DOCTYPE svg PUBLIC "-//W3C//DTD SVG 1.1//EN" "http://www.w3.org/Graphics/SVG/1.1/DTD/svg11.dtd">
<svg version="1.1" id="Layer_1" xmlns="http://www.w3.org/2000/svg" xmlns:xlink="http://www.w3.org/1999/xlink" x="0px" y="0px"
	 width="50px" height="50px" viewBox="0 0 50 50" enable-background="new 0 0 50 50" xml:space="preserve">
<g>
	<polygon points="32.649,15.851 28.278,15.851 30.465,19.637 	"/>
	<polygon points="25.001,19.637 27.186,15.851 22.814,15.851 	"/>
	<polygon points="21.722,15.851 17.351,15.851 19.536,19.637 	"/>
	<polygon points="16.805,16.166 14.618,19.952 18.989,19.952 	"/>
	<polygon points="20.083,19.952 24.453,19.952 22.269,16.166 	"/>
	<polygon points="27.732,16.166 25.547,19.952 29.917,19.952 	"/>
	<polygon points="35.382,19.952 33.197,16.166 31.011,19.952 	"/>
	<polygon points="35.382,20.583 31.011,20.583 33.197,24.369 	"/>
	<polygon points="29.917,20.583 25.547,20.583 27.732,24.369 	"/>
	<polygon points="22.269,24.369 24.453,20.583 20.083,20.583 	"/>
	<polygon points="18.989,20.583 14.618,20.583 16.805,24.369 	"/>
	<polygon points="14.072,20.898 11.887,24.685 16.257,24.685 	"/>
	<polygon points="17.351,24.685 21.722,24.685 19.536,20.898 	"/>
	<polygon points="30.465,20.898 28.278,24.685 32.649,24.685 	"/>
	<polygon points="38.113,24.685 35.929,20.898 33.743,24.685 	"/>
	<polygon points="27.186,6.387 22.814,6.387 25.001,10.172 	"/>
	<polygon points="22.269,6.702 20.083,10.488 24.453,10.488 	"/>
	<polygon points="29.917,10.488 27.732,6.702 25.547,10.488 	"/>
	<polygon points="25.547,11.119 27.732,14.904 29.917,11.119 	"/>
	<polygon points="24.453,11.119 20.083,11.119 22.269,14.904 	"/>
	<polygon points="19.536,11.435 17.351,15.22 21.722,15.22 	"/>
	<polygon points="32.649,15.22 30.465,11.435 28.278,15.22 	"/>
	<polygon points="32.649,25.314 28.278,25.314 30.465,29.101 	"/>
	<polygon points="27.186,25.314 22.814,25.314 25.001,29.101 	"/>
	<polygon points="19.536,29.101 21.722,25.314 17.351,25.314 	"/>
	<polygon points="16.805,25.631 14.618,29.416 18.989,29.416 	"/>
	<polygon points="20.083,29.416 24.453,29.416 22.269,25.631 	"/>
	<polygon points="27.732,25.631 25.547,29.416 29.917,29.416 	"/>
	<polygon points="31.011,29.416 35.382,29.416 33.197,25.631 	"/>
	<polygon points="29.917,30.047 25.547,30.047 27.732,33.832 	"/>
	<polygon points="24.453,30.047 20.083,30.047 22.269,33.832 	"/>
	<polygon points="21.722,34.148 19.536,30.362 17.351,34.148 	"/>
	<polygon points="28.278,34.148 32.649,34.148 30.465,30.362 	"/>
	<polygon points="27.186,34.779 22.814,34.779 25.001,38.564 	"/>
	<polygon points="25.547,39.512 27.732,43.297 29.917,39.512 	"/>
	<polygon points="20.083,39.512 22.269,43.297 24.453,39.512 	"/>
	<polygon points="17.351,43.612 21.722,43.612 19.536,39.827 	"/>
	<polygon points="22.814,43.612 27.186,43.612 25.001,39.827 	"/>
	<polygon points="28.278,43.612 32.649,43.612 30.465,39.827 	"/>
</g>
</svg>
