<?xml version="1.0" encoding="utf-8"?>
<!-- Generator: Adobe Illustrator 16.0.0, SVG Export Plug-In . SVG Version: 6.00 Build 0)  -->
<!DOCTYPE svg PUBLIC "-//W3C//DTD SVG 1.1//EN" "http://www.w3.org/Graphics/SVG/1.1/DTD/svg11.dtd">
<svg version="1.1" id="Layer_1" xmlns="http://www.w3.org/2000/svg" xmlns:xlink="http://www.w3.org/1999/xlink" x="0px" y="0px"
	 width="50px" height="50px" viewBox="0 0 50 50" enable-background="new 0 0 50 50" xml:space="preserve">
<g>
	<polygon points="27.991,18.954 22.009,18.954 25,24.137 	"/>
	<polygon points="18.269,24.568 24.252,24.568 21.261,19.387 	"/>
	<polygon points="28.739,19.387 25.748,24.568 31.731,24.568 	"/>
	<polygon points="31.731,25.432 25.748,25.432 28.739,30.613 	"/>
	<polygon points="21.261,30.613 24.252,25.432 18.269,25.432 	"/>
	<polygon points="25,25.863 22.009,31.046 27.991,31.046 	"/>
	<polygon points="28.739,17.659 31.731,12.478 25.748,12.478 	"/>
	<polygon points="24.252,12.478 18.269,12.478 21.261,17.659 	"/>
	<polygon points="17.521,12.909 14.529,18.091 20.513,18.091 	"/>
	<polygon points="35.471,18.091 32.479,12.909 29.487,18.091 	"/>
	<polygon points="16.772,24.568 13.781,19.387 10.79,24.568 	"/>
	<polygon points="39.21,24.568 36.219,19.387 33.228,24.568 	"/>
	<polygon points="33.228,25.432 36.219,30.613 39.21,25.432 	"/>
	<polygon points="10.79,25.432 13.781,30.613 16.772,25.432 	"/>
	<polygon points="32.479,37.091 35.471,31.909 29.487,31.909 	"/>
	<polygon points="14.529,31.909 17.521,37.091 20.513,31.909 	"/>
	<polygon points="21.261,32.341 18.269,37.522 24.252,37.522 	"/>
	<polygon points="25.748,37.522 31.731,37.522 28.739,32.341 	"/>
	<polygon points="10.042,12.909 7.05,18.091 13.033,18.091 	"/>
	<polygon points="39.958,12.909 36.967,18.091 42.95,18.091 	"/>
	<polygon points="27.991,6 22.009,6 25,11.182 	"/>
	<polygon points="39.958,37.091 42.95,31.909 36.967,31.909 	"/>
	<polygon points="10.042,37.091 13.033,31.909 7.05,31.909 	"/>
	<polygon points="22.009,44 27.991,44 25,38.818 	"/>
</g>
</svg>
