<?xml version="1.0" encoding="utf-8"?>
<!-- Generator: Adobe Illustrator 16.0.0, SVG Export Plug-In . SVG Version: 6.00 Build 0)  -->
<!DOCTYPE svg PUBLIC "-//W3C//DTD SVG 1.1//EN" "http://www.w3.org/Graphics/SVG/1.1/DTD/svg11.dtd">
<svg version="1.1" id="Layer_1" xmlns="http://www.w3.org/2000/svg" xmlns:xlink="http://www.w3.org/1999/xlink" x="0px" y="0px"
	 width="50px" height="50px" viewBox="0 0 50 50" enable-background="new 0 0 50 50" xml:space="preserve">
<g>
	<polygon points="37.124,10.5 30.196,10.5 33.66,16.5 	"/>
	<polygon points="28.464,10.5 21.536,10.5 25,16.5 	"/>
	<polygon points="19.804,10.5 12.876,10.5 16.34,16.5 	"/>
	<polygon points="20.67,11 17.206,17 24.134,17 	"/>
	<polygon points="29.33,11 25.866,17 32.794,17 	"/>
	<polygon points="32.794,18 25.866,18 29.33,24 	"/>
	<polygon points="24.134,18 17.206,18 20.67,24 	"/>
	<polygon points="25,18.5 21.536,24.5 28.464,24.5 	"/>
	<polygon points="28.464,25.5 21.536,25.5 25,31.5 	"/>
	<polygon points="25,33.5 21.536,39.5 28.464,39.5 	"/>
</g>
</svg>
