<?xml version="1.0" encoding="utf-8"?>
<!-- Generator: Adobe Illustrator 16.0.0, SVG Export Plug-In . SVG Version: 6.00 Build 0)  -->
<!DOCTYPE svg PUBLIC "-//W3C//DTD SVG 1.1//EN" "http://www.w3.org/Graphics/SVG/1.1/DTD/svg11.dtd">
<svg version="1.1" id="Layer_1" xmlns="http://www.w3.org/2000/svg" xmlns:xlink="http://www.w3.org/1999/xlink" x="0px" y="0px"
	 width="50px" height="50px" viewBox="0 0 50 50" enable-background="new 0 0 50 50" xml:space="preserve">
<g>
	<polygon points="41.566,16.433 36.044,16.433 38.806,21.215 	"/>
	<polygon points="34.663,16.433 29.142,16.433 31.902,21.215 	"/>
	<polygon points="27.761,16.433 22.239,16.433 25,21.215 	"/>
	<polygon points="20.858,16.433 15.337,16.433 18.098,21.215 	"/>
	<polygon points="13.956,16.433 8.434,16.433 11.195,21.215 	"/>
	<polygon points="14.646,16.831 11.886,21.613 17.407,21.613 	"/>
	<polygon points="21.549,16.831 18.788,21.613 24.31,21.613 	"/>
	<polygon points="28.451,16.831 25.69,21.613 31.212,21.613 	"/>
	<polygon points="35.354,16.831 32.593,21.613 38.114,21.613 	"/>
	<polygon points="38.114,22.41 32.593,22.41 35.354,27.192 	"/>
	<polygon points="31.212,22.41 25.69,22.41 28.451,27.192 	"/>
	<polygon points="24.31,22.41 18.788,22.41 21.549,27.192 	"/>
	<polygon points="17.407,22.41 11.886,22.41 14.646,27.192 	"/>
	<polygon points="25,22.809 22.239,27.591 27.761,27.591 	"/>
	<polygon points="14.646,4.875 11.886,9.657 17.407,9.657 	"/>
	<polygon points="35.354,4.875 32.593,9.657 38.114,9.657 	"/>
	<polygon points="38.114,10.454 32.593,10.454 35.354,15.236 	"/>
	<polygon points="17.407,10.454 11.886,10.454 14.646,15.236 	"/>
	<polygon points="11.195,10.853 8.434,15.635 13.956,15.635 	"/>
	<polygon points="18.098,10.853 15.337,15.635 20.858,15.635 	"/>
	<polygon points="31.902,10.853 29.142,15.635 34.663,15.635 	"/>
	<polygon points="38.806,10.853 36.044,15.635 41.566,15.635 	"/>
	<polygon points="34.663,28.388 29.142,28.388 31.902,33.17 	"/>
	<polygon points="20.858,28.388 15.337,28.388 18.098,33.17 	"/>
	<polygon points="21.549,28.786 18.788,33.568 24.31,33.568 	"/>
	<polygon points="28.451,28.786 25.69,33.568 31.212,33.568 	"/>
	<polygon points="31.212,34.366 25.69,34.366 28.451,39.148 	"/>
	<polygon points="24.31,34.366 18.788,34.366 21.549,39.148 	"/>
	<polygon points="25,34.765 22.239,39.547 27.761,39.547 	"/>
	<polygon points="27.761,40.344 22.239,40.344 25,45.126 	"/>
</g>
</svg>
