<?xml version="1.0" encoding="utf-8"?>
<!-- Generator: Adobe Illustrator 16.0.0, SVG Export Plug-In . SVG Version: 6.00 Build 0)  -->
<!DOCTYPE svg PUBLIC "-//W3C//DTD SVG 1.1//EN" "http://www.w3.org/Graphics/SVG/1.1/DTD/svg11.dtd">
<svg version="1.1" id="Layer_1" xmlns="http://www.w3.org/2000/svg" xmlns:xlink="http://www.w3.org/1999/xlink" x="0px" y="0px"
	 width="50px" height="50px" viewBox="0 0 50 50" enable-background="new 0 0 50 50" xml:space="preserve">
<g>
	<polygon points="14.733,13.306 10.295,13.306 12.515,17.15 	"/>
	<polygon points="15.289,13.626 13.069,17.471 17.509,17.471 	"/>
	<polygon points="17.509,18.111 13.069,18.111 15.289,21.956 	"/>
	<polygon points="18.063,18.432 15.844,22.276 20.283,22.276 	"/>
	<polygon points="11.959,8.5 7.521,8.5 9.739,12.345 	"/>
	<polygon points="6.965,8.82 4.745,12.665 9.185,12.665 	"/>
	<polygon points="12.515,8.82 10.295,12.665 14.733,12.665 	"/>
	<polygon points="36.931,22.918 32.491,22.918 34.711,26.762 	"/>
	<polygon points="31.382,22.918 26.942,22.918 29.162,26.762 	"/>
	<polygon points="25.832,22.918 21.394,22.918 23.612,26.762 	"/>
	<polygon points="20.283,22.918 15.844,22.918 18.063,26.762 	"/>
	<polygon points="20.838,23.238 18.618,27.082 23.058,27.082 	"/>
	<polygon points="26.388,23.238 24.168,27.082 28.606,27.082 	"/>
	<polygon points="31.937,23.238 29.717,27.082 34.156,27.082 	"/>
	<polygon points="37.485,23.238 35.267,27.082 39.705,27.082 	"/>
	<polygon points="34.156,27.724 29.717,27.724 31.937,31.568 	"/>
	<polygon points="39.705,27.724 35.267,27.724 37.485,31.568 	"/>
	<polygon points="28.606,27.724 24.168,27.724 26.388,31.568 	"/>
	<polygon points="23.058,27.724 18.618,27.724 20.838,31.568 	"/>
	<polygon points="23.612,28.044 21.394,31.889 25.832,31.889 	"/>
	<polygon points="29.162,28.044 26.942,31.889 31.382,31.889 	"/>
	<polygon points="34.711,28.044 32.491,31.889 36.931,31.889 	"/>
	<polygon points="36.931,32.529 32.491,32.529 34.711,36.374 	"/>
	<polygon points="25.832,32.529 21.394,32.529 23.612,36.374 	"/>
	<polygon points="20.838,32.85 18.618,36.694 23.058,36.694 	"/>
	<polygon points="31.937,32.85 29.717,36.694 34.156,36.694 	"/>
	<polygon points="34.156,37.335 29.717,37.335 31.937,41.18 	"/>
	<polygon points="45.255,27.724 40.815,27.724 43.035,31.568 	"/>
	<polygon points="23.058,37.335 18.618,37.335 20.838,41.18 	"/>
	<polygon points="34.711,37.655 32.491,41.5 36.931,41.5 	"/>
</g>
</svg>
