<?xml version="1.0" encoding="utf-8"?>
<!-- Generator: Adobe Illustrator 16.0.0, SVG Export Plug-In . SVG Version: 6.00 Build 0)  -->
<!DOCTYPE svg PUBLIC "-//W3C//DTD SVG 1.1//EN" "http://www.w3.org/Graphics/SVG/1.1/DTD/svg11.dtd">
<svg version="1.1" id="Layer_1" xmlns="http://www.w3.org/2000/svg" xmlns:xlink="http://www.w3.org/1999/xlink" x="0px" y="0px"
	 width="50px" height="50px" viewBox="0 0 50 50" enable-background="new 0 0 50 50" xml:space="preserve">
<g>
	<polygon points="6.894,22.15 6.894,27.852 11.832,25 	"/>
	<polygon points="13.479,25 18.416,27.852 18.414,22.15 	"/>
	<polygon points="31.583,22.15 31.583,27.852 36.521,25 	"/>
	<polygon points="38.167,25 43.105,27.852 43.105,22.15 	"/>
	<polygon points="13.479,39.255 18.416,42.106 18.416,36.405 	"/>
	<polygon points="19.238,34.979 24.178,32.128 19.238,29.277 	"/>
	<polygon points="25.822,17.873 30.761,20.724 30.761,15.021 	"/>
	<polygon points="31.583,13.596 36.521,10.745 31.584,7.894 	"/>
	<polygon points="31.583,42.106 36.521,39.255 31.583,36.405 	"/>
	<polygon points="30.761,34.979 30.761,29.276 25.822,32.128 	"/>
	<polygon points="19.238,20.723 24.176,17.873 19.238,15.021 	"/>
	<polygon points="18.414,13.596 18.414,7.894 13.478,10.745 	"/>
</g>
</svg>
