<?xml version="1.0" encoding="utf-8"?>
<!-- Generator: Adobe Illustrator 16.0.0, SVG Export Plug-In . SVG Version: 6.00 Build 0)  -->
<!DOCTYPE svg PUBLIC "-//W3C//DTD SVG 1.1//EN" "http://www.w3.org/Graphics/SVG/1.1/DTD/svg11.dtd">
<svg version="1.1" id="Layer_1" xmlns="http://www.w3.org/2000/svg" xmlns:xlink="http://www.w3.org/1999/xlink" x="0px" y="0px"
	 width="50px" height="50px" viewBox="0 0 50 50" enable-background="new 0 0 50 50" xml:space="preserve">
<g>
	<polygon points="25,14.807 22.478,19.176 27.522,19.176 	"/>
	<polygon points="25,35.193 27.522,30.824 22.478,30.824 	"/>
	<polygon points="31.936,14.442 34.458,18.812 36.98,14.442 	"/>
	<polygon points="18.064,14.442 13.02,14.442 15.542,18.812 	"/>
	<polygon points="12.39,14.807 9.868,19.176 14.912,19.176 	"/>
	<polygon points="40.132,19.176 37.61,14.807 35.088,19.176 	"/>
	<polygon points="37.61,24.271 40.132,19.903 35.088,19.903 	"/>
	<polygon points="25,24.271 27.522,19.903 22.478,19.903 	"/>
	<polygon points="14.912,19.903 9.868,19.903 12.39,24.271 	"/>
	<polygon points="9.237,20.268 6.715,24.636 11.759,24.636 	"/>
	<polygon points="19.326,24.636 24.37,24.636 21.848,20.268 	"/>
	<polygon points="28.152,20.268 25.63,24.636 30.674,24.636 	"/>
	<polygon points="43.285,24.636 40.763,20.268 38.241,24.636 	"/>
	<polygon points="33.827,8.982 28.783,8.982 31.305,13.351 	"/>
	<polygon points="27.522,8.982 22.478,8.982 25,13.351 	"/>
	<polygon points="21.217,8.982 16.173,8.982 18.695,13.351 	"/>
	<polygon points="15.542,9.347 13.02,13.715 18.064,13.715 	"/>
	<polygon points="24.37,13.715 21.848,9.347 19.326,13.715 	"/>
	<polygon points="30.674,13.715 28.152,9.347 25.63,13.715 	"/>
	<polygon points="36.98,13.715 34.458,9.347 31.936,13.715 	"/>
	<polygon points="30.674,25.364 25.63,25.364 28.152,29.732 	"/>
	<polygon points="21.848,29.732 24.37,25.364 19.326,25.364 	"/>
	<polygon points="6.715,25.364 9.237,29.732 11.759,25.364 	"/>
	<polygon points="9.868,30.096 14.912,30.096 12.39,25.729 	"/>
	<polygon points="25,25.729 22.478,30.096 27.522,30.096 	"/>
	<polygon points="35.088,30.096 40.132,30.096 37.61,25.729 	"/>
	<polygon points="37.61,35.193 40.132,30.824 35.088,30.824 	"/>
	<polygon points="9.868,30.824 12.39,35.193 14.912,30.824 	"/>
	<polygon points="13.02,35.558 18.064,35.558 15.542,31.188 	"/>
	<polygon points="31.936,35.558 36.98,35.558 34.458,31.188 	"/>
	<polygon points="40.763,29.732 43.285,25.364 38.241,25.364 	"/>
	<polygon points="34.458,40.653 36.98,36.285 31.936,36.285 	"/>
	<polygon points="25.63,36.285 28.152,40.653 30.674,36.285 	"/>
	<polygon points="19.326,36.285 21.848,40.653 24.37,36.285 	"/>
	<polygon points="13.02,36.285 15.542,40.653 18.064,36.285 	"/>
	<polygon points="16.173,41.018 21.217,41.018 18.695,36.649 	"/>
	<polygon points="22.478,41.018 27.522,41.018 25,36.649 	"/>
	<polygon points="28.783,41.018 33.827,41.018 31.305,36.649 	"/>
</g>
</svg>
