<?xml version="1.0" encoding="utf-8"?>
<!-- Generator: Adobe Illustrator 16.0.0, SVG Export Plug-In . SVG Version: 6.00 Build 0)  -->
<!DOCTYPE svg PUBLIC "-//W3C//DTD SVG 1.1//EN" "http://www.w3.org/Graphics/SVG/1.1/DTD/svg11.dtd">
<svg version="1.1" id="Layer_1" xmlns="http://www.w3.org/2000/svg" xmlns:xlink="http://www.w3.org/1999/xlink" x="0px" y="0px"
	 width="50px" height="50px" viewBox="0 0 50 50" enable-background="new 0 0 50 50" xml:space="preserve">
<g>
	<polygon points="38.605,10.314 29.141,10.314 33.873,18.511 	"/>
	<polygon points="26.774,10.314 17.31,10.314 22.042,18.511 	"/>
	<polygon points="16.127,10.998 11.395,19.194 20.859,19.194 	"/>
	<polygon points="27.958,10.998 23.226,19.194 32.69,19.194 	"/>
	<polygon points="32.69,20.561 23.226,20.561 27.958,28.757 	"/>
	<polygon points="22.042,21.243 17.31,29.44 26.774,29.44 	"/>
	<polygon points="38.605,30.806 29.141,30.806 33.873,39.003 	"/>
	<polygon points="26.774,30.806 17.31,30.806 22.042,39.003 	"/>
	<polygon points="16.127,31.489 11.395,39.686 20.859,39.686 	"/>
	<polygon points="27.958,31.489 23.226,39.686 32.69,39.686 	"/>
</g>
</svg>
