<?xml version="1.0" encoding="utf-8"?>
<!-- Generator: Adobe Illustrator 16.0.0, SVG Export Plug-In . SVG Version: 6.00 Build 0)  -->
<!DOCTYPE svg PUBLIC "-//W3C//DTD SVG 1.1//EN" "http://www.w3.org/Graphics/SVG/1.1/DTD/svg11.dtd">
<svg version="1.1" id="Layer_1" xmlns="http://www.w3.org/2000/svg" xmlns:xlink="http://www.w3.org/1999/xlink" x="0px" y="0px"
	 width="50px" height="50px" viewBox="0 0 50 50" enable-background="new 0 0 50 50" xml:space="preserve">
<g>
	<polygon points="34.093,8.5 28.897,8.5 31.495,13 	"/>
	<polygon points="27.598,8.5 22.402,8.5 25,13 	"/>
	<polygon points="21.103,8.5 15.907,8.5 18.505,13 	"/>
	<polygon points="15.257,8.875 12.66,13.375 17.855,13.375 	"/>
	<polygon points="21.752,8.875 19.155,13.375 24.35,13.375 	"/>
	<polygon points="28.248,8.875 25.65,13.375 30.845,13.375 	"/>
	<polygon points="34.743,8.875 32.145,13.375 37.34,13.375 	"/>
	<polygon points="40.588,19.75 35.392,19.75 37.99,24.25 	"/>
	<polygon points="14.608,19.75 9.412,19.75 12.01,24.25 	"/>
	<polygon points="8.762,20.125 6.165,24.625 11.36,24.625 	"/>
	<polygon points="41.238,20.125 38.64,24.625 43.835,24.625 	"/>
	<polygon points="34.093,19.75 28.897,19.75 31.495,24.25 	"/>
	<polygon points="27.598,19.75 22.402,19.75 25,24.25 	"/>
	<polygon points="21.103,19.75 15.907,19.75 18.505,24.25 	"/>
	<polygon points="15.257,20.125 12.66,24.625 17.855,24.625 	"/>
	<polygon points="21.752,20.125 19.155,24.625 24.35,24.625 	"/>
	<polygon points="28.248,20.125 25.65,24.625 30.845,24.625 	"/>
	<polygon points="34.743,20.125 32.145,24.625 37.34,24.625 	"/>
	<polygon points="30.845,25.375 25.65,25.375 28.248,29.875 	"/>
	<polygon points="24.35,25.375 19.155,25.375 21.752,29.875 	"/>
	<polygon points="18.505,25.75 15.907,30.25 21.103,30.25 	"/>
	<polygon points="25,25.75 22.402,30.25 27.598,30.25 	"/>
	<polygon points="31.495,25.75 28.897,30.25 34.093,30.25 	"/>
	<polygon points="37.34,14.125 32.145,14.125 34.743,18.625 	"/>
	<polygon points="30.845,14.125 25.65,14.125 28.248,18.625 	"/>
	<polygon points="24.35,14.125 19.155,14.125 21.752,18.625 	"/>
	<polygon points="17.855,14.125 12.66,14.125 15.257,18.625 	"/>
	<polygon points="12.01,14.5 9.412,19 14.608,19 	"/>
	<polygon points="18.505,14.5 15.907,19 21.103,19 	"/>
	<polygon points="25,14.5 22.402,19 27.598,19 	"/>
	<polygon points="31.495,14.5 28.897,19 34.093,19 	"/>
	<polygon points="37.99,14.5 35.392,19 40.588,19 	"/>
	<polygon points="34.093,31 28.897,31 31.495,35.5 	"/>
	<polygon points="27.598,31 22.402,31 25,35.5 	"/>
	<polygon points="21.103,31 15.907,31 18.505,35.5 	"/>
	<polygon points="15.257,31.375 12.66,35.875 17.855,35.875 	"/>
	<polygon points="21.752,31.375 19.155,35.875 24.35,35.875 	"/>
	<polygon points="28.248,31.375 25.65,35.875 30.845,35.875 	"/>
	<polygon points="34.743,31.375 32.145,35.875 37.34,35.875 	"/>
	<polygon points="37.34,36.625 32.145,36.625 34.743,41.125 	"/>
	<polygon points="30.845,36.625 25.65,36.625 28.248,41.125 	"/>
	<polygon points="24.35,36.625 19.155,36.625 21.752,41.125 	"/>
	<polygon points="17.855,36.625 12.66,36.625 15.257,41.125 	"/>
	<polygon points="18.505,37 15.907,41.5 21.103,41.5 	"/>
	<polygon points="25,37 22.402,41.5 27.598,41.5 	"/>
	<polygon points="31.495,37 28.897,41.5 34.093,41.5 	"/>
</g>
</svg>
