<?xml version="1.0" encoding="utf-8"?>
<!-- Generator: Adobe Illustrator 16.0.0, SVG Export Plug-In . SVG Version: 6.00 Build 0)  -->
<!DOCTYPE svg PUBLIC "-//W3C//DTD SVG 1.1//EN" "http://www.w3.org/Graphics/SVG/1.1/DTD/svg11.dtd">
<svg version="1.1" id="Layer_1" xmlns="http://www.w3.org/2000/svg" xmlns:xlink="http://www.w3.org/1999/xlink" x="0px" y="0px"
	 width="50px" height="50px" viewBox="0 0 50 50" enable-background="new 0 0 50 50" xml:space="preserve">
<g>
	<polygon points="21.03,15.375 17.855,20.875 24.206,20.875 	"/>
	<polygon points="32.145,20.875 28.97,15.375 25.794,20.875 	"/>
	<polygon points="13.093,29.125 9.917,34.625 16.268,34.625 	"/>
	<polygon points="40.083,34.625 36.908,29.125 33.732,34.625 	"/>
	<polygon points="32.145,21.792 25.794,21.792 28.97,27.292 	"/>
	<polygon points="24.206,21.792 17.855,21.792 21.03,27.292 	"/>
	<polygon points="17.062,22.25 13.887,27.75 20.236,27.75 	"/>
	<polygon points="21.825,27.75 28.175,27.75 25,22.25 	"/>
	<polygon points="36.113,27.75 32.938,22.25 29.764,27.75 	"/>
	<polygon points="25,8.5 21.825,14 28.175,14 	"/>
	<polygon points="33.732,35.542 36.908,41.042 40.083,35.542 	"/>
	<polygon points="25.794,35.542 28.97,41.042 32.145,35.542 	"/>
	<polygon points="17.855,35.542 21.03,41.042 24.206,35.542 	"/>
	<polygon points="9.917,35.542 13.093,41.042 16.268,35.542 	"/>
	<polygon points="5.948,41.5 12.298,41.5 9.123,36 	"/>
	<polygon points="13.887,41.5 20.236,41.5 17.062,36 	"/>
	<polygon points="21.825,41.5 28.175,41.5 25,36 	"/>
	<polygon points="29.764,41.5 36.113,41.5 32.938,36 	"/>
	<polygon points="40.877,36 37.702,41.5 44.052,41.5 	"/>
</g>
</svg>
