<?xml version="1.0" encoding="utf-8"?>
<!-- Generator: Adobe Illustrator 16.0.0, SVG Export Plug-In . SVG Version: 6.00 Build 0)  -->
<!DOCTYPE svg PUBLIC "-//W3C//DTD SVG 1.1//EN" "http://www.w3.org/Graphics/SVG/1.1/DTD/svg11.dtd">
<svg version="1.1" id="Layer_1" xmlns="http://www.w3.org/2000/svg" xmlns:xlink="http://www.w3.org/1999/xlink" x="0px" y="0px"
	 width="50px" height="50px" viewBox="0 0 50 50" enable-background="new 0 0 50 50" xml:space="preserve">
<g>
	<polygon points="10.5,10.71 10.5,17.638 16.5,14.174 	"/>
	<polygon points="10.5,19.371 10.5,26.298 16.5,22.834 	"/>
	<polygon points="10.5,28.031 10.5,34.958 16.5,31.495 	"/>
	<polygon points="17,39.289 17,32.361 11,35.825 	"/>
	<polygon points="17,30.628 17,23.701 11,27.165 	"/>
	<polygon points="17,21.968 17,15.041 11,18.504 	"/>
	<polygon points="17,13.308 17,6.38 11,9.844 	"/>
	<polygon points="18,6.38 18,13.308 24,9.844 	"/>
	<polygon points="18,15.041 18,21.968 24,18.504 	"/>
	<polygon points="18,23.701 18,30.628 24,27.165 	"/>
	<polygon points="18,32.361 18,39.289 24,35.825 	"/>
	<polygon points="24.5,43.619 24.5,36.691 18.5,40.155 	"/>
	<polygon points="24.5,34.958 24.5,28.031 18.5,31.495 	"/>
	<polygon points="24.5,26.298 24.5,19.371 18.5,22.834 	"/>
	<polygon points="24.5,17.638 24.5,10.71 18.5,14.174 	"/>
	<polygon points="25.5,10.71 25.5,17.638 31.5,14.174 	"/>
	<polygon points="25.5,19.371 25.5,26.298 31.5,22.834 	"/>
	<polygon points="25.5,28.031 25.5,34.958 31.5,31.495 	"/>
	<polygon points="25.5,43.619 31.5,40.155 25.5,36.691 	"/>
	<polygon points="32,39.289 32,32.361 26,35.825 	"/>
	<polygon points="32,30.628 32,23.701 26,27.165 	"/>
	<polygon points="32,21.968 32,15.041 26,18.504 	"/>
	<polygon points="32,13.308 32,6.38 26,9.844 	"/>
	<polygon points="33,6.38 33,13.308 39,9.844 	"/>
	<polygon points="33,15.041 33,21.968 39,18.504 	"/>
	<polygon points="33,23.701 33,30.628 39,27.165 	"/>
	<polygon points="33,39.289 39,35.825 33,32.361 	"/>
	<polygon points="39.5,34.958 39.5,28.031 33.5,31.495 	"/>
	<polygon points="39.5,26.298 39.5,19.371 33.5,22.834 	"/>
	<polygon points="33.5,14.174 39.5,17.638 39.5,10.71 	"/>
</g>
</svg>
