<?xml version="1.0" encoding="utf-8"?>
<!-- Generator: Adobe Illustrator 16.0.0, SVG Export Plug-In . SVG Version: 6.00 Build 0)  -->
<!DOCTYPE svg PUBLIC "-//W3C//DTD SVG 1.1//EN" "http://www.w3.org/Graphics/SVG/1.1/DTD/svg11.dtd">
<svg version="1.1" id="Layer_1" xmlns="http://www.w3.org/2000/svg" xmlns:xlink="http://www.w3.org/1999/xlink" x="0px" y="0px"
	 width="50px" height="50px" viewBox="0 0 50 50" enable-background="new 0 0 50 50" xml:space="preserve">
<g>
	<polygon points="29.845,18.318 25.539,18.318 27.692,22.047 	"/>
	<polygon points="24.462,18.318 20.156,18.318 22.31,22.047 	"/>
	<polygon points="25.001,18.629 22.847,22.358 27.153,22.358 	"/>
	<polygon points="32.537,22.979 28.23,22.979 30.384,26.709 	"/>
	<polygon points="27.153,22.979 22.847,22.979 25.001,26.709 	"/>
	<polygon points="21.771,22.979 17.464,22.979 19.618,26.709 	"/>
	<polygon points="16.926,23.291 14.773,27.021 19.079,27.021 	"/>
	<polygon points="22.31,23.291 20.156,27.021 24.462,27.021 	"/>
	<polygon points="27.692,23.291 25.539,27.021 29.845,27.021 	"/>
	<polygon points="33.076,23.291 30.922,27.021 35.228,27.021 	"/>
	<polygon points="40.611,8.994 36.305,8.994 38.459,12.724 	"/>
	<polygon points="29.845,8.994 25.539,8.994 27.692,12.724 	"/>
	<polygon points="24.462,8.994 20.156,8.994 22.31,12.724 	"/>
	<polygon points="13.696,8.994 9.39,8.994 11.543,12.724 	"/>
	<polygon points="37.919,13.655 33.614,13.655 35.767,17.386 	"/>
	<polygon points="27.153,13.655 22.847,13.655 25.001,17.386 	"/>
	<polygon points="16.387,13.655 12.082,13.655 14.236,17.386 	"/>
	<polygon points="16.926,13.967 14.773,17.696 19.079,17.696 	"/>
	<polygon points="22.31,13.967 20.156,17.696 24.462,17.696 	"/>
	<polygon points="27.692,13.967 25.539,17.696 29.845,17.696 	"/>
	<polygon points="33.076,13.967 30.922,17.696 35.228,17.696 	"/>
	<polygon points="29.845,27.642 25.539,27.642 27.692,31.371 	"/>
	<polygon points="24.462,27.642 20.156,27.642 22.31,31.371 	"/>
	<polygon points="13.696,27.642 9.39,27.642 11.543,31.371 	"/>
	<polygon points="19.618,27.953 17.464,31.682 21.771,31.682 	"/>
	<polygon points="25.001,27.953 22.847,31.682 27.153,31.682 	"/>
	<polygon points="30.384,27.953 28.23,31.682 32.537,31.682 	"/>
	<polygon points="32.537,32.304 28.23,32.304 30.384,36.033 	"/>
	<polygon points="37.919,32.304 33.614,32.304 35.767,36.033 	"/>
	<polygon points="27.153,32.304 22.847,32.304 25.001,36.033 	"/>
	<polygon points="21.771,32.304 17.464,32.304 19.618,36.033 	"/>
	<polygon points="16.387,32.304 12.082,32.304 14.236,36.033 	"/>
	<polygon points="11.543,32.614 9.39,36.345 13.696,36.345 	"/>
	<polygon points="22.31,32.614 20.156,36.345 24.462,36.345 	"/>
	<polygon points="27.692,32.614 25.539,36.345 29.845,36.345 	"/>
	<polygon points="40.611,27.642 36.305,27.642 38.459,31.371 	"/>
	<polygon points="38.459,32.614 36.305,36.345 40.611,36.345 	"/>
	<polygon points="8.852,37.276 6.698,41.006 11.004,41.006 	"/>
	<polygon points="41.15,37.276 38.997,41.006 43.302,41.006 	"/>
</g>
</svg>
