<?xml version="1.0" encoding="utf-8"?>
<!-- Generator: Adobe Illustrator 16.0.0, SVG Export Plug-In . SVG Version: 6.00 Build 0)  -->
<!DOCTYPE svg PUBLIC "-//W3C//DTD SVG 1.1//EN" "http://www.w3.org/Graphics/SVG/1.1/DTD/svg11.dtd">
<svg version="1.1" id="Layer_1" xmlns="http://www.w3.org/2000/svg" xmlns:xlink="http://www.w3.org/1999/xlink" x="0px" y="0px"
	 width="50px" height="50px" viewBox="0 0 50 50" enable-background="new 0 0 50 50" xml:space="preserve">
<g>
	<polygon points="39.25,37.124 39.25,30.196 33.25,33.66 	"/>
	<polygon points="39.25,28.464 39.25,21.536 33.25,25 	"/>
	<polygon points="39.25,19.804 39.25,12.876 33.25,16.34 	"/>
	<polygon points="38.75,20.67 32.75,17.206 32.75,24.134 	"/>
	<polygon points="38.75,29.33 32.75,25.866 32.75,32.794 	"/>
	<polygon points="31.75,32.794 31.75,25.866 25.75,29.33 	"/>
	<polygon points="31.75,24.134 31.75,17.206 25.75,20.67 	"/>
	<polygon points="31.25,25 25.25,21.536 25.25,28.464 	"/>
	<polygon points="24.25,28.464 24.25,21.536 18.25,25 	"/>
	<polygon points="16.75,32.794 16.75,25.866 10.75,29.33 	"/>
</g>
</svg>
