<?xml version="1.0" encoding="utf-8"?>
<!-- Generator: Adobe Illustrator 16.0.0, SVG Export Plug-In . SVG Version: 6.00 Build 0)  -->
<!DOCTYPE svg PUBLIC "-//W3C//DTD SVG 1.1//EN" "http://www.w3.org/Graphics/SVG/1.1/DTD/svg11.dtd">
<svg version="1.1" id="Layer_1" xmlns="http://www.w3.org/2000/svg" xmlns:xlink="http://www.w3.org/1999/xlink" x="0px" y="0px"
	 width="50px" height="50px" viewBox="0 0 50 50" enable-background="new 0 0 50 50" xml:space="preserve">
<g>
	<polygon points="25,7 21.536,13 28.464,13 	"/>
	<polygon points="28.464,14 21.536,14 25,20 	"/>
	<polygon points="20.67,14.5 17.206,20.5 24.134,20.5 	"/>
	<polygon points="32.794,20.5 29.33,14.5 25.866,20.5 	"/>
	<polygon points="25.866,21.5 29.33,27.5 32.794,21.5 	"/>
	<polygon points="17.206,21.5 20.67,27.5 24.134,21.5 	"/>
	<polygon points="12.876,28 19.804,28 16.34,22 	"/>
	<polygon points="21.536,28 28.464,28 25,22 	"/>
	<polygon points="33.66,22 30.196,28 37.124,28 	"/>
	<polygon points="25,35 28.464,29 21.536,29 	"/>
	<polygon points="21.536,43 28.464,43 25,37 	"/>
</g>
</svg>
