<?xml version="1.0" encoding="utf-8"?>
<!-- Generator: Adobe Illustrator 16.0.0, SVG Export Plug-In . SVG Version: 6.00 Build 0)  -->
<!DOCTYPE svg PUBLIC "-//W3C//DTD SVG 1.1//EN" "http://www.w3.org/Graphics/SVG/1.1/DTD/svg11.dtd">
<svg version="1.1" id="Layer_1" xmlns="http://www.w3.org/2000/svg" xmlns:xlink="http://www.w3.org/1999/xlink" x="0px" y="0px"
	 width="50px" height="50px" viewBox="0 0 50 50" enable-background="new 0 0 50 50" xml:space="preserve">
<g>
	<polygon points="28.027,12.326 21.973,12.326 25,17.57 	"/>
	<polygon points="21.216,12.763 18.188,18.007 24.243,18.007 	"/>
	<polygon points="31.813,18.007 28.785,12.763 25.757,18.007 	"/>
	<polygon points="31.813,18.881 25.757,18.881 28.785,24.125 	"/>
	<polygon points="24.243,18.881 18.188,18.881 21.216,24.125 	"/>
	<polygon points="17.431,19.318 14.403,24.563 20.458,24.563 	"/>
	<polygon points="35.597,24.563 32.569,19.318 29.542,24.563 	"/>
	<polygon points="25,6.208 21.973,11.452 28.027,11.452 	"/>
	<polygon points="35.597,25.437 29.542,25.437 32.569,30.681 	"/>
	<polygon points="20.458,25.437 14.403,25.437 17.431,30.681 	"/>
	<polygon points="13.646,25.874 10.618,31.118 16.674,31.118 	"/>
	<polygon points="18.188,31.118 24.243,31.118 21.216,25.874 	"/>
	<polygon points="31.813,31.118 28.785,25.874 25.757,31.118 	"/>
	<polygon points="39.382,31.118 36.354,25.874 33.326,31.118 	"/>
	<polygon points="33.326,31.992 36.354,37.236 39.382,31.992 	"/>
	<polygon points="25.757,31.992 28.785,37.236 31.813,31.992 	"/>
	<polygon points="18.188,31.992 21.216,37.236 24.243,31.992 	"/>
	<polygon points="10.618,31.992 13.646,37.236 16.674,31.992 	"/>
	<polygon points="6.834,37.673 12.889,37.673 9.861,32.429 	"/>
	<polygon points="14.403,37.673 20.458,37.673 17.431,32.429 	"/>
	<polygon points="21.973,37.673 28.027,37.673 25,32.429 	"/>
	<polygon points="29.542,37.673 35.597,37.673 32.569,32.429 	"/>
	<polygon points="43.166,37.673 40.139,32.429 37.111,37.673 	"/>
	<polygon points="40.139,43.792 43.166,38.547 37.111,38.547 	"/>
	<polygon points="32.569,43.792 35.597,38.547 29.542,38.547 	"/>
	<polygon points="25,43.792 28.027,38.547 21.973,38.547 	"/>
	<polygon points="17.431,43.792 20.458,38.547 14.403,38.547 	"/>
	<polygon points="9.861,43.792 12.889,38.547 6.834,38.547 	"/>
</g>
</svg>
