<?xml version="1.0" encoding="utf-8"?>
<!-- Generator: Adobe Illustrator 16.0.0, SVG Export Plug-In . SVG Version: 6.00 Build 0)  -->
<!DOCTYPE svg PUBLIC "-//W3C//DTD SVG 1.1//EN" "http://www.w3.org/Graphics/SVG/1.1/DTD/svg11.dtd">
<svg version="1.1" id="Layer_1" xmlns="http://www.w3.org/2000/svg" xmlns:xlink="http://www.w3.org/1999/xlink" x="0px" y="0px"
	 width="50px" height="50px" viewBox="0 0 50 50" enable-background="new 0 0 50 50" xml:space="preserve">
<g>
	<polygon points="36.318,19.445 38.582,15.524 34.056,15.524 	"/>
	<polygon points="32.924,15.524 28.396,15.524 30.66,19.445 	"/>
	<polygon points="27.264,15.524 22.736,15.524 25,19.445 	"/>
	<polygon points="17.076,15.524 19.34,19.445 21.604,15.524 	"/>
	<polygon points="15.944,15.524 11.418,15.524 13.682,19.445 	"/>
	<polygon points="14.247,19.771 18.774,19.771 16.511,15.851 	"/>
	<polygon points="24.434,19.771 22.17,15.851 19.906,19.771 	"/>
	<polygon points="30.094,19.771 27.83,15.851 25.566,19.771 	"/>
	<polygon points="33.489,15.851 31.226,19.771 35.753,19.771 	"/>
	<polygon points="30.094,20.425 25.566,20.425 27.83,24.347 	"/>
	<polygon points="22.17,24.347 24.434,20.425 19.906,20.425 	"/>
	<polygon points="13.682,20.752 11.418,24.673 15.944,24.673 	"/>
	<polygon points="22.736,24.673 27.264,24.673 25,20.752 	"/>
	<polygon points="34.056,24.673 38.582,24.673 36.318,20.752 	"/>
	<polygon points="16.511,6.048 14.247,9.969 18.774,9.969 	"/>
	<polygon points="33.489,6.048 31.226,9.969 35.753,9.969 	"/>
	<polygon points="35.753,10.622 31.226,10.622 33.489,14.543 	"/>
	<polygon points="18.774,10.622 14.247,10.622 16.511,14.543 	"/>
	<polygon points="13.682,10.949 11.418,14.871 15.944,14.871 	"/>
	<polygon points="21.604,14.871 19.34,10.949 17.076,14.871 	"/>
	<polygon points="30.66,10.949 28.396,14.871 32.924,14.871 	"/>
	<polygon points="38.582,14.871 36.318,10.949 34.056,14.871 	"/>
	<polygon points="36.318,29.248 38.582,25.327 34.056,25.327 	"/>
	<polygon points="32.924,25.327 28.396,25.327 30.66,29.248 	"/>
	<polygon points="27.264,25.327 22.736,25.327 25,29.248 	"/>
	<polygon points="19.34,29.248 21.604,25.327 17.076,25.327 	"/>
	<polygon points="11.418,25.327 13.682,29.248 15.944,25.327 	"/>
	<polygon points="18.774,29.575 16.511,25.653 14.247,29.575 	"/>
	<polygon points="22.17,25.653 19.906,29.575 24.434,29.575 	"/>
	<polygon points="27.83,25.653 25.566,29.575 30.094,29.575 	"/>
	<polygon points="31.226,29.575 35.753,29.575 33.489,25.653 	"/>
	<polygon points="33.489,34.149 35.753,30.229 31.226,30.229 	"/>
	<polygon points="14.247,30.229 16.511,34.149 18.774,30.229 	"/>
	<polygon points="21.604,34.476 19.34,30.555 17.076,34.476 	"/>
	<polygon points="28.396,34.476 32.924,34.476 30.66,30.555 	"/>
	<polygon points="30.66,39.051 32.924,35.129 28.396,35.129 	"/>
	<polygon points="22.736,35.129 25,39.051 27.264,35.129 	"/>
	<polygon points="17.076,35.129 19.34,39.051 21.604,35.129 	"/>
	<polygon points="19.906,39.378 24.434,39.378 22.17,35.457 	"/>
	<polygon points="25.566,39.378 30.094,39.378 27.83,35.457 	"/>
	<polygon points="27.83,43.952 30.094,40.031 25.566,40.031 	"/>
	<polygon points="22.17,43.952 24.434,40.031 19.906,40.031 	"/>
</g>
</svg>
