<?xml version="1.0" encoding="utf-8"?>
<!-- Generator: Adobe Illustrator 16.0.0, SVG Export Plug-In . SVG Version: 6.00 Build 0)  -->
<!DOCTYPE svg PUBLIC "-//W3C//DTD SVG 1.1//EN" "http://www.w3.org/Graphics/SVG/1.1/DTD/svg11.dtd">
<svg version="1.1" id="Layer_1" xmlns="http://www.w3.org/2000/svg" xmlns:xlink="http://www.w3.org/1999/xlink" x="0px" y="0px"
	 width="50px" height="50px" viewBox="0 0 50 50" enable-background="new 0 0 50 50" xml:space="preserve">
<g>
	<polygon points="15.474,14.25 8.546,14.25 12.01,20.25 	"/>
	<polygon points="7.68,14.75 4.216,20.75 11.144,20.75 	"/>
	<polygon points="33.66,14.75 30.196,20.75 37.124,20.75 	"/>
	<polygon points="42.32,14.75 38.856,20.75 45.784,20.75 	"/>
	<polygon points="42.32,27.75 45.784,21.75 38.856,21.75 	"/>
	<polygon points="37.124,21.75 30.196,21.75 33.66,27.75 	"/>
	<polygon points="28.464,21.75 21.536,21.75 25,27.75 	"/>
	<polygon points="16.34,27.75 19.804,21.75 12.876,21.75 	"/>
	<polygon points="4.216,21.75 7.68,27.75 11.144,21.75 	"/>
	<polygon points="8.546,28.25 15.474,28.25 12.01,22.25 	"/>
	<polygon points="24.134,28.25 20.67,22.25 17.206,28.25 	"/>
	<polygon points="32.794,28.25 29.33,22.25 25.866,28.25 	"/>
	<polygon points="34.526,28.25 41.454,28.25 37.99,22.25 	"/>
	<polygon points="12.01,7.25 8.546,13.25 15.474,13.25 	"/>
	<polygon points="25.866,29.25 29.33,35.25 32.794,29.25 	"/>
	<polygon points="17.206,29.25 20.67,35.25 24.134,29.25 	"/>
	<polygon points="8.546,29.25 12.01,35.25 15.474,29.25 	"/>
	<polygon points="12.876,35.75 19.804,35.75 16.34,29.75 	"/>
	<polygon points="21.536,35.75 28.464,35.75 25,29.75 	"/>
	<polygon points="30.196,35.75 37.124,35.75 33.66,29.75 	"/>
	<polygon points="33.66,42.75 37.124,36.75 30.196,36.75 	"/>
	<polygon points="16.34,42.75 19.804,36.75 12.876,36.75 	"/>
</g>
</svg>
