<?xml version="1.0" encoding="utf-8"?>
<!-- Generator: Adobe Illustrator 16.0.0, SVG Export Plug-In . SVG Version: 6.00 Build 0)  -->
<!DOCTYPE svg PUBLIC "-//W3C//DTD SVG 1.1//EN" "http://www.w3.org/Graphics/SVG/1.1/DTD/svg11.dtd">
<svg version="1.1" id="Layer_1" xmlns="http://www.w3.org/2000/svg" xmlns:xlink="http://www.w3.org/1999/xlink" x="0px" y="0px"
	 width="50px" height="50px" viewBox="0 0 50 50" enable-background="new 0 0 50 50" xml:space="preserve">
<g>
	<polygon points="34.731,18.642 30.635,18.642 32.684,22.191 	"/>
	<polygon points="24.488,18.642 20.39,18.642 22.438,22.191 	"/>
	<polygon points="14.243,18.642 10.146,18.642 12.195,22.191 	"/>
	<polygon points="34.731,9.771 30.635,9.771 32.684,13.32 	"/>
	<polygon points="24.488,9.771 20.39,9.771 22.438,13.32 	"/>
	<polygon points="14.243,9.771 10.146,9.771 12.195,13.32 	"/>
	<polygon points="16.805,13.615 14.757,10.067 12.708,13.615 	"/>
	<polygon points="27.049,13.615 25,10.067 22.951,13.615 	"/>
	<polygon points="37.292,13.615 35.243,10.067 33.195,13.615 	"/>
	<polygon points="35.243,17.755 37.292,14.207 33.195,14.207 	"/>
	<polygon points="22.951,14.207 25,17.755 27.049,14.207 	"/>
	<polygon points="12.708,14.207 14.757,17.755 16.805,14.207 	"/>
	<polygon points="12.195,14.502 10.146,18.051 14.243,18.051 	"/>
	<polygon points="22.438,14.502 20.39,18.051 24.488,18.051 	"/>
	<polygon points="32.684,14.502 30.635,18.051 34.731,18.051 	"/>
	<polygon points="32.17,23.078 28.073,23.078 30.122,26.627 	"/>
	<polygon points="33.195,23.078 35.243,26.627 37.292,23.078 	"/>
	<polygon points="25,26.627 27.049,23.078 22.951,23.078 	"/>
	<polygon points="21.927,23.078 17.83,23.078 19.878,26.627 	"/>
	<polygon points="14.757,26.627 16.805,23.078 12.708,23.078 	"/>
	<polygon points="7.587,23.078 9.635,26.627 11.684,23.078 	"/>
	<polygon points="10.146,26.922 14.243,26.922 12.195,23.374 	"/>
	<polygon points="19.365,26.922 17.317,23.374 15.269,26.922 	"/>
	<polygon points="20.39,26.922 24.488,26.922 22.438,23.374 	"/>
	<polygon points="29.61,26.922 27.562,23.374 25.512,26.922 	"/>
	<polygon points="30.635,26.922 34.731,26.922 32.684,23.374 	"/>
	<polygon points="39.854,26.922 37.805,23.374 35.757,26.922 	"/>
	<polygon points="32.684,31.063 34.731,27.514 30.635,27.514 	"/>
	<polygon points="25.512,35.794 29.61,35.794 27.562,32.245 	"/>
	<polygon points="37.805,31.063 39.854,27.514 35.757,27.514 	"/>
	<polygon points="35.757,35.794 39.854,35.794 37.805,32.245 	"/>
	<polygon points="27.562,39.934 29.61,36.386 25.512,36.386 	"/>
	<polygon points="29.61,27.514 25.512,27.514 27.562,31.063 	"/>
	<polygon points="22.438,31.063 24.488,27.514 20.39,27.514 	"/>
	<polygon points="17.317,31.063 19.365,27.514 15.269,27.514 	"/>
	<polygon points="10.146,27.514 12.195,31.063 14.243,27.514 	"/>
	<polygon points="16.805,31.358 14.757,27.81 12.708,31.358 	"/>
	<polygon points="17.83,31.358 21.927,31.358 19.878,27.81 	"/>
	<polygon points="25,27.81 22.951,31.358 27.049,31.358 	"/>
	<polygon points="30.122,27.81 28.073,31.358 32.17,31.358 	"/>
	<polygon points="28.073,31.95 30.122,35.498 32.17,31.95 	"/>
	<polygon points="27.049,31.95 22.951,31.95 25,35.498 	"/>
	<polygon points="21.927,31.95 17.83,31.95 19.878,35.498 	"/>
	<polygon points="12.708,31.95 14.757,35.498 16.805,31.95 	"/>
	<polygon points="19.365,35.794 17.317,32.245 15.269,35.794 	"/>
	<polygon points="22.438,32.245 20.39,35.794 24.488,35.794 	"/>
	<polygon points="30.635,35.794 34.731,35.794 32.684,32.245 	"/>
	<polygon points="20.39,36.386 22.438,39.934 24.488,36.386 	"/>
	<polygon points="15.269,36.386 17.317,39.934 19.365,36.386 	"/>
	<polygon points="17.83,40.229 21.927,40.229 19.878,36.681 	"/>
	<polygon points="22.951,40.229 27.049,40.229 25,36.681 	"/>
	<polygon points="42.413,31.358 40.365,27.81 38.316,31.358 	"/>
	<polygon points="40.365,35.498 42.413,31.95 38.316,31.95 	"/>
</g>
</svg>
