<?xml version="1.0" encoding="utf-8"?>
<!-- Generator: Adobe Illustrator 16.0.0, SVG Export Plug-In . SVG Version: 6.00 Build 0)  -->
<!DOCTYPE svg PUBLIC "-//W3C//DTD SVG 1.1//EN" "http://www.w3.org/Graphics/SVG/1.1/DTD/svg11.dtd">
<svg version="1.1" id="Layer_1" xmlns="http://www.w3.org/2000/svg" xmlns:xlink="http://www.w3.org/1999/xlink" x="0px" y="0px"
	 width="50px" height="50px" viewBox="0 0 50 50" enable-background="new 0 0 50 50" xml:space="preserve">
<g>
	<polygon points="27.869,22.131 32.964,20.766 29.234,17.036 	"/>
	<polygon points="22.131,18.545 17.035,19.911 20.766,23.64 	"/>
	<polygon points="26.793,23.208 21.697,24.573 25.428,28.302 	"/>
	<polygon points="30.089,32.965 31.455,27.87 26.359,29.235 	"/>
	<polygon points="35.944,14.056 41.039,12.69 37.31,8.961 	"/>
	<polygon points="33.502,20.227 34.867,15.132 29.773,16.498 	"/>
	<polygon points="37.848,8.422 41.578,12.152 42.943,7.057 	"/>
	<polygon points="24.456,34.868 29.551,33.503 25.821,29.773 	"/>
	<polygon points="21.16,25.111 19.794,30.206 24.889,28.84 	"/>
	<polygon points="16.497,20.449 15.132,25.544 20.227,24.179 	"/>
	<polygon points="15.329,26.279 19.059,30.009 20.424,24.914 	"/>
	<polygon points="19.991,30.941 23.721,34.671 25.086,29.576 	"/>
	<polygon points="19.453,31.48 18.088,36.575 23.182,35.209 	"/>
	<polygon points="18.52,30.547 14.791,26.818 13.425,31.913 	"/>
	<polygon points="14.055,26.621 8.96,27.986 12.69,31.715 	"/>
	<polygon points="17.352,36.377 18.717,31.283 13.623,32.648 	"/>
	<polygon points="22.014,41.04 23.379,35.945 18.285,37.31 	"/>
	<polygon points="16.381,42.943 21.476,41.578 17.746,37.849 	"/>
	<polygon points="13.084,33.186 11.719,38.281 16.814,36.916 	"/>
	<polygon points="8.422,28.524 7.057,33.619 12.151,32.253 	"/>
	<polygon points="7.254,34.354 10.983,38.084 12.349,32.989 	"/>
	<polygon points="11.916,39.017 15.646,42.746 17.011,37.651 	"/>
</g>
</svg>
