<?xml version="1.0" encoding="utf-8"?>
<!-- Generator: Adobe Illustrator 16.0.0, SVG Export Plug-In . SVG Version: 6.00 Build 0)  -->
<!DOCTYPE svg PUBLIC "-//W3C//DTD SVG 1.1//EN" "http://www.w3.org/Graphics/SVG/1.1/DTD/svg11.dtd">
<svg version="1.1" id="Layer_1" xmlns="http://www.w3.org/2000/svg" xmlns:xlink="http://www.w3.org/1999/xlink" x="0px" y="0px"
	 width="50px" height="50px" viewBox="0 0 50 50" enable-background="new 0 0 50 50" xml:space="preserve">
<g>
	<polygon points="15.218,15.524 15.218,20.119 19.197,17.822 	"/>
	<polygon points="15.218,21.268 15.218,25.862 19.197,23.564 	"/>
	<polygon points="15.218,27.011 15.218,31.605 19.197,29.308 	"/>
	<polygon points="19.529,34.476 19.529,29.882 15.55,32.18 	"/>
	<polygon points="19.529,28.733 19.529,24.139 15.55,26.437 	"/>
	<polygon points="19.529,22.99 19.529,18.396 15.55,20.693 	"/>
	<polygon points="20.191,18.396 20.191,22.99 24.171,20.693 	"/>
	<polygon points="24.502,25.862 24.502,21.268 20.523,23.564 	"/>
	<polygon points="24.502,20.119 24.502,15.524 20.523,17.822 	"/>
	<polygon points="9.582,22.99 9.582,18.396 5.603,20.693 	"/>
	<polygon points="10.245,18.396 10.245,22.99 14.224,20.693 	"/>
	<polygon points="14.555,25.862 14.555,21.268 10.577,23.564 	"/>
	<polygon points="14.555,20.119 14.555,15.524 10.577,17.822 	"/>
	<polygon points="25.166,15.524 25.166,20.119 29.145,17.822 	"/>
	<polygon points="25.166,25.862 29.145,23.564 25.166,21.268 	"/>
	<polygon points="29.476,22.99 29.476,18.396 25.498,20.693 	"/>
	<polygon points="30.14,22.99 34.119,20.693 30.14,18.396 	"/>
	<polygon points="39.423,22.99 39.423,18.396 35.445,20.693 	"/>
	<polygon points="40.087,18.396 40.087,22.99 44.065,20.693 	"/>
	<polygon points="44.397,25.862 44.397,21.268 40.418,23.564 	"/>
	<polygon points="40.418,17.822 44.397,20.119 44.397,15.524 	"/>
</g>
</svg>
