<?xml version="1.0" encoding="utf-8"?>
<!-- Generator: Adobe Illustrator 16.0.0, SVG Export Plug-In . SVG Version: 6.00 Build 0)  -->
<!DOCTYPE svg PUBLIC "-//W3C//DTD SVG 1.1//EN" "http://www.w3.org/Graphics/SVG/1.1/DTD/svg11.dtd">
<svg version="1.1" id="Layer_1" xmlns="http://www.w3.org/2000/svg" xmlns:xlink="http://www.w3.org/1999/xlink" x="0px" y="0px"
	 width="50px" height="50px" viewBox="0 0 50 50" enable-background="new 0 0 50 50" xml:space="preserve">
<g>
	<polygon points="19.129,14.832 19.129,20.643 24.161,17.737 	"/>
	<polygon points="30.87,14.832 25.839,17.737 30.871,20.643 	"/>
	<polygon points="18.291,27.905 18.291,22.095 13.259,25 	"/>
	<polygon points="19.13,35.168 24.161,32.263 19.129,29.357 	"/>
	<polygon points="31.709,22.095 31.709,27.905 36.741,25 	"/>
	<polygon points="30.871,35.168 30.871,29.357 25.839,32.263 	"/>
	<polygon points="38.799,12.84 32.989,12.84 35.895,17.871 	"/>
	<polygon points="17.011,12.84 11.201,12.84 14.105,17.871 	"/>
	<polygon points="39.526,24.161 42.431,19.129 36.621,19.129 	"/>
	<polygon points="13.379,19.129 7.569,19.129 10.474,24.161 	"/>
	<polygon points="18.463,12.001 24.273,12.001 21.369,6.969 	"/>
	<polygon points="25.727,12.001 31.537,12.001 28.631,6.969 	"/>
	<polygon points="10.474,25.839 7.569,30.871 13.379,30.871 	"/>
	<polygon points="36.621,30.871 42.431,30.871 39.526,25.839 	"/>
	<polygon points="11.201,37.16 17.011,37.16 14.105,32.129 	"/>
	<polygon points="32.989,37.16 38.799,37.16 35.895,32.129 	"/>
	<polygon points="28.631,43.031 31.537,37.999 25.727,37.999 	"/>
	<polygon points="21.369,43.031 24.273,37.999 18.463,37.999 	"/>
</g>
</svg>
