<?xml version="1.0" encoding="utf-8"?>
<!-- Generator: Adobe Illustrator 16.0.0, SVG Export Plug-In . SVG Version: 6.00 Build 0)  -->
<!DOCTYPE svg PUBLIC "-//W3C//DTD SVG 1.1//EN" "http://www.w3.org/Graphics/SVG/1.1/DTD/svg11.dtd">
<svg version="1.1" id="Layer_1" xmlns="http://www.w3.org/2000/svg" xmlns:xlink="http://www.w3.org/1999/xlink" x="0px" y="0px"
	 width="50px" height="50px" viewBox="0 0 50 50" enable-background="new 0 0 50 50" xml:space="preserve">
<g>
	<polygon points="19.371,43.25 26.299,43.25 22.836,37.25 	"/>
	<polygon points="32.361,6.75 35.826,12.75 39.289,6.75 	"/>
	<polygon points="22.836,7.25 19.371,13.25 26.299,13.25 	"/>
	<polygon points="28.031,13.25 34.959,13.25 31.496,7.25 	"/>
	<polygon points="26.299,14.25 19.371,14.25 22.836,20.25 	"/>
	<polygon points="30.629,21.75 23.701,21.75 27.166,27.75 	"/>
	<polygon points="21.969,21.75 15.041,21.75 18.506,27.75 	"/>
	<polygon points="14.176,22.25 10.711,28.25 17.639,28.25 	"/>
	<polygon points="22.836,22.25 19.371,28.25 26.299,28.25 	"/>
	<polygon points="28.031,28.25 34.959,28.25 31.496,22.25 	"/>
	<polygon points="31.496,35.25 34.959,29.25 28.031,29.25 	"/>
	<polygon points="26.299,29.25 19.371,29.25 22.836,35.25 	"/>
	<polygon points="10.711,29.25 14.176,35.25 17.639,29.25 	"/>
	<polygon points="15.041,35.75 21.969,35.75 18.506,29.75 	"/>
	<polygon points="23.701,35.75 30.629,35.75 27.166,29.75 	"/>
	<polygon points="27.166,42.75 30.629,36.75 23.701,36.75 	"/>
	<polygon points="15.041,36.75 18.506,42.75 21.969,36.75 	"/>
</g>
</svg>
