<?xml version="1.0" encoding="utf-8"?>
<!-- Generator: Adobe Illustrator 16.0.0, SVG Export Plug-In . SVG Version: 6.00 Build 0)  -->
<!DOCTYPE svg PUBLIC "-//W3C//DTD SVG 1.1//EN" "http://www.w3.org/Graphics/SVG/1.1/DTD/svg11.dtd">
<svg version="1.1" id="Layer_1" xmlns="http://www.w3.org/2000/svg" xmlns:xlink="http://www.w3.org/1999/xlink" x="0px" y="0px"
	 width="50px" height="50px" viewBox="0 0 50 50" enable-background="new 0 0 50 50" xml:space="preserve">
<g>
	<polygon points="37.2,18.689 33.133,18.689 35.167,22.212 	"/>
	<polygon points="16.867,18.689 12.8,18.689 14.833,22.212 	"/>
	<polygon points="7.717,18.689 9.75,22.212 11.784,18.689 	"/>
	<polygon points="14.325,22.505 12.292,18.983 10.259,22.505 	"/>
	<polygon points="19.409,22.505 17.375,18.983 15.342,22.505 	"/>
	<polygon points="32.625,18.983 30.591,22.505 34.658,22.505 	"/>
	<polygon points="39.741,22.505 37.708,18.983 35.675,22.505 	"/>
	<polygon points="34.658,23.092 30.591,23.092 32.625,26.613 	"/>
	<polygon points="39.741,23.092 35.675,23.092 37.708,26.613 	"/>
	<polygon points="29.575,23.092 25.508,23.092 27.542,26.613 	"/>
	<polygon points="24.492,23.092 20.425,23.092 22.458,26.613 	"/>
	<polygon points="19.409,23.092 15.342,23.092 17.375,26.613 	"/>
	<polygon points="14.325,23.092 10.259,23.092 12.292,26.613 	"/>
	<polygon points="5.176,23.092 7.209,26.613 9.242,23.092 	"/>
	<polygon points="11.784,26.907 9.75,23.386 7.717,26.907 	"/>
	<polygon points="14.833,23.386 12.8,26.907 16.867,26.907 	"/>
	<polygon points="21.95,26.907 19.917,23.386 17.883,26.907 	"/>
	<polygon points="25,23.386 22.967,26.907 27.033,26.907 	"/>
	<polygon points="32.117,26.907 30.083,23.386 28.05,26.907 	"/>
	<polygon points="33.133,26.907 37.2,26.907 35.167,23.386 	"/>
	<polygon points="42.283,18.689 38.216,18.689 40.25,22.212 	"/>
	<polygon points="38.216,26.907 42.283,26.907 40.25,23.386 	"/>
	<polygon points="9.242,14.287 5.176,14.287 7.209,17.809 	"/>
	<polygon points="11.784,18.103 9.75,14.581 7.717,18.103 	"/>
	<polygon points="22.967,18.689 25,22.212 27.033,18.689 	"/>
	<polygon points="22.458,10.179 20.425,13.7 24.492,13.7 	"/>
	<polygon points="27.542,10.179 25.508,13.7 29.575,13.7 	"/>
	<polygon points="29.575,14.287 25.508,14.287 27.542,17.809 	"/>
	<polygon points="24.492,14.287 20.425,14.287 22.458,17.809 	"/>
	<polygon points="27.033,18.103 25,14.581 22.967,18.103 	"/>
	<polygon points="40.25,14.581 38.216,18.103 42.283,18.103 	"/>
	<polygon points="33.133,27.494 35.167,31.016 37.2,27.494 	"/>
	<polygon points="28.05,27.494 30.083,31.016 32.117,27.494 	"/>
	<polygon points="27.033,27.494 22.967,27.494 25,31.016 	"/>
	<polygon points="17.883,27.494 19.917,31.016 21.95,27.494 	"/>
	<polygon points="12.8,27.494 14.833,31.016 16.867,27.494 	"/>
	<polygon points="7.717,27.494 9.75,31.016 11.784,27.494 	"/>
	<polygon points="10.259,31.31 14.325,31.31 12.292,27.787 	"/>
	<polygon points="15.342,31.31 19.409,31.31 17.375,27.787 	"/>
	<polygon points="20.425,31.31 24.492,31.31 22.458,27.787 	"/>
	<polygon points="25.508,31.31 29.575,31.31 27.542,27.787 	"/>
	<polygon points="30.591,31.31 34.658,31.31 32.625,27.787 	"/>
	<polygon points="35.675,31.31 39.741,31.31 37.708,27.787 	"/>
	<polygon points="27.542,35.418 29.575,31.896 25.508,31.896 	"/>
	<polygon points="20.425,31.896 22.458,35.418 24.492,31.896 	"/>
	<polygon points="22.967,35.712 27.033,35.712 25,32.19 	"/>
	<polygon points="40.25,31.016 42.283,27.494 38.216,27.494 	"/>
	<polygon points="25,39.82 27.033,36.299 22.967,36.299 	"/>
	<polygon points="42.791,26.613 44.824,23.092 40.758,23.092 	"/>
	<polygon points="44.824,14.287 40.758,14.287 42.791,17.809 	"/>
</g>
</svg>
