<?xml version="1.0" encoding="utf-8"?>
<!-- Generator: Adobe Illustrator 16.0.0, SVG Export Plug-In . SVG Version: 6.00 Build 0)  -->
<!DOCTYPE svg PUBLIC "-//W3C//DTD SVG 1.1//EN" "http://www.w3.org/Graphics/SVG/1.1/DTD/svg11.dtd">
<svg version="1.1" id="Layer_1" xmlns="http://www.w3.org/2000/svg" xmlns:xlink="http://www.w3.org/1999/xlink" x="0px" y="0px"
	 width="50px" height="50px" viewBox="0 0 50 50" enable-background="new 0 0 50 50" xml:space="preserve">
<g>
	<polygon points="40.069,14.487 35.046,14.487 37.558,18.837 	"/>
	<polygon points="33.79,14.487 28.768,14.487 31.279,18.837 	"/>
	<polygon points="21.232,14.487 16.21,14.487 18.723,18.837 	"/>
	<polygon points="14.954,14.487 9.931,14.487 12.442,18.837 	"/>
	<polygon points="9.304,14.851 6.792,19.2 11.814,19.2 	"/>
	<polygon points="21.861,14.851 19.349,19.2 24.372,19.2 	"/>
	<polygon points="28.14,14.851 25.628,19.2 30.651,19.2 	"/>
	<polygon points="40.698,14.851 38.186,19.2 43.208,19.2 	"/>
	<polygon points="36.93,19.926 31.907,19.926 34.419,24.275 	"/>
	<polygon points="43.208,19.926 38.186,19.926 40.698,24.275 	"/>
	<polygon points="30.651,19.926 25.628,19.926 28.14,24.275 	"/>
	<polygon points="24.372,19.926 19.349,19.926 21.861,24.275 	"/>
	<polygon points="18.093,19.926 13.07,19.926 15.582,24.275 	"/>
	<polygon points="11.814,19.926 6.792,19.926 9.304,24.275 	"/>
	<polygon points="12.442,20.288 9.931,24.638 14.954,24.638 	"/>
	<polygon points="25.001,20.288 22.488,24.638 27.512,24.638 	"/>
	<polygon points="37.558,20.288 35.046,24.638 40.069,24.638 	"/>
	<polygon points="36.93,9.05 31.907,9.05 34.419,13.399 	"/>
	<polygon points="18.093,9.05 13.07,9.05 15.582,13.399 	"/>
	<polygon points="12.442,9.412 9.931,13.763 14.954,13.763 	"/>
	<polygon points="18.723,9.412 16.21,13.763 21.232,13.763 	"/>
	<polygon points="31.279,9.412 28.768,13.763 33.79,13.763 	"/>
	<polygon points="37.558,9.412 35.046,13.763 40.069,13.763 	"/>
	<polygon points="40.069,25.363 35.046,25.363 37.558,29.713 	"/>
	<polygon points="27.512,25.363 22.488,25.363 25.001,29.713 	"/>
	<polygon points="14.954,25.363 9.931,25.363 12.442,29.713 	"/>
	<polygon points="9.304,25.726 6.792,30.075 11.814,30.075 	"/>
	<polygon points="15.582,25.726 13.07,30.075 18.093,30.075 	"/>
	<polygon points="21.861,25.726 19.349,30.075 24.372,30.075 	"/>
	<polygon points="28.14,25.726 25.628,30.075 30.651,30.075 	"/>
	<polygon points="34.419,25.726 31.907,30.075 36.93,30.075 	"/>
	<polygon points="40.698,25.726 38.186,30.075 43.208,30.075 	"/>
	<polygon points="43.208,30.801 38.186,30.801 40.698,35.15 	"/>
	<polygon points="30.651,30.801 25.628,30.801 28.14,35.15 	"/>
	<polygon points="24.372,30.801 19.349,30.801 21.861,35.15 	"/>
	<polygon points="11.814,30.801 6.792,30.801 9.304,35.15 	"/>
	<polygon points="12.442,31.163 9.931,35.514 14.954,35.514 	"/>
	<polygon points="18.723,31.163 16.21,35.514 21.232,35.514 	"/>
	<polygon points="31.279,31.163 28.768,35.514 33.79,35.514 	"/>
	<polygon points="37.558,31.163 35.046,35.514 40.069,35.514 	"/>
	<polygon points="40.069,36.239 35.046,36.239 37.558,40.589 	"/>
	<polygon points="33.79,36.239 28.768,36.239 31.279,40.589 	"/>
	<polygon points="21.232,36.239 16.21,36.239 18.723,40.589 	"/>
	<polygon points="14.954,36.239 9.931,36.239 12.442,40.589 	"/>
	<polygon points="15.582,36.601 13.07,40.951 18.093,40.951 	"/>
	<polygon points="34.419,36.601 31.907,40.951 36.93,40.951 	"/>
</g>
</svg>
