<?xml version="1.0" encoding="utf-8"?>
<!-- Generator: Adobe Illustrator 16.0.0, SVG Export Plug-In . SVG Version: 6.00 Build 0)  -->
<!DOCTYPE svg PUBLIC "-//W3C//DTD SVG 1.1//EN" "http://www.w3.org/Graphics/SVG/1.1/DTD/svg11.dtd">
<svg version="1.1" id="Layer_1" xmlns="http://www.w3.org/2000/svg" xmlns:xlink="http://www.w3.org/1999/xlink" x="0px" y="0px"
	 width="50px" height="50px" viewBox="0 0 50 50" enable-background="new 0 0 50 50" xml:space="preserve">
<g>
	<polygon points="27.218,8.518 22.782,8.518 25,12.358 	"/>
	<polygon points="38.303,18.118 33.869,18.118 36.087,21.959 	"/>
	<polygon points="30.543,21.959 32.761,18.118 28.326,18.118 	"/>
	<polygon points="25,21.959 27.218,18.118 22.782,18.118 	"/>
	<polygon points="19.457,21.959 21.674,18.118 17.239,18.118 	"/>
	<polygon points="16.131,18.118 11.697,18.118 13.913,21.959 	"/>
	<polygon points="11.143,18.438 8.925,22.279 13.359,22.279 	"/>
	<polygon points="20.012,22.279 24.445,22.279 22.229,18.438 	"/>
	<polygon points="25.555,22.279 29.988,22.279 27.771,18.438 	"/>
	<polygon points="41.075,22.279 38.857,18.438 36.641,22.279 	"/>
	<polygon points="33.314,26.76 35.532,22.92 31.098,22.92 	"/>
	<polygon points="41.075,22.92 36.641,22.92 38.857,26.76 	"/>
	<polygon points="29.988,22.92 25.555,22.92 27.771,26.76 	"/>
	<polygon points="24.445,22.92 20.012,22.92 22.229,26.76 	"/>
	<polygon points="16.686,26.76 18.902,22.92 14.468,22.92 	"/>
	<polygon points="13.359,22.92 8.925,22.92 11.143,26.76 	"/>
	<polygon points="8.37,23.239 6.153,27.079 10.588,27.079 	"/>
	<polygon points="11.697,27.079 16.131,27.079 13.913,23.239 	"/>
	<polygon points="19.457,23.239 17.239,27.079 21.674,27.079 	"/>
	<polygon points="30.543,23.239 28.326,27.079 32.761,27.079 	"/>
	<polygon points="36.087,23.239 33.869,27.079 38.303,27.079 	"/>
	<polygon points="43.847,27.079 41.63,23.239 39.412,27.079 	"/>
	<polygon points="35.532,13.318 31.098,13.318 33.314,17.158 	"/>
	<polygon points="27.771,17.158 29.988,13.318 25.555,13.318 	"/>
	<polygon points="24.445,13.318 20.012,13.318 22.229,17.158 	"/>
	<polygon points="18.902,13.318 14.468,13.318 16.686,17.158 	"/>
	<polygon points="13.913,13.638 11.697,17.479 16.131,17.479 	"/>
	<polygon points="21.674,17.479 19.457,13.638 17.239,17.479 	"/>
	<polygon points="25,13.638 22.782,17.479 27.218,17.479 	"/>
	<polygon points="32.761,17.479 30.543,13.638 28.326,17.479 	"/>
	<polygon points="38.303,17.479 36.087,13.638 33.869,17.479 	"/>
	<polygon points="38.303,27.72 33.869,27.72 36.087,31.561 	"/>
	<polygon points="30.543,31.561 32.761,27.72 28.326,27.72 	"/>
	<polygon points="27.218,27.72 22.782,27.72 25,31.561 	"/>
	<polygon points="19.457,31.561 21.674,27.72 17.239,27.72 	"/>
	<polygon points="13.913,31.561 16.131,27.72 11.697,27.72 	"/>
	<polygon points="6.153,27.72 8.37,31.561 10.588,27.72 	"/>
	<polygon points="8.925,31.881 13.359,31.881 11.143,28.04 	"/>
	<polygon points="16.686,28.04 14.468,31.881 18.902,31.881 	"/>
	<polygon points="22.229,28.04 20.012,31.881 24.445,31.881 	"/>
	<polygon points="27.771,28.04 25.555,31.881 29.988,31.881 	"/>
	<polygon points="33.314,28.04 31.098,31.881 35.532,31.881 	"/>
	<polygon points="36.641,31.881 41.075,31.881 38.857,28.04 	"/>
	<polygon points="38.857,36.361 41.075,32.521 36.641,32.521 	"/>
	<polygon points="8.925,32.521 11.143,36.361 13.359,32.521 	"/>
	<polygon points="16.131,36.681 13.913,32.841 11.697,36.681 	"/>
	<polygon points="19.457,32.841 17.239,36.681 21.674,36.681 	"/>
	<polygon points="25,32.841 22.782,36.681 27.218,36.681 	"/>
	<polygon points="30.543,32.841 28.326,36.681 32.761,36.681 	"/>
	<polygon points="33.869,36.681 38.303,36.681 36.087,32.841 	"/>
	<polygon points="41.63,31.561 43.847,27.72 39.412,27.72 	"/>
	<polygon points="36.087,41.161 38.303,37.32 33.869,37.32 	"/>
	<polygon points="28.326,37.32 30.543,41.161 32.761,37.32 	"/>
	<polygon points="22.782,37.32 25,41.161 27.218,37.32 	"/>
	<polygon points="17.239,37.32 19.457,41.161 21.674,37.32 	"/>
	<polygon points="11.697,37.32 13.913,41.161 16.131,37.32 	"/>
	<polygon points="14.468,41.481 18.902,41.481 16.686,37.641 	"/>
	<polygon points="20.012,41.481 24.445,41.481 22.229,37.641 	"/>
	<polygon points="25.555,41.481 29.988,41.481 27.771,37.641 	"/>
	<polygon points="31.098,41.481 35.532,41.481 33.314,37.641 	"/>
</g>
</svg>
