<?xml version="1.0" encoding="utf-8"?>
<!-- Generator: Adobe Illustrator 16.0.0, SVG Export Plug-In . SVG Version: 6.00 Build 0)  -->
<!DOCTYPE svg PUBLIC "-//W3C//DTD SVG 1.1//EN" "http://www.w3.org/Graphics/SVG/1.1/DTD/svg11.dtd">
<svg version="1.1" id="Layer_1" xmlns="http://www.w3.org/2000/svg" xmlns:xlink="http://www.w3.org/1999/xlink" x="0px" y="0px"
	 width="50px" height="50px" viewBox="0 0 50 50" enable-background="new 0 0 50 50" xml:space="preserve">
<g>
	<polygon points="20.834,35.733 25.961,35.733 23.398,31.292 	"/>
	<polygon points="27.243,35.733 32.37,35.733 29.808,31.292 	"/>
	<polygon points="24.038,30.923 26.603,35.363 29.165,30.923 	"/>
	<polygon points="20.192,25.74 17.629,30.183 22.756,30.183 	"/>
	<polygon points="26.603,25.74 24.038,30.183 29.165,30.183 	"/>
	<polygon points="29.808,29.812 32.37,25.37 27.243,25.37 	"/>
	<polygon points="23.398,29.812 25.96,25.37 20.833,25.37 	"/>
	<polygon points="14.424,25.37 16.988,29.813 19.551,25.37 	"/>
	<polygon points="8.014,24.63 13.142,24.63 10.578,20.188 	"/>
	<polygon points="19.551,24.63 16.987,20.188 14.424,24.63 	"/>
	<polygon points="25.96,24.63 23.397,20.188 20.833,24.63 	"/>
	<polygon points="27.243,24.63 32.37,24.63 29.808,20.188 	"/>
	<polygon points="33.652,24.63 38.78,24.63 36.217,20.188 	"/>
	<polygon points="39.422,24.26 41.985,19.818 36.857,19.818 	"/>
	<polygon points="30.447,19.818 33.012,24.26 35.575,19.818 	"/>
	<polygon points="29.165,19.818 24.038,19.818 26.603,24.26 	"/>
	<polygon points="22.756,19.818 17.628,19.818 20.192,24.26 	"/>
	<polygon points="11.219,19.818 13.783,24.26 16.347,19.818 	"/>
	<polygon points="4.81,19.818 7.374,24.26 9.937,19.818 	"/>
	<polygon points="16.346,19.078 13.782,14.638 11.218,19.078 	"/>
	<polygon points="7.374,14.638 4.81,19.078 9.937,19.078 	"/>
	<polygon points="36.857,19.078 41.985,19.078 39.422,14.638 	"/>
	<polygon points="40.063,14.268 42.627,18.708 45.19,14.268 	"/>
	<polygon points="13.141,14.268 8.014,14.268 10.578,18.708 	"/>
</g>
</svg>
