<?xml version="1.0" encoding="utf-8"?>
<!-- Generator: Adobe Illustrator 16.0.0, SVG Export Plug-In . SVG Version: 6.00 Build 0)  -->
<!DOCTYPE svg PUBLIC "-//W3C//DTD SVG 1.1//EN" "http://www.w3.org/Graphics/SVG/1.1/DTD/svg11.dtd">
<svg version="1.1" id="Layer_1" xmlns="http://www.w3.org/2000/svg" xmlns:xlink="http://www.w3.org/1999/xlink" x="0px" y="0px"
	 width="50px" height="50px" viewBox="0 0 50 50" enable-background="new 0 0 50 50" xml:space="preserve">
<g>
	<polygon points="42.482,17.517 37.66,17.517 40.071,21.693 	"/>
	<polygon points="30.426,17.517 25.604,17.517 28.015,21.693 	"/>
	<polygon points="18.972,17.865 16.561,22.042 21.383,22.042 	"/>
	<polygon points="25,17.865 22.589,22.042 27.411,22.042 	"/>
	<polygon points="39.468,22.738 34.646,22.738 37.058,26.914 	"/>
	<polygon points="33.439,22.738 28.617,22.738 31.029,26.914 	"/>
	<polygon points="27.411,22.738 22.589,22.738 25,26.914 	"/>
	<polygon points="21.383,22.738 16.561,22.738 18.972,26.914 	"/>
	<polygon points="15.354,22.738 10.532,22.738 12.943,26.914 	"/>
	<polygon points="15.958,23.086 13.546,27.262 18.368,27.262 	"/>
	<polygon points="21.986,23.086 19.574,27.262 24.396,27.262 	"/>
	<polygon points="28.015,23.086 25.604,27.262 30.426,27.262 	"/>
	<polygon points="34.043,23.086 31.632,27.262 36.454,27.262 	"/>
	<polygon points="36.454,7.075 31.632,7.075 34.043,11.252 	"/>
	<polygon points="37.058,7.423 34.646,11.6 39.468,11.6 	"/>
	<polygon points="39.468,12.296 34.646,12.296 37.058,16.473 	"/>
	<polygon points="27.411,12.296 22.589,12.296 25,16.473 	"/>
	<polygon points="15.354,12.296 10.532,12.296 12.943,16.473 	"/>
	<polygon points="9.93,12.645 7.518,16.82 12.34,16.82 	"/>
	<polygon points="15.958,12.645 13.546,16.82 18.368,16.82 	"/>
	<polygon points="28.015,12.645 25.604,16.82 30.426,16.82 	"/>
	<polygon points="40.071,12.645 37.66,16.82 42.482,16.82 	"/>
	<polygon points="36.454,27.958 31.632,27.958 34.043,32.135 	"/>
	<polygon points="30.426,27.958 25.604,27.958 28.015,32.135 	"/>
	<polygon points="24.396,27.958 19.574,27.958 21.986,32.135 	"/>
	<polygon points="18.368,27.958 13.546,27.958 15.958,32.135 	"/>
	<polygon points="12.943,28.307 10.532,32.483 15.354,32.483 	"/>
	<polygon points="18.972,28.307 16.561,32.483 21.383,32.483 	"/>
	<polygon points="25,28.307 22.589,32.483 27.411,32.483 	"/>
	<polygon points="31.029,28.307 28.617,32.483 33.439,32.483 	"/>
	<polygon points="27.411,33.18 22.589,33.18 25,37.355 	"/>
	<polygon points="21.383,33.18 16.561,33.18 18.972,37.355 	"/>
	<polygon points="28.015,33.527 25.604,37.704 30.426,37.704 	"/>
	<polygon points="30.426,38.4 25.604,38.4 28.015,42.577 	"/>
	<polygon points="18.368,38.4 13.546,38.4 15.958,42.577 	"/>
	<polygon points="12.34,38.4 7.518,38.4 9.93,42.577 	"/>
	<polygon points="12.943,38.748 10.532,42.925 15.354,42.925 	"/>
	<polygon points="25,38.748 22.589,42.925 27.411,42.925 	"/>
</g>
</svg>
