<?xml version="1.0" encoding="utf-8"?>
<!-- Generator: Adobe Illustrator 16.0.0, SVG Export Plug-In . SVG Version: 6.00 Build 0)  -->
<!DOCTYPE svg PUBLIC "-//W3C//DTD SVG 1.1//EN" "http://www.w3.org/Graphics/SVG/1.1/DTD/svg11.dtd">
<svg version="1.1" id="Layer_1" xmlns="http://www.w3.org/2000/svg" xmlns:xlink="http://www.w3.org/1999/xlink" x="0px" y="0px"
	 width="50px" height="50px" viewBox="0 0 50 50" enable-background="new 0 0 50 50" xml:space="preserve">
<g>
	<polygon points="38.134,15.837 33.755,15.837 35.945,19.628 	"/>
	<polygon points="30.472,19.628 32.661,15.837 28.284,15.837 	"/>
	<polygon points="21.716,15.837 17.339,15.837 19.528,19.628 	"/>
	<polygon points="16.245,15.837 11.866,15.837 14.055,19.628 	"/>
	<polygon points="18.98,19.944 16.792,16.153 14.603,19.944 	"/>
	<polygon points="20.075,19.944 24.453,19.944 22.264,16.153 	"/>
	<polygon points="27.736,16.153 25.547,19.944 29.925,19.944 	"/>
	<polygon points="35.397,19.944 33.208,16.153 31.02,19.944 	"/>
	<polygon points="25.547,20.576 27.736,24.367 29.925,20.576 	"/>
	<polygon points="22.264,24.367 24.453,20.576 20.075,20.576 	"/>
	<polygon points="25,20.892 22.811,24.685 27.189,24.685 	"/>
	<polygon points="25,29.107 27.189,25.314 22.811,25.314 	"/>
	<polygon points="24.453,29.423 22.264,25.632 20.075,29.423 	"/>
	<polygon points="27.736,25.632 25.547,29.423 29.925,29.423 	"/>
	<polygon points="31.02,30.055 33.208,33.846 35.397,30.055 	"/>
	<polygon points="29.925,30.055 25.547,30.055 27.736,33.846 	"/>
	<polygon points="22.264,33.846 24.453,30.055 20.075,30.055 	"/>
	<polygon points="14.603,30.055 16.792,33.846 18.98,30.055 	"/>
	<polygon points="11.866,34.162 16.245,34.162 14.055,30.371 	"/>
	<polygon points="19.528,30.371 17.339,34.162 21.716,34.162 	"/>
	<polygon points="28.284,34.162 32.661,34.162 30.472,30.371 	"/>
	<polygon points="33.755,34.162 38.134,34.162 35.945,30.371 	"/>
	<polygon points="38.681,24.367 40.87,20.576 36.492,20.576 	"/>
	<polygon points="13.508,20.576 9.13,20.576 11.319,24.367 	"/>
	<polygon points="8.583,20.892 6.394,24.685 10.771,24.685 	"/>
	<polygon points="14.055,20.892 11.866,24.685 16.245,24.685 	"/>
	<polygon points="35.945,20.892 33.755,24.685 38.134,24.685 	"/>
	<polygon points="43.606,24.685 41.417,20.892 39.229,24.685 	"/>
	<polygon points="27.189,6.358 22.811,6.358 25,10.149 	"/>
	<polygon points="22.264,6.674 20.075,10.467 24.453,10.467 	"/>
	<polygon points="29.925,10.467 27.736,6.674 25.547,10.467 	"/>
	<polygon points="29.925,11.098 25.547,11.098 27.736,14.89 	"/>
	<polygon points="24.453,11.098 20.075,11.098 22.264,14.89 	"/>
	<polygon points="22.811,15.205 27.189,15.205 25,11.414 	"/>
	<polygon points="35.945,29.107 38.134,25.314 33.755,25.314 	"/>
	<polygon points="14.055,29.107 16.245,25.314 11.866,25.314 	"/>
	<polygon points="6.394,25.314 8.583,29.107 10.771,25.314 	"/>
	<polygon points="11.319,25.632 9.13,29.423 13.508,29.423 	"/>
	<polygon points="36.492,29.423 40.87,29.423 38.681,25.632 	"/>
	<polygon points="41.417,29.107 43.606,25.314 39.229,25.314 	"/>
	<polygon points="27.189,34.794 22.811,34.794 25,38.585 	"/>
	<polygon points="24.453,38.901 22.264,35.109 20.075,38.901 	"/>
	<polygon points="25.547,38.901 29.925,38.901 27.736,35.109 	"/>
	<polygon points="27.736,43.325 29.925,39.532 25.547,39.532 	"/>
	<polygon points="20.075,39.532 22.264,43.325 24.453,39.532 	"/>
	<polygon points="22.811,43.641 27.189,43.641 25,39.85 	"/>
</g>
</svg>
