<?xml version="1.0" encoding="utf-8"?>
<!-- Generator: Adobe Illustrator 16.0.0, SVG Export Plug-In . SVG Version: 6.00 Build 0)  -->
<!DOCTYPE svg PUBLIC "-//W3C//DTD SVG 1.1//EN" "http://www.w3.org/Graphics/SVG/1.1/DTD/svg11.dtd">
<svg version="1.1" id="Layer_1" xmlns="http://www.w3.org/2000/svg" xmlns:xlink="http://www.w3.org/1999/xlink" x="0px" y="0px"
	 width="50px" height="50px" viewBox="0 0 50 50" enable-background="new 0 0 50 50" xml:space="preserve">
<g>
	<polygon points="38.837,15.347 34.225,15.347 36.531,19.341 	"/>
	<polygon points="30.767,19.341 33.071,15.347 28.46,15.347 	"/>
	<polygon points="25.001,19.341 27.306,15.347 22.694,15.347 	"/>
	<polygon points="21.54,15.347 16.929,15.347 19.235,19.341 	"/>
	<polygon points="15.775,15.347 11.162,15.347 13.47,19.341 	"/>
	<polygon points="10.587,15.679 8.28,19.674 12.892,19.674 	"/>
	<polygon points="18.658,19.674 16.353,15.679 14.046,19.674 	"/>
	<polygon points="19.812,19.674 24.424,19.674 22.118,15.679 	"/>
	<polygon points="27.883,15.679 25.576,19.674 30.189,19.674 	"/>
	<polygon points="35.954,19.674 33.649,15.679 31.342,19.674 	"/>
	<polygon points="41.72,19.674 39.415,15.679 37.108,19.674 	"/>
	<polygon points="31.342,20.34 33.649,24.334 35.954,20.34 	"/>
	<polygon points="39.415,24.334 41.72,20.34 37.108,20.34 	"/>
	<polygon points="30.189,20.34 25.576,20.34 27.883,24.334 	"/>
	<polygon points="22.118,24.334 24.424,20.34 19.812,20.34 	"/>
	<polygon points="14.046,20.34 16.353,24.334 18.658,20.34 	"/>
	<polygon points="8.28,20.34 10.587,24.334 12.892,20.34 	"/>
	<polygon points="11.162,24.667 15.775,24.667 13.47,20.673 	"/>
	<polygon points="19.235,20.673 16.929,24.667 21.54,24.667 	"/>
	<polygon points="25.001,20.673 22.694,24.667 27.306,24.667 	"/>
	<polygon points="28.46,24.667 33.071,24.667 30.767,20.673 	"/>
	<polygon points="34.225,24.667 38.837,24.667 36.531,20.673 	"/>
	<polygon points="27.306,5.36 22.694,5.36 25.001,9.354 	"/>
	<polygon points="22.118,5.693 19.812,9.688 24.424,9.688 	"/>
	<polygon points="30.189,9.688 27.883,5.693 25.576,9.688 	"/>
	<polygon points="30.189,10.354 25.576,10.354 27.883,14.349 	"/>
	<polygon points="24.424,10.354 19.812,10.354 22.118,14.349 	"/>
	<polygon points="22.694,14.681 27.306,14.681 25.001,10.687 	"/>
	<polygon points="22.694,25.333 25.001,29.327 27.306,25.333 	"/>
	<polygon points="24.424,29.66 22.118,25.666 19.812,29.66 	"/>
	<polygon points="25.576,29.66 30.189,29.66 27.883,25.666 	"/>
	<polygon points="27.883,34.321 30.189,30.326 25.576,30.326 	"/>
	<polygon points="22.118,34.321 24.424,30.326 19.812,30.326 	"/>
	<polygon points="25.001,30.659 22.694,34.653 27.306,34.653 	"/>
	<polygon points="27.306,35.319 22.694,35.319 25.001,39.313 	"/>
	<polygon points="24.424,39.646 22.118,35.651 19.812,39.646 	"/>
	<polygon points="25.576,39.646 30.189,39.646 27.883,35.651 	"/>
	<polygon points="27.883,44.307 30.189,40.313 25.576,40.313 	"/>
	<polygon points="19.812,40.313 22.118,44.307 24.424,40.313 	"/>
	<polygon points="22.694,44.64 27.306,44.64 25.001,40.646 	"/>
</g>
</svg>
