<?xml version="1.0" encoding="utf-8"?>
<!-- Generator: Adobe Illustrator 16.0.0, SVG Export Plug-In . SVG Version: 6.00 Build 0)  -->
<!DOCTYPE svg PUBLIC "-//W3C//DTD SVG 1.1//EN" "http://www.w3.org/Graphics/SVG/1.1/DTD/svg11.dtd">
<svg version="1.1" id="Layer_1" xmlns="http://www.w3.org/2000/svg" xmlns:xlink="http://www.w3.org/1999/xlink" x="0px" y="0px"
	 width="50px" height="50px" viewBox="0 0 50 50" enable-background="new 0 0 50 50" xml:space="preserve">
<g>
	<polygon points="37.555,13.825 33.37,13.825 35.462,17.449 	"/>
	<polygon points="27.092,13.825 22.908,13.825 25,17.449 	"/>
	<polygon points="16.63,13.825 12.445,13.825 14.538,17.449 	"/>
	<polygon points="11.923,14.127 9.83,17.751 14.015,17.751 	"/>
	<polygon points="19.246,17.751 17.153,14.127 15.061,17.751 	"/>
	<polygon points="32.847,14.127 30.754,17.751 34.939,17.751 	"/>
	<polygon points="35.985,17.751 40.17,17.751 38.077,14.127 	"/>
	<polygon points="30.754,18.355 32.847,21.98 34.939,18.355 	"/>
	<polygon points="25.523,18.355 27.616,21.98 29.708,18.355 	"/>
	<polygon points="24.477,18.355 20.292,18.355 22.384,21.98 	"/>
	<polygon points="15.061,18.355 17.153,21.98 19.246,18.355 	"/>
	<polygon points="6.691,21.98 8.783,18.355 4.599,18.355 	"/>
	<polygon points="12.445,22.282 16.63,22.282 14.538,18.657 	"/>
	<polygon points="21.861,22.282 19.769,18.657 17.677,22.282 	"/>
	<polygon points="25,18.657 22.908,22.282 27.092,22.282 	"/>
	<polygon points="28.139,22.282 32.323,22.282 30.231,18.657 	"/>
	<polygon points="33.37,22.282 37.555,22.282 35.462,18.657 	"/>
	<polygon points="14.538,9.597 12.445,13.221 16.63,13.221 	"/>
	<polygon points="25,9.597 22.908,13.221 27.092,13.221 	"/>
	<polygon points="35.462,9.597 33.37,13.221 37.555,13.221 	"/>
	<polygon points="30.231,26.51 32.323,22.886 28.139,22.886 	"/>
	<polygon points="25,26.51 27.092,22.886 22.908,22.886 	"/>
	<polygon points="19.769,26.51 21.861,22.886 17.677,22.886 	"/>
	<polygon points="20.292,26.812 24.477,26.812 22.384,23.188 	"/>
	<polygon points="27.616,23.188 25.523,26.812 29.708,26.812 	"/>
	<polygon points="25.523,27.417 27.616,31.04 29.708,27.417 	"/>
	<polygon points="22.384,31.04 24.477,27.417 20.292,27.417 	"/>
	<polygon points="25,27.718 22.908,31.342 27.092,31.342 	"/>
	<polygon points="27.092,31.946 22.908,31.946 25,35.571 	"/>
	<polygon points="22.384,32.249 20.292,35.873 24.477,35.873 	"/>
	<polygon points="27.616,32.249 25.523,35.873 29.708,35.873 	"/>
	<polygon points="41.217,18.355 43.309,21.98 45.401,18.355 	"/>
	<polygon points="25.523,36.477 27.616,40.101 29.708,36.477 	"/>
	<polygon points="20.292,36.477 22.384,40.101 24.477,36.477 	"/>
	<polygon points="17.677,40.403 21.861,40.403 19.769,36.778 	"/>
	<polygon points="22.908,40.403 27.092,40.403 25,36.778 	"/>
	<polygon points="28.139,40.403 32.323,40.403 30.231,36.778 	"/>
</g>
</svg>
