<?xml version="1.0" encoding="utf-8"?>
<!-- Generator: Adobe Illustrator 16.0.0, SVG Export Plug-In . SVG Version: 6.00 Build 0)  -->
<!DOCTYPE svg PUBLIC "-//W3C//DTD SVG 1.1//EN" "http://www.w3.org/Graphics/SVG/1.1/DTD/svg11.dtd">
<svg version="1.1" id="Layer_1" xmlns="http://www.w3.org/2000/svg" xmlns:xlink="http://www.w3.org/1999/xlink" x="0px" y="0px"
	 width="50px" height="50px" viewBox="0 0 50 50" enable-background="new 0 0 50 50" xml:space="preserve">
<g>
	<polygon points="14.718,13.333 14.718,18.246 18.972,15.79 	"/>
	<polygon points="14.718,19.474 14.718,24.386 18.972,21.93 	"/>
	<polygon points="14.718,31.755 14.718,36.667 18.972,34.211 	"/>
	<polygon points="15.073,37.282 19.327,39.738 19.327,34.826 	"/>
	<polygon points="15.073,25 19.327,27.457 19.327,22.544 	"/>
	<polygon points="15.073,18.86 19.327,21.316 19.327,16.403 	"/>
	<polygon points="15.073,12.719 19.327,15.175 19.327,10.263 	"/>
	<polygon points="20.036,10.263 20.036,15.175 24.291,12.719 	"/>
	<polygon points="20.036,16.403 20.036,21.316 24.291,18.86 	"/>
	<polygon points="20.036,22.544 20.036,27.457 24.291,25 	"/>
	<polygon points="20.036,28.685 20.036,33.597 24.291,31.141 	"/>
	<polygon points="20.036,34.826 20.036,39.738 24.291,37.282 	"/>
	<polygon points="20.391,40.352 24.645,42.808 24.645,37.896 	"/>
	<polygon points="20.391,34.211 24.645,36.667 24.645,31.755 	"/>
	<polygon points="20.391,28.071 24.645,30.527 24.645,25.614 	"/>
	<polygon points="20.391,21.93 24.645,24.386 24.645,19.474 	"/>
	<polygon points="20.391,9.648 24.645,12.105 24.645,7.192 	"/>
	<polygon points="9.4,16.403 9.4,21.316 13.654,18.86 	"/>
	<polygon points="9.4,22.544 9.4,27.457 13.654,25 	"/>
	<polygon points="9.4,28.685 9.4,33.597 13.654,31.141 	"/>
	<polygon points="9.754,34.211 14.009,36.667 14.009,31.755 	"/>
	<polygon points="9.754,28.071 14.009,30.527 14.009,25.614 	"/>
	<polygon points="9.754,21.93 14.009,24.386 14.009,19.474 	"/>
	<polygon points="9.754,15.79 14.009,18.246 14.009,13.333 	"/>
	<polygon points="25.354,7.192 25.354,12.105 29.608,9.648 	"/>
	<polygon points="25.354,19.474 25.354,24.386 29.608,21.93 	"/>
	<polygon points="25.354,25.614 25.354,30.527 29.608,28.071 	"/>
	<polygon points="25.354,31.755 25.354,36.667 29.608,34.211 	"/>
	<polygon points="25.354,37.896 25.354,42.808 29.608,40.352 	"/>
	<polygon points="25.709,37.282 29.963,39.738 29.963,34.826 	"/>
	<polygon points="25.709,31.141 29.963,33.597 29.963,28.685 	"/>
	<polygon points="25.709,25 29.963,27.457 29.963,22.544 	"/>
	<polygon points="25.709,18.86 29.963,21.316 29.963,16.403 	"/>
	<polygon points="25.709,12.719 29.963,15.175 29.963,10.263 	"/>
	<polygon points="30.672,10.263 30.672,15.175 34.927,12.719 	"/>
	<polygon points="30.672,16.403 30.672,21.316 34.927,18.86 	"/>
	<polygon points="30.672,22.544 30.672,27.457 34.927,25 	"/>
	<polygon points="30.672,34.826 30.672,39.738 34.927,37.282 	"/>
	<polygon points="31.027,34.211 35.281,36.667 35.281,31.755 	"/>
	<polygon points="31.027,21.93 35.281,24.386 35.281,19.474 	"/>
	<polygon points="31.027,15.79 35.281,18.246 35.281,13.333 	"/>
	<polygon points="35.99,13.333 35.99,18.246 40.244,15.79 	"/>
	<polygon points="35.99,19.474 35.99,24.386 40.244,21.93 	"/>
	<polygon points="35.99,25.614 35.99,30.527 40.244,28.071 	"/>
	<polygon points="35.99,31.755 35.99,36.667 40.244,34.211 	"/>
	<polygon points="36.345,31.141 40.6,33.597 40.6,28.685 	"/>
	<polygon points="36.345,25 40.6,27.457 40.6,22.544 	"/>
	<polygon points="36.345,18.86 40.6,21.316 40.6,16.403 	"/>
</g>
</svg>
