<?xml version="1.0" encoding="utf-8"?>
<!-- Generator: Adobe Illustrator 16.0.0, SVG Export Plug-In . SVG Version: 6.00 Build 0)  -->
<!DOCTYPE svg PUBLIC "-//W3C//DTD SVG 1.1//EN" "http://www.w3.org/Graphics/SVG/1.1/DTD/svg11.dtd">
<svg version="1.1" id="Layer_1" xmlns="http://www.w3.org/2000/svg" xmlns:xlink="http://www.w3.org/1999/xlink" x="0px" y="0px"
	 width="50px" height="50px" viewBox="0 0 50 50" enable-background="new 0 0 50 50" xml:space="preserve">
<g>
	<polygon points="11.635,36.778 17.262,36.778 14.45,31.904 	"/>
	<polygon points="18.669,36.778 24.296,36.778 21.484,31.904 	"/>
	<polygon points="25.704,36.778 31.331,36.778 28.518,31.904 	"/>
	<polygon points="32.738,36.778 38.364,36.778 35.551,31.904 	"/>
	<polygon points="39.069,36.372 41.881,31.498 36.254,31.498 	"/>
	<polygon points="32.035,36.372 34.847,31.498 29.22,31.498 	"/>
	<polygon points="17.966,36.372 20.779,31.498 15.153,31.498 	"/>
	<polygon points="10.933,36.372 13.746,31.498 8.119,31.498 	"/>
	<polygon points="8.119,30.687 13.746,30.687 10.933,25.813 	"/>
	<polygon points="36.254,30.687 41.881,30.687 39.069,25.813 	"/>
	<polygon points="35.551,30.28 38.364,25.406 32.738,25.406 	"/>
	<polygon points="14.45,30.28 17.262,25.406 11.635,25.406 	"/>
	<polygon points="22.186,42.869 27.813,42.869 25,37.996 	"/>
	<polygon points="28.518,42.464 31.331,37.59 25.704,37.59 	"/>
	<polygon points="21.484,42.464 24.296,37.59 18.669,37.59 	"/>
	<polygon points="11.635,24.594 17.262,24.594 14.45,19.721 	"/>
	<polygon points="32.738,24.594 38.364,24.594 35.551,19.721 	"/>
	<polygon points="39.069,24.188 41.881,19.314 36.254,19.314 	"/>
	<polygon points="10.933,24.188 13.746,19.314 8.119,19.314 	"/>
	<polygon points="8.119,18.502 13.746,18.502 10.933,13.629 	"/>
	<polygon points="15.153,18.502 20.779,18.502 17.966,13.629 	"/>
	<polygon points="29.22,18.502 34.847,18.502 32.035,13.629 	"/>
	<polygon points="36.254,18.502 41.881,18.502 39.069,13.629 	"/>
	<polygon points="35.551,18.096 38.364,13.223 32.738,13.223 	"/>
	<polygon points="28.518,18.096 31.331,13.223 25.704,13.223 	"/>
	<polygon points="21.484,18.096 24.296,13.223 18.669,13.223 	"/>
	<polygon points="14.45,18.096 17.262,13.223 11.635,13.223 	"/>
	<polygon points="18.669,12.41 24.296,12.41 21.484,7.537 	"/>
	<polygon points="25.704,12.41 31.331,12.41 28.518,7.537 	"/>
	<polygon points="25,12.004 27.813,7.131 22.186,7.131 	"/>
</g>
</svg>
