<?xml version="1.0" encoding="utf-8"?>
<!-- Generator: Adobe Illustrator 16.0.0, SVG Export Plug-In . SVG Version: 6.00 Build 0)  -->
<!DOCTYPE svg PUBLIC "-//W3C//DTD SVG 1.1//EN" "http://www.w3.org/Graphics/SVG/1.1/DTD/svg11.dtd">
<svg version="1.1" id="Layer_1" xmlns="http://www.w3.org/2000/svg" xmlns:xlink="http://www.w3.org/1999/xlink" x="0px" y="0px"
	 width="50px" height="50px" viewBox="0 0 50 50" enable-background="new 0 0 50 50" xml:space="preserve">
<g>
	<polygon points="10.126,20.262 14.229,20.262 12.178,16.708 	"/>
	<polygon points="37.822,16.708 35.771,20.262 39.874,20.262 	"/>
	<polygon points="32.693,24.407 34.744,20.854 30.642,20.854 	"/>
	<polygon points="19.358,20.854 15.256,20.854 17.308,24.407 	"/>
	<polygon points="21.923,24.703 19.872,21.15 17.819,24.703 	"/>
	<polygon points="30.129,21.15 28.077,24.703 32.181,24.703 	"/>
	<polygon points="28.077,25.296 30.129,28.85 32.181,25.296 	"/>
	<polygon points="17.819,25.296 19.872,28.85 21.923,25.296 	"/>
	<polygon points="15.256,29.146 19.358,29.146 17.308,25.592 	"/>
	<polygon points="30.642,29.146 34.744,29.146 32.693,25.592 	"/>
	<polygon points="35.771,29.737 37.822,33.291 39.874,29.737 	"/>
	<polygon points="12.178,33.291 14.229,29.737 10.126,29.737 	"/>
	<polygon points="27.051,16.412 22.948,16.412 25.001,19.965 	"/>
	<polygon points="22.436,16.708 20.384,20.262 24.487,20.262 	"/>
	<polygon points="29.616,20.262 27.565,16.708 25.513,20.262 	"/>
	<polygon points="27.565,24.407 29.616,20.854 25.513,20.854 	"/>
	<polygon points="24.487,20.854 20.384,20.854 22.436,24.407 	"/>
	<polygon points="27.051,7.528 22.948,7.528 25.001,11.082 	"/>
	<polygon points="25.001,12.267 22.948,15.82 27.051,15.82 	"/>
	<polygon points="20.384,29.146 24.487,29.146 22.436,25.592 	"/>
	<polygon points="25.513,29.146 29.616,29.146 27.565,25.592 	"/>
	<polygon points="27.565,33.291 29.616,29.737 25.513,29.737 	"/>
	<polygon points="20.384,29.737 22.436,33.291 24.487,29.737 	"/>
	<polygon points="22.948,33.587 27.051,33.587 25.001,30.034 	"/>
	<polygon points="25.001,37.732 27.051,34.179 22.948,34.179 	"/>
	<polygon points="22.948,42.471 27.051,42.471 25.001,38.917 	"/>
</g>
</svg>
