<?xml version="1.0" encoding="utf-8"?>
<!-- Generator: Adobe Illustrator 16.0.0, SVG Export Plug-In . SVG Version: 6.00 Build 0)  -->
<!DOCTYPE svg PUBLIC "-//W3C//DTD SVG 1.1//EN" "http://www.w3.org/Graphics/SVG/1.1/DTD/svg11.dtd">
<svg version="1.1" id="Layer_1" xmlns="http://www.w3.org/2000/svg" xmlns:xlink="http://www.w3.org/1999/xlink" x="0px" y="0px"
	 width="50px" height="50px" viewBox="0 0 50 50" enable-background="new 0 0 50 50" xml:space="preserve">
<g>
	<polygon points="24.999,6.608 22.335,11.224 27.664,11.224 	"/>
	<polygon points="27.664,11.993 22.335,11.993 24.999,16.608 	"/>
	<polygon points="22.335,43.392 27.664,43.392 24.999,38.776 	"/>
	<polygon points="12.069,17.151 6.74,17.152 9.405,21.766 	"/>
	<polygon points="15.4,22.152 12.736,17.536 10.071,22.151 	"/>
	<polygon points="34.599,33.236 37.264,37.85 39.929,33.235 	"/>
	<polygon points="37.93,38.235 43.259,38.236 40.595,33.62 	"/>
	<polygon points="6.74,38.236 12.069,38.235 9.404,33.62 	"/>
	<polygon points="12.736,37.851 15.4,33.236 10.071,33.235 	"/>
	<polygon points="37.264,17.535 34.6,22.152 39.928,22.151 	"/>
	<polygon points="43.26,17.152 37.93,17.151 40.594,21.767 	"/>
	<polygon points="28.304,21.224 30.947,16.645 25.66,16.645 	"/>
	<polygon points="24.339,16.645 19.052,16.645 21.695,21.224 	"/>
	<polygon points="18.391,17.026 15.747,21.605 21.034,21.605 	"/>
	<polygon points="25,17.026 22.356,21.605 27.643,21.605 	"/>
	<polygon points="34.252,21.605 31.608,17.026 28.965,21.605 	"/>
	<polygon points="28.965,22.368 31.608,26.947 34.252,22.368 	"/>
	<polygon points="21.034,22.368 15.747,22.368 18.391,26.947 	"/>
	<polygon points="15.086,22.75 12.442,27.329 17.729,27.329 	"/>
	<polygon points="34.913,22.75 32.27,27.329 37.557,27.329 	"/>
	<polygon points="34.913,32.671 37.557,28.092 32.27,28.092 	"/>
	<polygon points="15.086,32.671 17.729,28.092 12.442,28.092 	"/>
	<polygon points="18.391,28.474 15.747,33.053 21.034,33.053 	"/>
	<polygon points="28.965,33.053 34.252,33.053 31.608,28.474 	"/>
	<polygon points="31.608,38.395 34.252,33.816 28.965,33.816 	"/>
	<polygon points="25,38.395 27.643,33.816 22.356,33.816 	"/>
	<polygon points="15.747,33.816 18.391,38.395 21.034,33.816 	"/>
	<polygon points="21.695,34.197 19.052,38.776 24.339,38.776 	"/>
	<polygon points="25.66,38.776 30.947,38.776 28.304,34.197 	"/>
</g>
</svg>
