<?xml version="1.0" encoding="utf-8"?>
<!-- Generator: Adobe Illustrator 16.0.0, SVG Export Plug-In . SVG Version: 6.00 Build 0)  -->
<!DOCTYPE svg PUBLIC "-//W3C//DTD SVG 1.1//EN" "http://www.w3.org/Graphics/SVG/1.1/DTD/svg11.dtd">
<svg version="1.1" id="Layer_1" xmlns="http://www.w3.org/2000/svg" xmlns:xlink="http://www.w3.org/1999/xlink" x="0px" y="0px"
	 width="50px" height="50px" viewBox="0 0 50 50" enable-background="new 0 0 50 50" xml:space="preserve">
<g>
	<polygon points="22.069,5.362 19.723,9.425 24.414,9.425 	"/>
	<polygon points="27.933,5.362 25.587,9.425 30.279,9.425 	"/>
	<polygon points="30.279,10.103 25.587,10.103 27.933,14.166 	"/>
	<polygon points="24.414,10.103 19.723,10.103 22.069,14.166 	"/>
	<polygon points="22.655,15.181 25.001,19.243 27.346,15.181 	"/>
	<polygon points="27.346,14.504 25.001,10.441 22.655,14.504 	"/>
	<polygon points="22.655,34.817 27.346,34.817 25.001,30.756 	"/>
	<polygon points="22.655,35.495 25.001,39.558 27.346,35.495 	"/>
	<polygon points="19.723,39.896 24.414,39.896 22.069,35.833 	"/>
	<polygon points="25.587,39.896 30.279,39.896 27.933,35.833 	"/>
	<polygon points="27.933,44.637 30.279,40.574 25.587,40.574 	"/>
	<polygon points="22.069,44.637 24.414,40.574 19.723,40.574 	"/>
	<polygon points="11.219,17.72 6.528,17.72 8.874,21.783 	"/>
	<polygon points="14.151,12.642 9.46,12.642 11.806,16.705 	"/>
	<polygon points="17.083,17.043 14.738,12.98 12.392,17.043 	"/>
	<polygon points="11.806,18.06 9.46,22.121 14.152,22.121 	"/>
	<polygon points="20.016,22.121 17.67,18.06 15.324,22.121 	"/>
	<polygon points="12.392,17.72 14.739,21.783 17.083,17.72 	"/>
	<polygon points="29.984,27.877 32.331,31.939 34.676,27.877 	"/>
	<polygon points="32.917,32.278 37.608,32.279 35.263,28.216 	"/>
	<polygon points="32.917,32.956 35.263,37.018 37.608,32.956 	"/>
	<polygon points="40.541,27.877 35.85,27.877 38.195,31.939 	"/>
	<polygon points="41.127,28.216 38.782,32.279 43.473,32.279 	"/>
	<polygon points="35.85,37.356 40.541,37.356 38.195,33.294 	"/>
	<polygon points="9.459,37.356 14.15,37.356 11.806,33.294 	"/>
	<polygon points="8.874,28.216 6.527,32.279 11.219,32.279 	"/>
	<polygon points="11.806,31.939 14.151,27.877 9.459,27.877 	"/>
	<polygon points="14.736,37.019 17.083,32.956 12.392,32.956 	"/>
	<polygon points="15.324,27.877 17.668,31.939 20.016,27.877 	"/>
	<polygon points="14.737,28.216 12.392,32.279 17.083,32.278 	"/>
	<polygon points="34.676,22.121 32.331,18.06 29.984,22.121 	"/>
	<polygon points="37.608,17.72 32.917,17.72 35.262,21.783 	"/>
	<polygon points="38.195,18.06 35.85,22.121 40.54,22.121 	"/>
	<polygon points="35.263,12.98 32.917,17.043 37.608,17.043 	"/>
	<polygon points="40.541,12.642 35.849,12.642 38.195,16.705 	"/>
	<polygon points="41.126,21.783 43.473,17.72 38.782,17.72 	"/>
</g>
</svg>
