<?xml version="1.0" encoding="utf-8"?>
<!-- Generator: Adobe Illustrator 16.0.0, SVG Export Plug-In . SVG Version: 6.00 Build 0)  -->
<!DOCTYPE svg PUBLIC "-//W3C//DTD SVG 1.1//EN" "http://www.w3.org/Graphics/SVG/1.1/DTD/svg11.dtd">
<svg version="1.1" id="Layer_1" xmlns="http://www.w3.org/2000/svg" xmlns:xlink="http://www.w3.org/1999/xlink" x="0px" y="0px"
	 width="50px" height="50px" viewBox="0 0 50 50" enable-background="new 0 0 50 50" xml:space="preserve">
<g>
	<polygon points="35.828,36.67 38.716,31.669 32.941,31.669 	"/>
	<polygon points="32.941,30.835 38.716,30.835 35.828,25.834 	"/>
	<polygon points="35.828,24.167 38.716,19.165 32.941,19.165 	"/>
	<polygon points="21.391,24.167 24.278,19.165 18.503,19.165 	"/>
	<polygon points="18.503,18.331 24.278,18.331 21.391,13.33 	"/>
	<polygon points="32.941,18.331 38.716,18.331 35.828,13.33 	"/>
	<polygon points="14.171,36.67 17.059,31.669 11.284,31.669 	"/>
	<polygon points="11.284,30.835 17.059,30.835 14.171,25.834 	"/>
	<polygon points="39.438,30.418 42.325,25.417 36.55,25.417 	"/>
	<polygon points="10.562,30.418 13.45,25.417 7.675,25.417 	"/>
	<polygon points="7.675,24.583 13.45,24.583 10.562,19.582 	"/>
	<polygon points="21.391,36.67 24.278,31.669 18.503,31.669 	"/>
	<polygon points="18.503,30.835 24.278,30.835 21.391,25.834 	"/>
	<polygon points="14.894,37.087 20.668,37.087 17.781,32.086 	"/>
	<polygon points="29.332,37.087 35.106,37.087 32.219,32.086 	"/>
	<polygon points="28.609,36.67 31.497,31.669 25.722,31.669 	"/>
	<polygon points="25.722,30.835 31.497,30.835 28.609,25.834 	"/>
	<polygon points="25,30.418 27.887,25.417 22.112,25.417 	"/>
	<polygon points="32.219,42.922 35.106,37.921 29.332,37.921 	"/>
	<polygon points="17.781,42.922 20.668,37.921 14.894,37.921 	"/>
	<polygon points="22.112,24.583 27.887,24.583 25,19.582 	"/>
	<polygon points="36.55,24.583 42.325,24.583 39.438,19.582 	"/>
	<polygon points="28.609,24.167 31.497,19.165 25.722,19.165 	"/>
	<polygon points="14.171,24.167 17.059,19.165 11.284,19.165 	"/>
	<polygon points="11.284,18.331 17.059,18.331 14.171,13.33 	"/>
	<polygon points="25.722,18.331 31.497,18.331 28.609,13.33 	"/>
	<polygon points="32.219,17.915 35.106,12.913 29.332,12.913 	"/>
	<polygon points="17.781,17.915 20.668,12.913 14.894,12.913 	"/>
	<polygon points="14.894,12.08 20.668,12.08 17.781,7.078 	"/>
	<polygon points="29.332,12.08 35.106,12.08 32.219,7.078 	"/>
</g>
</svg>
