<?xml version="1.0" encoding="utf-8"?>
<!-- Generator: Adobe Illustrator 16.0.0, SVG Export Plug-In . SVG Version: 6.00 Build 0)  -->
<!DOCTYPE svg PUBLIC "-//W3C//DTD SVG 1.1//EN" "http://www.w3.org/Graphics/SVG/1.1/DTD/svg11.dtd">
<svg version="1.1" id="Layer_1" xmlns="http://www.w3.org/2000/svg" xmlns:xlink="http://www.w3.org/1999/xlink" x="0px" y="0px"
	 width="50px" height="50px" viewBox="0 0 50 50" enable-background="new 0 0 50 50" xml:space="preserve">
<g>
	<polygon points="32.794,10.5 25.866,10.5 29.33,16.5 	"/>
	<polygon points="24.134,10.5 17.206,10.5 20.67,16.5 	"/>
	<polygon points="16.34,11 12.876,17 19.804,17 	"/>
	<polygon points="37.124,17 33.66,11 30.196,17 	"/>
	<polygon points="33.66,24 37.124,18 30.196,18 	"/>
	<polygon points="19.804,18 12.876,18 16.34,24 	"/>
	<polygon points="12.01,18.5 8.546,24.5 15.474,24.5 	"/>
	<polygon points="41.454,24.5 37.99,18.5 34.526,24.5 	"/>
	<polygon points="37.99,31.5 41.454,25.5 34.526,25.5 	"/>
	<polygon points="8.546,25.5 12.01,31.5 15.474,25.5 	"/>
	<polygon points="33.66,39 37.124,33 30.196,33 	"/>
	<polygon points="21.536,33 25,39 28.464,33 	"/>
	<polygon points="12.876,33 16.34,39 19.804,33 	"/>
	<polygon points="17.206,39.5 24.134,39.5 20.67,33.5 	"/>
	<polygon points="25.866,39.5 32.794,39.5 29.33,33.5 	"/>
</g>
</svg>
