<?xml version="1.0" encoding="utf-8"?>
<!-- Generator: Adobe Illustrator 16.0.0, SVG Export Plug-In . SVG Version: 6.00 Build 0)  -->
<!DOCTYPE svg PUBLIC "-//W3C//DTD SVG 1.1//EN" "http://www.w3.org/Graphics/SVG/1.1/DTD/svg11.dtd">
<svg version="1.1" id="Layer_1" xmlns="http://www.w3.org/2000/svg" xmlns:xlink="http://www.w3.org/1999/xlink" x="0px" y="0px"
	 width="50px" height="50px" viewBox="0 0 50 50" enable-background="new 0 0 50 50" xml:space="preserve">
<g>
	<polygon points="27.702,16.419 22.298,16.419 25,21.1 	"/>
	<polygon points="21.622,16.809 18.92,21.49 24.324,21.49 	"/>
	<polygon points="31.08,21.49 28.378,16.809 25.676,21.49 	"/>
	<polygon points="25.676,22.27 28.378,26.95 31.08,22.27 	"/>
	<polygon points="18.92,22.27 21.622,26.95 24.324,22.27 	"/>
	<polygon points="15.542,27.34 20.946,27.34 18.244,22.66 	"/>
	<polygon points="34.458,27.34 31.756,22.66 29.054,27.34 	"/>
	<polygon points="25,10.958 22.298,15.639 27.702,15.639 	"/>
	<polygon points="31.756,32.801 34.458,28.12 29.054,28.12 	"/>
	<polygon points="18.244,32.801 20.946,28.12 15.542,28.12 	"/>
	<polygon points="12.164,33.191 17.568,33.191 14.866,28.51 	"/>
	<polygon points="37.836,33.191 35.134,28.51 32.432,33.191 	"/>
	<polygon points="32.432,33.971 35.134,38.651 37.836,33.971 	"/>
	<polygon points="25.676,33.971 28.378,38.651 31.08,33.971 	"/>
	<polygon points="14.866,38.651 17.568,33.971 12.164,33.971 	"/>
	<polygon points="8.787,39.042 14.19,39.042 11.488,34.361 	"/>
	<polygon points="22.298,39.042 27.702,39.042 25,34.361 	"/>
	<polygon points="29.054,39.042 34.458,39.042 31.756,34.361 	"/>
	<polygon points="38.512,34.361 35.81,39.042 41.213,39.042 	"/>
</g>
</svg>
