<?xml version="1.0" encoding="utf-8"?>
<!-- Generator: Adobe Illustrator 16.0.0, SVG Export Plug-In . SVG Version: 6.00 Build 0)  -->
<!DOCTYPE svg PUBLIC "-//W3C//DTD SVG 1.1//EN" "http://www.w3.org/Graphics/SVG/1.1/DTD/svg11.dtd">
<svg version="1.1" id="Layer_1" xmlns="http://www.w3.org/2000/svg" xmlns:xlink="http://www.w3.org/1999/xlink" x="0px" y="0px"
	 width="50px" height="50px" viewBox="0 0 50 50" enable-background="new 0 0 50 50" xml:space="preserve">
<g>
	<polygon points="37.124,10.5 30.196,10.5 33.66,16.5 	"/>
	<polygon points="28.464,10.5 21.536,10.5 25,16.5 	"/>
	<polygon points="19.804,10.5 12.876,10.5 16.34,16.5 	"/>
	<polygon points="12.01,11 8.546,17 15.474,17 	"/>
	<polygon points="24.134,17 20.67,11 17.206,17 	"/>
	<polygon points="32.794,17 29.33,11 25.866,17 	"/>
	<polygon points="34.526,17 41.454,17 37.99,11 	"/>
	<polygon points="37.99,24 41.454,18 34.526,18 	"/>
	<polygon points="25.866,18 29.33,24 32.794,18 	"/>
	<polygon points="24.134,18 17.206,18 20.67,24 	"/>
	<polygon points="15.474,18 8.546,18 12.01,24 	"/>
	<polygon points="16.34,18.5 12.876,24.5 19.804,24.5 	"/>
	<polygon points="33.66,18.5 30.196,24.5 37.124,24.5 	"/>
	<polygon points="33.66,31.5 37.124,25.5 30.196,25.5 	"/>
	<polygon points="16.34,31.5 19.804,25.5 12.876,25.5 	"/>
	<polygon points="12.01,26 8.546,32 15.474,32 	"/>
	<polygon points="34.526,32 41.454,32 37.99,26 	"/>
	<polygon points="37.99,39 41.454,33 34.526,33 	"/>
	<polygon points="25.866,33 29.33,39 32.794,33 	"/>
	<polygon points="17.206,33 20.67,39 24.134,33 	"/>
	<polygon points="8.546,33 12.01,39 15.474,33 	"/>
	<polygon points="12.876,39.5 19.804,39.5 16.34,33.5 	"/>
	<polygon points="21.536,39.5 28.464,39.5 25,33.5 	"/>
	<polygon points="30.196,39.5 37.124,39.5 33.66,33.5 	"/>
	<polygon points="8.546,39.5 11.144,39.5 8.546,35 	"/>
	<polygon points="38.856,10.5 41.454,15 41.454,10.5 	"/>
	<polygon points="8.546,25.5 8.546,30 11.144,25.5 	"/>
	<polygon points="41.454,24.5 41.454,20 38.856,24.5 	"/>
	<polygon points="8.546,20 8.546,24.5 11.144,24.5 	"/>
	<polygon points="41.454,30 41.454,25.5 38.856,25.5 	"/>
	<polygon points="8.546,10.5 8.546,15 11.144,10.5 	"/>
	<polygon points="41.454,39.5 41.454,35 38.856,39.5 	"/>
</g>
</svg>
