<?xml version="1.0" encoding="utf-8"?>
<!-- Generator: Adobe Illustrator 16.0.0, SVG Export Plug-In . SVG Version: 6.00 Build 0)  -->
<!DOCTYPE svg PUBLIC "-//W3C//DTD SVG 1.1//EN" "http://www.w3.org/Graphics/SVG/1.1/DTD/svg11.dtd">
<svg version="1.1" id="Layer_1" xmlns="http://www.w3.org/2000/svg" xmlns:xlink="http://www.w3.org/1999/xlink" x="0px" y="0px"
	 width="50px" height="50px" viewBox="0 0 50 50" enable-background="new 0 0 50 50" xml:space="preserve">
<g>
	<polygon points="38.498,15.583 33.999,15.583 36.249,19.48 	"/>
	<polygon points="27.25,15.583 22.75,15.583 25,19.48 	"/>
	<polygon points="16.001,15.583 11.502,15.583 13.751,19.48 	"/>
	<polygon points="10.939,15.908 8.69,19.805 13.189,19.805 	"/>
	<polygon points="18.813,19.805 16.564,15.908 14.314,19.805 	"/>
	<polygon points="22.188,15.908 19.938,19.805 24.438,19.805 	"/>
	<polygon points="30.062,19.805 27.812,15.908 25.563,19.805 	"/>
	<polygon points="33.436,15.908 31.187,19.805 35.686,19.805 	"/>
	<polygon points="41.31,19.805 39.061,15.908 36.811,19.805 	"/>
	<polygon points="35.686,20.454 31.187,20.454 33.436,24.351 	"/>
	<polygon points="36.811,20.454 39.061,24.351 41.31,20.454 	"/>
	<polygon points="25.563,20.454 27.812,24.351 30.062,20.454 	"/>
	<polygon points="24.438,20.454 19.938,20.454 22.188,24.351 	"/>
	<polygon points="14.314,20.454 16.564,24.351 18.813,20.454 	"/>
	<polygon points="13.189,20.454 8.69,20.454 10.939,24.351 	"/>
	<polygon points="8.127,20.779 5.878,24.675 10.377,24.675 	"/>
	<polygon points="21.625,24.675 19.376,20.779 17.126,24.675 	"/>
	<polygon points="32.874,24.675 30.624,20.779 28.375,24.675 	"/>
	<polygon points="44.122,24.675 41.873,20.779 39.623,24.675 	"/>
	<polygon points="33.999,25.325 36.249,29.222 38.498,25.325 	"/>
	<polygon points="22.75,25.325 25,29.222 27.25,25.325 	"/>
	<polygon points="11.502,25.325 13.751,29.222 16.001,25.325 	"/>
	<polygon points="8.69,29.546 13.189,29.546 10.939,25.65 	"/>
	<polygon points="18.813,29.546 16.564,25.65 14.314,29.546 	"/>
	<polygon points="19.938,29.546 24.438,29.546 22.188,25.65 	"/>
	<polygon points="30.062,29.546 27.812,25.65 25.563,29.546 	"/>
	<polygon points="31.187,29.546 35.686,29.546 33.436,25.65 	"/>
	<polygon points="41.31,29.546 39.061,25.65 36.811,29.546 	"/>
	<polygon points="33.436,34.092 35.686,30.196 31.187,30.196 	"/>
	<polygon points="36.811,30.196 39.061,34.092 41.31,30.196 	"/>
	<polygon points="25.563,30.196 27.812,34.092 30.062,30.196 	"/>
	<polygon points="22.188,34.092 24.438,30.196 19.938,30.196 	"/>
	<polygon points="14.314,30.196 16.564,34.092 18.813,30.196 	"/>
	<polygon points="10.939,34.092 13.189,30.196 8.69,30.196 	"/>
	<polygon points="5.878,34.417 10.377,34.417 8.127,30.521 	"/>
	<polygon points="17.126,34.417 21.625,34.417 19.376,30.521 	"/>
	<polygon points="28.375,34.417 32.874,34.417 30.624,30.521 	"/>
	<polygon points="39.623,34.417 44.122,34.417 41.873,30.521 	"/>
</g>
</svg>
