<?xml version="1.0" encoding="utf-8"?>
<!-- Generator: Adobe Illustrator 16.0.0, SVG Export Plug-In . SVG Version: 6.00 Build 0)  -->
<!DOCTYPE svg PUBLIC "-//W3C//DTD SVG 1.1//EN" "http://www.w3.org/Graphics/SVG/1.1/DTD/svg11.dtd">
<svg version="1.1" id="Layer_1" xmlns="http://www.w3.org/2000/svg" xmlns:xlink="http://www.w3.org/1999/xlink" x="0px" y="0px"
	 width="50px" height="50px" viewBox="0 0 50 50" enable-background="new 0 0 50 50" xml:space="preserve">
<g>
	<polygon points="27.887,10 22.113,10 25.001,15 	"/>
	<polygon points="21.393,10.417 18.505,15.417 24.278,15.417 	"/>
	<polygon points="28.609,10.417 25.722,15.417 31.495,15.417 	"/>
	<polygon points="31.495,16.25 25.722,16.25 28.609,21.25 	"/>
	<polygon points="17.062,16.25 11.288,16.25 14.176,21.25 	"/>
	<polygon points="10.567,16.667 7.68,21.667 13.453,21.667 	"/>
	<polygon points="25.001,16.667 22.113,21.667 27.887,21.667 	"/>
	<polygon points="32.218,16.667 29.33,21.667 35.104,21.667 	"/>
	<polygon points="35.104,22.5 29.33,22.5 32.218,27.5 	"/>
	<polygon points="27.887,22.5 22.113,22.5 25.001,27.5 	"/>
	<polygon points="21.393,22.917 18.505,27.917 24.278,27.917 	"/>
	<polygon points="28.609,22.917 25.722,27.917 31.495,27.917 	"/>
	<polygon points="35.826,22.917 32.938,27.917 38.712,27.917 	"/>
	<polygon points="38.712,28.75 32.938,28.75 35.826,33.75 	"/>
	<polygon points="31.495,28.75 25.722,28.75 28.609,33.75 	"/>
	<polygon points="24.278,28.75 18.505,28.75 21.393,33.75 	"/>
	<polygon points="17.784,29.167 14.896,34.167 20.67,34.167 	"/>
	<polygon points="25.001,29.167 22.113,34.167 27.887,34.167 	"/>
	<polygon points="32.218,29.167 29.33,34.167 35.104,34.167 	"/>
	<polygon points="39.435,29.167 36.547,34.167 42.32,34.167 	"/>
	<polygon points="42.32,35 36.547,35 39.435,40 	"/>
	<polygon points="35.104,35 29.33,35 32.218,40 	"/>
	<polygon points="27.887,35 22.113,35 25.001,40 	"/>
	<polygon points="20.67,35 14.896,35 17.784,40 	"/>
</g>
</svg>
